  0
SECTION
  2
HEADER
  9
$ACADVER
  1
AC1032
  9
$ACADMAINTVER
 90
      174
  9
$DWGCODEPAGE
  3
ANSI_1252
  9
$LASTSAVEDBY
  1
ACER
  9
$REQUIREDVERSIONS
160
                 0
  9
$INSBASE
 10
0.0
 20
0.0
 30
0.0
  9
$EXTMIN
 10
-1133.491193573893
 20
-3979.307125869946
 30
0.0
  9
$EXTMAX
 10
21450.30412056976
 20
943.7077853193796
 30
0.0
  9
$LIMMIN
 10
0.0
 20
0.0
  9
$LIMMAX
 10
12.0
 20
9.0
  9
$ORTHOMODE
 70
     1
  9
$REGENMODE
 70
     1
  9
$FILLMODE
 70
     1
  9
$QTEXTMODE
 70
     0
  9
$MIRRTEXT
 70
     0
  9
$LTSCALE
 40
1.0
  9
$ATTMODE
 70
     1
  9
$TEXTSIZE
 40
1.0
  9
$TRACEWID
 40
100.0
  9
$TEXTSTYLE
  7
STANDARD
  9
$CLAYER
  8
0
  9
$CELTYPE
  6
ByBlock
  9
$CECOLOR
 62
   256
  9
$CELTSCALE
 40
1.0
  9
$DISPSILH
 70
     1
  9
$DIMSCALE
 40
1.0
  9
$DIMASZ
 40
0.18
  9
$DIMEXO
 40
0.0625
  9
$DIMDLI
 40
0.38
  9
$DIMRND
 40
0.0
  9
$DIMDLE
 40
0.0
  9
$DIMEXE
 40
0.18
  9
$DIMTP
 40
0.0
  9
$DIMTM
 40
0.0
  9
$DIMTXT
 40
0.18
  9
$DIMCEN
 40
0.09
  9
$DIMTSZ
 40
0.0
  9
$DIMTOL
 70
     0
  9
$DIMLIM
 70
     0
  9
$DIMTIH
 70
     1
  9
$DIMTOH
 70
     1
  9
$DIMSE1
 70
     0
  9
$DIMSE2
 70
     0
  9
$DIMTAD
 70
     0
  9
$DIMZIN
 70
     0
  9
$DIMBLK
  1

  9
$DIMASO
 70
     1
  9
$DIMSHO
 70
     1
  9
$DIMPOST
  1

  9
$DIMAPOST
  1

  9
$DIMALT
 70
     0
  9
$DIMALTD
 70
     2
  9
$DIMALTF
 40
25.4
  9
$DIMLFAC
 40
1.0
  9
$DIMTOFL
 70
     0
  9
$DIMTVP
 40
0.0
  9
$DIMTIX
 70
     0
  9
$DIMSOXD
 70
     0
  9
$DIMSAH
 70
     0
  9
$DIMBLK1
  1

  9
$DIMBLK2
  1

  9
$DIMSTYLE
  2
Standard
  9
$DIMCLRD
 70
     0
  9
$DIMCLRE
 70
     0
  9
$DIMCLRT
 70
     0
  9
$DIMTFAC
 40
1.0
  9
$DIMGAP
 40
0.09
  9
$DIMJUST
 70
     0
  9
$DIMSD1
 70
     0
  9
$DIMSD2
 70
     0
  9
$DIMTOLJ
 70
     1
  9
$DIMTZIN
 70
     0
  9
$DIMALTZ
 70
     0
  9
$DIMALTTZ
 70
     0
  9
$DIMUPT
 70
     0
  9
$DIMDEC
 70
     4
  9
$DIMTDEC
 70
     4
  9
$DIMALTU
 70
     2
  9
$DIMALTTD
 70
     2
  9
$DIMTXSTY
  7
STANDARD
  9
$DIMAUNIT
 70
     0
  9
$DIMADEC
 70
     0
  9
$DIMALTRND
 40
0.0
  9
$DIMAZIN
 70
     0
  9
$DIMDSEP
 70
    46
  9
$DIMATFIT
 70
     3
  9
$DIMFRAC
 70
     0
  9
$DIMLDRBLK
  1

  9
$DIMLUNIT
 70
     2
  9
$DIMLWD
 70
    -2
  9
$DIMLWE
 70
    -2
  9
$DIMTMOVE
 70
     2
  9
$DIMFXL
 40
1.0
  9
$DIMFXLON
 70
     0
  9
$DIMJOGANG
 40
0.7853981633974483
  9
$DIMTFILL
 70
     0
  9
$DIMTFILLCLR
 70
     0
  9
$DIMARCSYM
 70
     0
  9
$DIMLTYPE
  6

  9
$DIMLTEX1
  6

  9
$DIMLTEX2
  6

  9
$DIMTXTDIRECTION
 70
     0
  9
$LUNITS
 70
     2
  9
$LUPREC
 70
     4
  9
$SKETCHINC
 40
0.1
  9
$FILLETRAD
 40
0.0
  9
$AUNITS
 70
     0
  9
$AUPREC
 70
     0
  9
$MENU
  1
.
  9
$ELEVATION
 40
0.0
  9
$PELEVATION
 40
0.0
  9
$THICKNESS
 40
0.0
  9
$LIMCHECK
 70
     0
  9
$CHAMFERA
 40
0.0
  9
$CHAMFERB
 40
0.0
  9
$CHAMFERC
 40
0.0
  9
$CHAMFERD
 40
0.0
  9
$SKPOLY
 70
     0
  9
$TDCREATE
 40
2460388.353055555
  9
$TDUCREATE
 40
2460388.061392662
  9
$TDUPDATE
 40
2460447.778182870
  9
$TDUUPDATE
 40
2460447.486516204
  9
$TDINDWG
 40
0.1558680671
  9
$TDUSRTIMER
 40
0.1558680671
  9
$USRTIMER
 70
     1
  9
$ANGBASE
 50
0.0
  9
$ANGDIR
 70
     0
  9
$PDMODE
 70
     0
  9
$PDSIZE
 40
0.0
  9
$PLINEWID
 40
0.0
  9
$SPLFRAME
 70
     0
  9
$SPLINETYPE
 70
     6
  9
$SPLINESEGS
 70
     8
  9
$HANDSEED
  5
467
  9
$SURFTAB1
 70
     6
  9
$SURFTAB2
 70
     6
  9
$SURFTYPE
 70
     6
  9
$SURFU
 70
     6
  9
$SURFV
 70
     6
  9
$UCSBASE
  2

  9
$UCSNAME
  2

  9
$UCSORG
 10
0.0
 20
0.0
 30
0.0
  9
$UCSXDIR
 10
1.0
 20
0.0
 30
0.0
  9
$UCSYDIR
 10
0.0
 20
1.0
 30
0.0
  9
$UCSORTHOREF
  2

  9
$UCSORTHOVIEW
 70
     0
  9
$UCSORGTOP
 10
0.0
 20
0.0
 30
0.0
  9
$UCSORGBOTTOM
 10
0.0
 20
0.0
 30
0.0
  9
$UCSORGLEFT
 10
0.0
 20
0.0
 30
0.0
  9
$UCSORGRIGHT
 10
0.0
 20
0.0
 30
0.0
  9
$UCSORGFRONT
 10
0.0
 20
0.0
 30
0.0
  9
$UCSORGBACK
 10
0.0
 20
0.0
 30
0.0
  9
$PUCSBASE
  2

  9
$PUCSNAME
  2

  9
$PUCSORG
 10
0.0
 20
0.0
 30
0.0
  9
$PUCSXDIR
 10
1.0
 20
0.0
 30
0.0
  9
$PUCSYDIR
 10
0.0
 20
1.0
 30
0.0
  9
$PUCSORTHOREF
  2

  9
$PUCSORTHOVIEW
 70
     0
  9
$PUCSORGTOP
 10
0.0
 20
0.0
 30
0.0
  9
$PUCSORGBOTTOM
 10
0.0
 20
0.0
 30
0.0
  9
$PUCSORGLEFT
 10
0.0
 20
0.0
 30
0.0
  9
$PUCSORGRIGHT
 10
0.0
 20
0.0
 30
0.0
  9
$PUCSORGFRONT
 10
0.0
 20
0.0
 30
0.0
  9
$PUCSORGBACK
 10
0.0
 20
0.0
 30
0.0
  9
$USERI1
 70
     0
  9
$USERI2
 70
     0
  9
$USERI3
 70
     0
  9
$USERI4
 70
     0
  9
$USERI5
 70
     0
  9
$USERR1
 40
0.0
  9
$USERR2
 40
0.0
  9
$USERR3
 40
0.0
  9
$USERR4
 40
0.0
  9
$USERR5
 40
0.0
  9
$WORLDVIEW
 70
     1
  9
$SHADEDGE
 70
     3
  9
$SHADEDIF
 70
    70
  9
$TILEMODE
 70
     1
  9
$MAXACTVP
 70
    64
  9
$PINSBASE
 10
0.0
 20
0.0
 30
0.0
  9
$PLIMCHECK
 70
     0
  9
$PEXTMIN
 10
1.000000000000000E+20
 20
1.000000000000000E+20
 30
1.000000000000000E+20
  9
$PEXTMAX
 10
-1.000000000000000E+20
 20
-1.000000000000000E+20
 30
-1.000000000000000E+20
  9
$PLIMMIN
 10
0.0
 20
0.0
  9
$PLIMMAX
 10
12.0
 20
9.0
  9
$UNITMODE
 70
     0
  9
$VISRETAIN
 70
     1
  9
$PLINEGEN
 70
     0
  9
$PSLTSCALE
 70
     1
  9
$TREEDEPTH
 70
  3020
  9
$CMLSTYLE
  2
Standard
  9
$CMLJUST
 70
     0
  9
$CMLSCALE
 40
1.0
  9
$PROXYGRAPHICS
 70
     1
  9
$MEASUREMENT
 70
     0
  9
$CELWEIGHT
370
    -1
  9
$ENDCAPS
280
     0
  9
$JOINSTYLE
280
     0
  9
$LWDISPLAY
290
     0
  9
$INSUNITS
 70
     5
  9
$HYPERLINKBASE
  1

  9
$STYLESHEET
  1

  9
$XEDIT
290
     1
  9
$CEPSNTYPE
380
     0
  9
$PSTYLEMODE
290
     1
  9
$FINGERPRINTGUID
  2
{9A2FFA25-A549-BA43-8203-861D40E0BABC}
  9
$VERSIONGUID
  2
{C8544584-7D20-894C-8EA8-561C3C41A1FC}
  9
$EXTNAMES
290
     1
  9
$PSVPSCALE
 40
0.0
  9
$OLESTARTUP
290
     0
  9
$SORTENTS
280
   127
  9
$INDEXCTL
280
     0
  9
$HIDETEXT
280
     1
  9
$XCLIPFRAME
280
     2
  9
$HALOGAP
280
     0
  9
$OBSCOLOR
 70
   257
  9
$OBSLTYPE
280
     0
  9
$INTERSECTIONDISPLAY
280
     0
  9
$INTERSECTIONCOLOR
 70
   257
  9
$DIMASSOC
280
     2
  9
$PROJECTNAME
  1

  9
$CAMERADISPLAY
290
     0
  9
$LENSLENGTH
 40
50.0
  9
$CAMERAHEIGHT
 40
0.0
  9
$STEPSPERSEC
 40
2.0
  9
$STEPSIZE
 40
6.0
  9
$3DDWFPREC
 40
2.0
  9
$PSOLWIDTH
 40
0.25
  9
$PSOLHEIGHT
 40
4.0
  9
$LOFTANG1
 40
1.570796326794896
  9
$LOFTANG2
 40
1.570796326794896
  9
$LOFTMAG1
 40
0.0
  9
$LOFTMAG2
 40
0.0
  9
$LOFTPARAM
 70
     7
  9
$LOFTNORMALS
280
     1
  9
$LATITUDE
 40
37.795
  9
$LONGITUDE
 40
-122.394
  9
$NORTHDIRECTION
 40
0.0
  9
$TIMEZONE
 70
 -8000
  9
$LIGHTGLYPHDISPLAY
280
     1
  9
$TILEMODELIGHTSYNCH
280
     1
  9
$CMATERIAL
347
2A
  9
$SOLIDHIST
280
     0
  9
$SHOWHIST
280
     1
  9
$DWFFRAME
280
     2
  9
$DGNFRAME
280
     2
  9
$REALWORLDSCALE
290
     1
  9
$INTERFERECOLOR
 62
   256
  9
$INTERFEREOBJVS
345
39
  9
$INTERFEREVPVS
346
3A
  9
$CSHADOW
280
     0
  9
$SHADOWPLANELOCATION
 40
0.0
  0
ENDSEC
  0
SECTION
  2
CLASSES
  0
CLASS
  1
ACDBDICTIONARYWDFLT
  2
AcDbDictionaryWithDefault
  3
ObjectDBX Classes
 90
        0
 91
        1
280
     0
281
     0
  0
CLASS
  1
MATERIAL
  2
AcDbMaterial
  3
ObjectDBX Classes
 90
     1153
 91
        3
280
     0
281
     0
  0
CLASS
  1
SCALE
  2
AcDbScale
  3
ObjectDBX Classes
 90
     1153
 91
       17
280
     0
281
     0
  0
CLASS
  1
VISUALSTYLE
  2
AcDbVisualStyle
  3
ObjectDBX Classes
 90
     4095
 91
       24
280
     0
281
     0
  0
CLASS
  1
TABLESTYLE
  2
AcDbTableStyle
  3
ObjectDBX Classes
 90
     4095
 91
        1
280
     0
281
     0
  0
CLASS
  1
MLEADERSTYLE
  2
AcDbMLeaderStyle
  3
ACDB_MLEADERSTYLE_CLASS
 90
     4095
 91
        1
280
     0
281
     0
  0
CLASS
  1
DICTIONARYVAR
  2
AcDbDictionaryVar
  3
ObjectDBX Classes
 90
        0
 91
        6
280
     0
281
     0
  0
CLASS
  1
ACDBSECTIONVIEWSTYLE
  2
AcDbSectionViewStyle
  3
ObjectDBX Classes
 90
     1025
 91
        2
280
     0
281
     0
  0
CLASS
  1
ACDBDETAILVIEWSTYLE
  2
AcDbDetailViewStyle
  3
ObjectDBX Classes
 90
     1025
 91
        2
280
     0
281
     0
  0
CLASS
  1
EXACXREFPANELOBJECT
  2
ExAcXREFPanelObject
  3
EXAC_ESW
 90
     1025
 91
        0
280
     0
281
     0
  0
CLASS
  1
NPOCOLLECTION
  2
AcDbImpNonPersistentObjectsCollection
  3
ObjectDBX Classes
 90
     1153
 91
        0
280
     0
281
     0
  0
CLASS
  1
SORTENTSTABLE
  2
AcDbSortentsTable
  3
ObjectDBX Classes
 90
        0
 91
        1
280
     0
281
     0
  0
CLASS
  1
DIMASSOC
  2
AcDbDimAssoc
  3
"AcDbDimAssoc|Product Desc:     AcDim ARX App For Dimension|Company:          Autodesk, Inc.|WEB Address:      www.autodesk.com"
 90
        0
 91
       11
280
     0
281
     0
  0
CLASS
  1
CELLSTYLEMAP
  2
AcDbCellStyleMap
  3
ObjectDBX Classes
 90
     1152
 91
        5
280
     0
281
     0
  0
ENDSEC
  0
SECTION
  2
TABLES
  0
TABLE
  2
VPORT
  5
1E
330
0
100
AcDbSymbolTable
 70
     1
  0
VPORT
  5
1F
330
1E
100
AcDbSymbolTableRecord
100
AcDbViewportTableRecord
  2
*Active
 70
     0
 10
0.0
 20
0.0
 11
1.0
 21
1.0
 12
-690.6265604203376
 22
-150.8658957062871
 13
0.0
 23
0.0
 14
0.5
 24
0.5
 15
0.5
 25
0.5
 16
0.0
 26
0.0
 36
1.0
 17
0.0
 27
0.0
 37
0.0
 40
736.9027731913518
 41
2.278375149342891
 42
50.0
 43
0.0
 44
0.0
 50
0.0
 51
0.0
 71
     0
 72
   100
 73
     1
 74
     1
 75
     0
 76
     0
 77
     0
 78
     0
281
     0
 65
     1
110
0.0
120
0.0
130
0.0
111
1.0
121
0.0
131
0.0
112
0.0
122
1.0
132
0.0
 79
     0
146
0.0
348
20
 60
     3
 61
     5
292
     1
282
     1
141
0.0
142
0.0
 63
   250
421
  3355443
1001
ACAD_NAV_VCDISPLAY
1070
     3
  0
ENDTAB
  0
TABLE
  2
LTYPE
  5
19
330
0
100
AcDbSymbolTable
 70
     2
  0
LTYPE
  5
1A
330
19
100
AcDbSymbolTableRecord
100
AcDbLinetypeTableRecord
  2
ByBlock
 70
     0
  3

 72
    65
 73
     0
 40
0.0
  0
LTYPE
  5
1B
330
19
100
AcDbSymbolTableRecord
100
AcDbLinetypeTableRecord
  2
ByLayer
 70
     0
  3

 72
    65
 73
     0
 40
0.0
  0
LTYPE
  5
C
330
19
100
AcDbSymbolTableRecord
100
AcDbLinetypeTableRecord
  2
CONTINUOUS
 70
     0
  3
Solid line
 72
    65
 73
     0
 40
0.0
  0
ENDTAB
  0
TABLE
  2
LAYER
  5
14
102
{ACAD_XDICTIONARY
360
14C
102
}
330
0
100
AcDbSymbolTable
 70
    42
  0
LAYER
  5
6
330
14
100
AcDbSymbolTableRecord
100
AcDbLayerTableRecord
  2
0
 70
     0
 62
     7
  6
CONTINUOUS
370
    -3
390
7
347
A
348
0
  0
LAYER
  5
DC
330
14
100
AcDbSymbolTableRecord
100
AcDbLayerTableRecord
  2
Defpoints
 70
     0
 62
     7
  6
CONTINUOUS
290
     0
370
    -3
390
7
347
A
348
0
  0
LAYER
  5
118
330
14
100
AcDbSymbolTableRecord
100
AcDbLayerTableRecord
  2
ACMV- FRESH AIR DUCT
 70
     0
 62
   100
  6
CONTINUOUS
370
    -3
390
7
347
A
348
0
1001
AcCmTransparency
1071
        0
  0
LAYER
  5
119
330
14
100
AcDbSymbolTableRecord
100
AcDbLayerTableRecord
  2
ACMV- EQUIPMENT
 70
     0
 62
    41
  6
CONTINUOUS
370
    -3
390
7
347
A
348
0
1001
AcCmTransparency
1071
        0
  0
LAYER
  5
11A
330
14
100
AcDbSymbolTableRecord
100
AcDbLayerTableRecord
  2
ACMV- EXHAUST AIR DUCT
 70
     0
 62
    30
  6
CONTINUOUS
370
    -3
390
7
347
A
348
0
1001
AcCmTransparency
1071
        0
  0
LAYER
  5
11B
330
14
100
AcDbSymbolTableRecord
100
AcDbLayerTableRecord
  2
ACMV- EQUIPMENT TEXT
 70
     0
 62
   255
  6
CONTINUOUS
370
    -3
390
7
347
A
348
0
1001
AcCmTransparency
1071
        0
  0
LAYER
  5
11C
330
14
100
AcDbSymbolTableRecord
100
AcDbLayerTableRecord
  2
ACMV- SMOKE EXHAUST DUCT
 70
     0
 62
    10
  6
CONTINUOUS
370
    -3
390
7
347
A
348
0
1001
AcCmTransparency
1071
        0
  0
LAYER
  5
11D
330
14
100
AcDbSymbolTableRecord
100
AcDbLayerTableRecord
  2
ACMV- PRESSURISATION AIR DUCT
 70
     0
 62
    64
  6
CONTINUOUS
370
    -3
390
7
347
A
348
0
1001
AcCmTransparency
1071
        0
  0
LAYER
  5
11E
330
14
100
AcDbSymbolTableRecord
100
AcDbLayerTableRecord
  2
ACMV- RETURN AIR DUCT
 70
     0
 62
     6
  6
CONTINUOUS
370
    -3
390
7
347
A
348
0
1001
AcCmTransparency
1071
        0
  0
LAYER
  5
11F
330
14
100
AcDbSymbolTableRecord
100
AcDbLayerTableRecord
  2
ACMV- DRAIN PIPE
 70
     0
 62
   150
  6
CONTINUOUS
370
    -3
390
7
347
A
348
0
1001
AcCmTransparency
1071
        0
  0
LAYER
  5
120
330
14
100
AcDbSymbolTableRecord
100
AcDbLayerTableRecord
  2
ACMV-Dim_support piping
 70
     0
 62
    51
  6
CONTINUOUS
370
    13
390
7
347
A
348
0
1001
AcAecLayerStandard
1000

1000

  0
LAYER
  5
121
330
14
100
AcDbSymbolTableRecord
100
AcDbLayerTableRecord
  2
ACMV-Dim_support drainpipe
 70
     0
 62
    51
  6
CONTINUOUS
370
    13
390
7
347
A
348
0
1001
AcAecLayerStandard
1000

1000

  0
LAYER
  5
122
330
14
100
AcDbSymbolTableRecord
100
AcDbLayerTableRecord
  2
ACMV-Dim_Duct
 70
     0
 62
   111
  6
CONTINUOUS
370
    13
390
7
347
A
348
0
1001
AcAecLayerStandard
1000

1000

  0
LAYER
  5
123
330
14
100
AcDbSymbolTableRecord
100
AcDbLayerTableRecord
  2
ACMV-Dim_dinh vi piping
 70
     0
 62
   111
  6
CONTINUOUS
370
    13
390
7
347
A
348
0
1001
AcAecLayerStandard
1000

1000

  0
LAYER
  5
124
330
14
100
AcDbSymbolTableRecord
100
AcDbLayerTableRecord
  2
ACMV-Dim_dinh vi duct
 70
     0
 62
   111
  6
CONTINUOUS
370
    13
390
7
347
A
348
0
1001
AcAecLayerStandard
1000

1000

  0
LAYER
  5
125
330
14
100
AcDbSymbolTableRecord
100
AcDbLayerTableRecord
  2
ACMV-Dim_dinh vi Dpipe
 70
     0
 62
   111
  6
CONTINUOUS
370
    13
390
7
347
A
348
0
1001
AcAecLayerStandard
1000

1000

  0
LAYER
  5
126
330
14
100
AcDbSymbolTableRecord
100
AcDbLayerTableRecord
  2
ACMV-Dim_support duct
 70
     0
 62
    51
  6
CONTINUOUS
370
    13
390
7
347
A
348
0
1001
AcAecLayerStandard
1000

1000

  0
LAYER
  5
127
330
14
100
AcDbSymbolTableRecord
100
AcDbLayerTableRecord
  2
ACMV-DIM PIPE
 70
     0
 62
   111
  6
CONTINUOUS
370
    13
390
7
347
A
348
0
1001
AcAecLayerStandard
1000

1000

1001
AcCmTransparency
1071
        0
  0
LAYER
  5
128
330
14
100
AcDbSymbolTableRecord
100
AcDbLayerTableRecord
  2
ACMV- GAS PIPING
 70
     0
 62
   130
  6
CONTINUOUS
370
    -3
390
7
347
A
348
0
1001
AcAecLayerStandard
1000

1000

1001
AcCmTransparency
1071
        0
  0
LAYER
  5
129
330
14
100
AcDbSymbolTableRecord
100
AcDbLayerTableRecord
  2
ACMV- BASEMENT EXHAUST AIR DUCT
 70
     0
 62
   161
  6
CONTINUOUS
370
    -3
390
7
347
A
348
0
1001
AcAecLayerStandard
1000

1000

1001
AcCmTransparency
1071
        0
  0
LAYER
  5
12A
330
14
100
AcDbSymbolTableRecord
100
AcDbLayerTableRecord
  2
ACMV- CHWS
 70
     0
 62
    70
  6
CONTINUOUS
370
    -3
390
7
347
A
348
0
1001
AcAecLayerStandard
1000

1000

1001
AcCmTransparency
1071
        0
  0
LAYER
  5
12B
330
14
100
AcDbSymbolTableRecord
100
AcDbLayerTableRecord
  2
ACMV- CHWR
 70
     0
 62
   140
  6
CONTINUOUS
370
    -3
390
7
347
A
348
0
1001
AcAecLayerStandard
1000

1000

1001
AcCmTransparency
1071
        0
  0
LAYER
  5
12C
330
14
100
AcDbSymbolTableRecord
100
AcDbLayerTableRecord
  2
ACMV- CWS
 70
     0
 62
   211
  6
CONTINUOUS
370
    -3
390
7
347
A
348
0
1001
AcAecLayerStandard
1000

1000

1001
AcCmTransparency
1071
        0
  0
LAYER
  5
12D
330
14
100
AcDbSymbolTableRecord
100
AcDbLayerTableRecord
  2
ACMV- CWR
 70
     0
 62
    95
  6
CONTINUOUS
370
    -3
390
7
347
A
348
0
1001
AcAecLayerStandard
1000

1000

1001
AcCmTransparency
1071
        0
  0
LAYER
  5
12E
330
14
100
AcDbSymbolTableRecord
100
AcDbLayerTableRecord
  2
ACMV- CONTROL WIRING
 70
     0
 62
   240
  6
CONTINUOUS
370
    -3
390
7
347
A
348
0
1001
AcAecLayerStandard
1000

1000

1001
AcCmTransparency
1071
        0
  0
LAYER
  5
12F
330
14
100
AcDbSymbolTableRecord
100
AcDbLayerTableRecord
  2
ACMV- BASEMENT EXHAUST AIR DUCT TEXT
 70
     0
 62
   163
  6
CONTINUOUS
370
    -3
390
7
347
A
348
0
1001
AcAecLayerStandard
1000

1000

1001
AcCmTransparency
1071
        0
  0
LAYER
  5
130
330
14
100
AcDbSymbolTableRecord
100
AcDbLayerTableRecord
  2
ACMV- CHWR TEXT
 70
     0
 62
   141
  6
CONTINUOUS
370
    -3
390
7
347
A
348
0
1001
AcAecLayerStandard
1000

1000

1001
AcCmTransparency
1071
        0
  0
LAYER
  5
131
330
14
100
AcDbSymbolTableRecord
100
AcDbLayerTableRecord
  2
ACMV- CWS TEXT
 70
     0
 62
   221
  6
CONTINUOUS
370
    -3
390
7
347
A
348
0
1001
AcAecLayerStandard
1000

1000

1001
AcCmTransparency
1071
        0
  0
LAYER
  5
132
330
14
100
AcDbSymbolTableRecord
100
AcDbLayerTableRecord
  2
ACMV- DRAIN PIPE TEXT
 70
     0
 62
   151
  6
CONTINUOUS
370
    -3
390
7
347
A
348
0
1001
AcAecLayerStandard
1000

1000

1001
AcCmTransparency
1071
        0
  0
LAYER
  5
133
330
14
100
AcDbSymbolTableRecord
100
AcDbLayerTableRecord
  2
ACMV- EXHAUST AIR DUCT TEXT
 70
     0
 62
    31
  6
CONTINUOUS
370
    -3
390
7
347
A
348
0
1001
AcAecLayerStandard
1000

1000

1001
AcCmTransparency
1071
        0
  0
LAYER
  5
134
330
14
100
AcDbSymbolTableRecord
100
AcDbLayerTableRecord
  2
ACMV- FRESH AIR DUCT TEXT
 70
     0
 62
   101
  6
CONTINUOUS
370
    -3
390
7
347
A
348
0
1001
AcAecLayerStandard
1000

1000

1001
AcCmTransparency
1071
        0
  0
LAYER
  5
135
330
14
100
AcDbSymbolTableRecord
100
AcDbLayerTableRecord
  2
ACMV- GAS PIPING TEXT
 70
     0
 62
   131
  6
CONTINUOUS
370
    -3
390
7
347
A
348
0
1001
AcAecLayerStandard
1000

1000

1001
AcCmTransparency
1071
        0
  0
LAYER
  5
136
330
14
100
AcDbSymbolTableRecord
100
AcDbLayerTableRecord
  2
ACMV- PRESSURISATION AIR DUCT TEXT
 70
     0
 62
    62
  6
CONTINUOUS
370
    -3
390
7
347
A
348
0
1001
AcAecLayerStandard
1000

1000

1001
AcCmTransparency
1071
        0
  0
LAYER
  5
137
330
14
100
AcDbSymbolTableRecord
100
AcDbLayerTableRecord
  2
ACMV- RETURN AIR DUCT TEXT
 70
     0
 62
   201
  6
CONTINUOUS
370
    -3
390
7
347
A
348
0
1001
AcAecLayerStandard
1000

1000

1001
AcCmTransparency
1071
        0
  0
LAYER
  5
138
330
14
100
AcDbSymbolTableRecord
100
AcDbLayerTableRecord
  2
ACMV- SMOKE EXHAUST DUCT TEXT
 70
     0
 62
    11
  6
CONTINUOUS
370
    -3
390
7
347
A
348
0
1001
AcAecLayerStandard
1000

1000

1001
AcCmTransparency
1071
        0
  0
LAYER
  5
139
330
14
100
AcDbSymbolTableRecord
100
AcDbLayerTableRecord
  2
ACMV- CONTROL WIRING TEXT
 70
     0
 62
   255
  6
CONTINUOUS
370
    -3
390
7
347
A
348
0
1001
AcAecLayerStandard
1000

1000

1001
AcCmTransparency
1071
        0
  0
LAYER
  5
13A
330
14
100
AcDbSymbolTableRecord
100
AcDbLayerTableRecord
  2
ACMV- SUPPLY AIR DUCT
 70
     0
 62
    61
  6
CONTINUOUS
370
    -3
390
7
347
A
348
0
1001
AcAecLayerStandard
1000

1000

1001
AcCmTransparency
1071
        0
  0
LAYER
  5
13B
330
14
100
AcDbSymbolTableRecord
100
AcDbLayerTableRecord
  2
ARC XREF
 70
     0
 62
     8
  6
CONTINUOUS
370
    -3
390
7
347
A
348
0
1001
AcAecLayerStandard
1000

1000

1001
AcCmTransparency
1071
        0
  0
LAYER
  5
13C
330
14
100
AcDbSymbolTableRecord
100
AcDbLayerTableRecord
  2
ACMV- CHWS TEXT
 70
     0
 62
    71
  6
CONTINUOUS
370
    -3
390
7
347
A
348
0
1001
AcAecLayerStandard
1000

1000

1001
AcCmTransparency
1071
        0
  0
LAYER
  5
13D
330
14
100
AcDbSymbolTableRecord
100
AcDbLayerTableRecord
  2
ACMV- CWR TEXT
 70
     0
 62
    93
  6
CONTINUOUS
370
    -3
390
7
347
A
348
0
1001
AcAecLayerStandard
1000

1000

1001
AcCmTransparency
1071
        0
  0
LAYER
  5
13E
330
14
100
AcDbSymbolTableRecord
100
AcDbLayerTableRecord
  2
ACMV- SUPPLY AIR DUCT TEXT
 70
     0
 62
    60
  6
CONTINUOUS
370
    -3
390
7
347
A
348
0
1001
AcAecLayerStandard
1000

1000

1001
AcCmTransparency
1071
        0
  0
LAYER
  5
13F
330
14
100
AcDbSymbolTableRecord
100
AcDbLayerTableRecord
  2
ACMV- EQUALIZED PIPE
 70
     0
 62
   173
  6
CONTINUOUS
370
    -3
390
7
347
A
348
0
1001
AcAecLayerStandard
1000

1000

1001
AcCmTransparency
1071
        0
  0
ENDTAB
  0
TABLE
  2
STYLE
  5
15
330
0
100
AcDbSymbolTable
 70
     4
  0
STYLE
  5
16
330
15
100
AcDbSymbolTableRecord
100
AcDbTextStyleTableRecord
  2
STANDARD
 70
     0
 40
0.0
 41
1.0
 50
0.0
 71
     0
 42
1.0
  3
arial.ttf
  4

1001
ACAD
1000
Arial
1071
       34
  0
STYLE
  5
140
330
15
100
AcDbSymbolTableRecord
100
AcDbTextStyleTableRecord
  2
TITLE TEXT
 70
     0
 40
0.0
 41
1.199999999999999
 50
0.0
 71
     0
 42
200.0
  3
VNI-Helve-Condense.TTF
  4

1001
ACAD
1000
VNI-Helve-Condense
1071
        2
  0
STYLE
  5
141
330
15
100
AcDbSymbolTableRecord
100
AcDbTextStyleTableRecord
  2
DIM 1
 70
     0
 40
0.0
 41
0.6
 50
0.0
 71
     0
 42
2.5
  3
vntimeh.shx
  4

  0
STYLE
  5
142
330
15
100
AcDbSymbolTableRecord
100
AcDbTextStyleTableRecord
  2
DIM 2
 70
     0
 40
0.0
 41
0.6
 50
0.0
 71
     0
 42
2.5
  3
arial.ttf
  4

1001
ACAD
1000
Arial
1071
       34
  0
ENDTAB
  0
TABLE
  2
VIEW
  5
1C
330
0
100
AcDbSymbolTable
 70
     2
  0
ENDTAB
  0
TABLE
  2
UCS
  5
1D
330
0
100
AcDbSymbolTable
 70
     0
  0
ENDTAB
  0
TABLE
  2
APPID
  5
23
330
0
100
AcDbSymbolTable
 70
     9
  0
APPID
  5
17
330
23
100
AcDbSymbolTableRecord
100
AcDbRegAppTableRecord
  2
ACAD
 70
     0
  0
APPID
  5
22
330
23
100
AcDbSymbolTableRecord
100
AcDbRegAppTableRecord
  2
ACAD_NAV_VCDISPLAY
 70
     0
  0
APPID
  5
146
330
23
100
AcDbSymbolTableRecord
100
AcDbRegAppTableRecord
  2
ACAD_PSEXT
 70
     0
  0
APPID
  5
147
330
23
100
AcDbSymbolTableRecord
100
AcDbRegAppTableRecord
  2
ACAD_DSTYLE_DIMJAG
 70
     0
  0
APPID
  5
148
330
23
100
AcDbSymbolTableRecord
100
AcDbRegAppTableRecord
  2
ACAD_DSTYLE_DIMTALN
 70
     0
  0
APPID
  5
149
330
23
100
AcDbSymbolTableRecord
100
AcDbRegAppTableRecord
  2
ACAD_DSTYLE_DIMBREAK
 70
     0
  0
APPID
  5
14A
330
23
100
AcDbSymbolTableRecord
100
AcDbRegAppTableRecord
  2
AcAecLayerStandard
 70
     0
  0
APPID
  5
14B
330
23
100
AcDbSymbolTableRecord
100
AcDbRegAppTableRecord
  2
AcCmTransparency
 70
     0
  0
APPID
  5
305
330
23
100
AcDbSymbolTableRecord
100
AcDbRegAppTableRecord
  2
ACAD_EXEMPT_FROM_CAD_STANDARDS
 70
     0
  0
ENDTAB
  0
TABLE
  2
DIMSTYLE
  5
24
330
0
100
AcDbSymbolTable
 70
     5
100
AcDbDimStyleTable
 71
     1
340
25
  0
DIMSTYLE
105
25
330
24
100
AcDbSymbolTableRecord
100
AcDbDimStyleTableRecord
  2
Standard
 70
     0
340
16
  0
DIMSTYLE
105
143
102
{ACAD_REACTORS
330
1FD
330
2B8
102
}
330
24
100
AcDbSymbolTableRecord
100
AcDbDimStyleTableRecord
  2
1-100 LAYOUT LEADER
 70
     0
 41
70.0
 42
100.0
 43
100.0
 44
100.0
 73
     0
 74
     0
 77
     1
140
200.0
141
30.0
147
50.0
176
   256
177
   256
178
   256
271
     0
272
     0
340
141
341
FA
342
F6
1001
ACAD_DSTYLE_DIMBREAK
1070
   391
1040
3.75
1001
ACAD_DSTYLE_DIMJAG
1070
   388
1040
1.5
1001
ACAD_DSTYLE_DIMTALN
1070
   392
1070
     0
  0
DIMSTYLE
105
144
102
{ACAD_REACTORS
330
1FE
330
2B9
102
}
330
24
100
AcDbSymbolTableRecord
100
AcDbDimStyleTableRecord
  2
1-100 SC
 70
     0
 41
100.0
 42
100.0
 43
100.0
 44
100.0
 73
     0
 74
     0
 77
     1
140
200.0
141
30.0
147
50.0
176
   256
177
   256
178
   256
271
     0
272
     0
340
141
342
F6
1001
ACAD_DSTYLE_DIMBREAK
1070
   391
1040
3.75
1001
ACAD_DSTYLE_DIMJAG
1070
   388
1040
1.5
1001
ACAD_DSTYLE_DIMTALN
1070
   392
1070
     0
  0
DIMSTYLE
105
145
330
24
100
AcDbSymbolTableRecord
100
AcDbDimStyleTableRecord
  2
1-100 LAYOUT LEADER 2
 70
     0
 41
70.0
 42
100.0
 43
100.0
 44
100.0
 73
     0
 74
     0
 77
     1
140
200.0
141
30.0
147
50.0
176
   256
177
   256
178
   256
271
     0
272
     0
340
142
341
FA
342
F6
1001
ACAD_DSTYLE_DIMBREAK
1070
   391
1040
3.75
1001
ACAD_DSTYLE_DIMJAG
1070
   388
1040
1.5
1001
ACAD_DSTYLE_DIMTALN
1070
   392
1070
     0
  0
ENDTAB
  0
TABLE
  2
BLOCK_RECORD
  5
1
330
0
100
AcDbSymbolTable
 70
    17
  0
BLOCK_RECORD
  5
2
102
{ACAD_XDICTIONARY
360
3
102
}
330
1
100
AcDbSymbolTableRecord
100
AcDbBlockTableRecord
  2
*Model_Space
340
E
 70
     0
280
     1
281
     0
  0
BLOCK_RECORD
  5
10
330
1
100
AcDbSymbolTableRecord
100
AcDbBlockTableRecord
  2
*Paper_Space
340
13
 70
     0
280
     1
281
     0
  0
BLOCK_RECORD
  5
DD
330
1
100
AcDbSymbolTableRecord
100
AcDbBlockTableRecord
  2
*D0
340
0
 70
     0
280
     1
281
     0
  0
BLOCK_RECORD
  5
F6
330
1
100
AcDbSymbolTableRecord
100
AcDbBlockTableRecord
  2
_ArchTick
340
0
102
{BLKREFS
331
2DC
331
2DD
331
2E5
331
2E6
331
105
331
106
331
111
331
112
102
}
 70
     0
280
     1
281
     0
  0
BLOCK_RECORD
  5
FA
330
1
100
AcDbSymbolTableRecord
100
AcDbBlockTableRecord
  2
_Open30
340
0
 70
     0
280
     1
281
     0
  0
BLOCK_RECORD
  5
100
330
1
100
AcDbSymbolTableRecord
100
AcDbBlockTableRecord
  2
*D3
340
0
 70
     0
280
     1
281
     0
  0
BLOCK_RECORD
  5
10C
330
1
100
AcDbSymbolTableRecord
100
AcDbBlockTableRecord
  2
*D4
340
0
 70
     0
280
     1
281
     0
  0
BLOCK_RECORD
  5
2C1
330
1
100
AcDbSymbolTableRecord
100
AcDbBlockTableRecord
  2
*D6
340
0
 70
     0
280
     1
281
     0
  0
BLOCK_RECORD
  5
2CD
330
1
100
AcDbSymbolTableRecord
100
AcDbBlockTableRecord
  2
*D7
340
0
 70
     0
280
     1
281
     0
  0
BLOCK_RECORD
  5
2EC
330
1
100
AcDbSymbolTableRecord
100
AcDbBlockTableRecord
  2
*D8
340
0
 70
     0
280
     1
281
     0
  0
BLOCK_RECORD
  5
359
330
1
100
AcDbSymbolTableRecord
100
AcDbBlockTableRecord
  2
*D10
340
0
 70
     0
280
     1
281
     0
  0
BLOCK_RECORD
  5
37D
330
1
100
AcDbSymbolTableRecord
100
AcDbBlockTableRecord
  2
*D11
340
0
 70
     0
280
     1
281
     0
  0
BLOCK_RECORD
  5
397
330
1
100
AcDbSymbolTableRecord
100
AcDbBlockTableRecord
  2
*D12
340
0
 70
     0
280
     1
281
     0
  0
BLOCK_RECORD
  5
3CB
330
1
100
AcDbSymbolTableRecord
100
AcDbBlockTableRecord
  2
*D13
340
0
 70
     0
280
     1
281
     0
  0
BLOCK_RECORD
  5
3ED
330
1
100
AcDbSymbolTableRecord
100
AcDbBlockTableRecord
  2
*D14
340
0
 70
     0
280
     1
281
     0
  0
BLOCK_RECORD
  5
407
330
1
100
AcDbSymbolTableRecord
100
AcDbBlockTableRecord
  2
*D15
340
0
 70
     0
280
     1
281
     0
  0
BLOCK_RECORD
  5
437
330
1
100
AcDbSymbolTableRecord
100
AcDbBlockTableRecord
  2
*D16
340
0
 70
     0
280
     1
281
     0
  0
ENDTAB
  0
ENDSEC
  0
SECTION
  2
BLOCKS
  0
BLOCK
  5
5
330
2
100
AcDbEntity
  8
0
100
AcDbBlockBegin
  2
*Model_Space
 70
     0
 10
0.0
 20
0.0
 30
0.0
  3
*Model_Space
  1

  0
ENDBLK
  5
D
330
2
100
AcDbEntity
  8
0
100
AcDbBlockEnd
  0
BLOCK
  5
11
330
10
100
AcDbEntity
 67
     1
  8
0
100
AcDbBlockBegin
  2
*Paper_Space
 70
     0
 10
0.0
 20
0.0
 30
0.0
  3
*Paper_Space
  1

  0
ENDBLK
  5
12
330
10
100
AcDbEntity
 67
     1
  8
0
100
AcDbBlockEnd
  0
BLOCK
  5
DE
330
DD
100
AcDbEntity
  8
0
100
AcDbBlockBegin
  2
*D0
 70
     1
 10
0.0
 20
0.0
 30
0.0
  3
*D0
  1

  0
LINE
  5
EB
330
DD
100
AcDbEntity
  8
0
  6
ByBlock
 62
     0
440
 16777216
370
    -2
100
AcDbLine
 10
0.0625
 20
0.0
 30
0.0
 11
150.1657720136512
 21
0.0000000000000241
 31
0.0
  0
LINE
  5
EC
330
DD
100
AcDbEntity
  8
0
  6
ByBlock
 62
     0
440
 16777216
370
    -2
100
AcDbLine
 10
0.0625000000000579
 20
126.619037896906
 30
0.0
 11
150.1657720136511
 21
126.619037896906
 31
0.0
  0
LINE
  5
ED
330
DD
100
AcDbEntity
  8
0
  6
ByBlock
 62
     0
440
 16777216
370
    -2
100
AcDbLine
 10
149.9857720136512
 20
0.1800000000000241
 30
0.0
 11
149.9857720136512
 21
63.12761581066315
 31
0.0
  0
LINE
  5
EE
330
DD
100
AcDbEntity
  8
0
  6
ByBlock
 62
     0
440
 16777216
370
    -2
100
AcDbLine
 10
149.9857720136511
 20
126.439037896906
 30
0.0
 11
149.9857720136512
 21
63.49142208624295
 31
0.0
  0
SOLID
  5
EF
330
DD
100
AcDbEntity
  8
0
  6
ByBlock
 62
     0
440
 16777216
100
AcDbTrace
 10
149.9557720136512
 20
0.1800000000000241
 30
0.0
 11
150.0157720136512
 21
0.1800000000000241
 31
0.0
 12
149.9857720136512
 22
0.0000000000000241
 32
0.0
 13
149.9857720136512
 23
0.0000000000000241
 33
0.0
  0
SOLID
  5
F0
330
DD
100
AcDbEntity
  8
0
  6
ByBlock
 62
     0
440
 16777216
100
AcDbTrace
 10
149.9557720136512
 20
126.439037896906
 30
0.0
 11
150.0157720136511
 21
126.439037896906
 31
0.0
 12
149.9857720136511
 22
126.619037896906
 32
0.0
 13
149.9857720136511
 23
126.619037896906
 33
0.0
  0
MTEXT
  5
F1
330
DD
100
AcDbEntity
  8
0
  6
ByBlock
 62
     0
440
 16777216
100
AcDbMText
 10
149.9857720136511
 20
63.30951894845298
 30
0.0
 40
0.18
 41
0.0
 46
0.0
 71
     5
 72
     1
  1
\A1;126.6190
 73
     1
 44
1.0
  0
POINT
  5
F2
330
DD
100
AcDbEntity
  8
Defpoints
  6
ByBlock
 62
     0
440
 16777216
100
AcDbPoint
 10
0.0
 20
0.0
 30
0.0
  0
POINT
  5
F3
330
DD
100
AcDbEntity
  8
Defpoints
  6
ByBlock
 62
     0
440
 16777216
100
AcDbPoint
 10
0.0000000000000578
 20
126.619037896906
 30
0.0
  0
POINT
  5
F4
330
DD
100
AcDbEntity
  8
Defpoints
  6
ByBlock
 62
     0
440
 16777216
100
AcDbPoint
 10
149.9857720136511
 20
126.619037896906
 30
0.0
  0
ENDBLK
  5
DF
330
DD
100
AcDbEntity
  8
0
100
AcDbBlockEnd
  0
BLOCK
  5
F7
330
F6
100
AcDbEntity
  8
0
100
AcDbBlockBegin
  2
_ArchTick
 70
     0
 10
0.0
 20
0.0
 30
0.0
  3
_ArchTick
  1

  0
LWPOLYLINE
  5
F8
330
F6
100
AcDbEntity
  8
0
  6
ByBlock
 62
     0
100
AcDbPolyline
 90
        2
 70
     0
 43
0.15
 10
-0.5
 20
-0.5
 10
0.5
 20
0.5
  0
ENDBLK
  5
F9
330
F6
100
AcDbEntity
  8
0
100
AcDbBlockEnd
  0
BLOCK
  5
FB
330
FA
100
AcDbEntity
  8
0
100
AcDbBlockBegin
  2
_Open30
 70
     0
 10
0.0
 20
0.0
 30
0.0
  3
_Open30
  1

  0
LINE
  5
FC
330
FA
100
AcDbEntity
  8
0
  6
ByBlock
 62
     0
370
    -2
100
AcDbLine
 10
-1.0
 20
0.26794919
 30
0.0
 11
0.0
 21
0.0
 31
0.0
  0
LINE
  5
FD
330
FA
100
AcDbEntity
  8
0
  6
ByBlock
 62
     0
370
    -2
100
AcDbLine
 10
0.0
 20
0.0
 30
0.0
 11
-1.0
 21
-0.26794919
 31
0.0
  0
LINE
  5
FE
330
FA
100
AcDbEntity
  8
0
  6
ByBlock
 62
     0
370
    -2
100
AcDbLine
 10
0.0
 20
0.0
 30
0.0
 11
-1.0
 21
0.0
 31
0.0
  0
ENDBLK
  5
FF
330
FA
100
AcDbEntity
  8
0
100
AcDbBlockEnd
  0
BLOCK
  5
101
330
100
100
AcDbEntity
  8
0
100
AcDbBlockBegin
  2
*D3
 70
     1
 10
0.0
 20
0.0
 30
0.0
  3
*D3
  1

  0
LINE
  5
102
330
100
100
AcDbEntity
  8
ACMV-Dim_Duct
440
 16777216
370
    -2
100
AcDbLine
 10
14479.17482754392
 20
2995.890636870543
 30
0.0
 11
14479.17482754392
 21
3119.977862672437
 31
0.0
  0
LINE
  5
103
330
100
100
AcDbEntity
  8
ACMV-Dim_Duct
440
 16777216
370
    -2
100
AcDbLine
 10
17071.82615928325
 20
3050.977862672437
 30
0.0
 11
17071.82615928325
 21
3119.977862672437
 31
0.0
  0
LINE
  5
104
330
100
100
AcDbEntity
  8
ACMV-Dim_Duct
440
 16777216
370
    -2
100
AcDbLine
 10
14479.17482754392
 20
3019.977862672437
 30
0.0
 11
17071.82615928325
 21
3019.977862672437
 31
0.0
  0
INSERT
  5
105
330
100
100
AcDbEntity
  8
ACMV-Dim_Duct
440
 16777216
370
    -2
100
AcDbBlockReference
  2
_ArchTick
 10
14479.17482754392
 20
3019.977862672437
 30
0.0
 41
70.0
 42
70.0
 43
70.0
 50
180.0
  0
INSERT
  5
106
330
100
100
AcDbEntity
  8
ACMV-Dim_Duct
440
 16777216
370
    -2
100
AcDbBlockReference
  2
_ArchTick
 10
17071.82615928325
 20
3019.977862672437
 30
0.0
 41
70.0
 42
70.0
 43
70.0
  0
MTEXT
  5
107
330
100
100
AcDbEntity
  8
ACMV-Dim_Duct
440
 16777216
100
AcDbMText
 10
15775.50049341359
 20
3172.160673040786
 30
0.0
 40
200.0
 41
0.0
 46
0.0
 71
     5
 72
     1
  1
\A1;2593
  7
DIM 1
 73
     1
 44
1.0
  0
POINT
  5
108
330
100
100
AcDbEntity
  8
Defpoints
 62
     0
440
 16777216
100
AcDbPoint
 10
14479.17482754392
 20
2895.890636870543
 30
0.0
  0
POINT
  5
109
330
100
100
AcDbEntity
  8
Defpoints
 62
     0
440
 16777216
100
AcDbPoint
 10
17071.82615928325
 20
2950.977862672436
 30
0.0
  0
POINT
  5
10A
330
100
100
AcDbEntity
  8
Defpoints
 62
     0
440
 16777216
100
AcDbPoint
 10
17071.82615928325
 20
3019.977862672437
 30
0.0
  0
ENDBLK
  5
10B
330
100
100
AcDbEntity
  8
0
100
AcDbBlockEnd
  0
BLOCK
  5
10D
330
10C
100
AcDbEntity
  8
0
100
AcDbBlockBegin
  2
*D4
 70
     1
 10
0.0
 20
0.0
 30
0.0
  3
*D4
  1

  0
LINE
  5
10E
330
10C
100
AcDbEntity
  8
ACMV-Dim_Duct
440
 16777216
370
    -2
100
AcDbLine
 10
14479.17482754392
 20
2576.439375640905
 30
0.0
 11
14479.17482754392
 21
2700.526601442798
 31
0.0
  0
LINE
  5
10F
330
10C
100
AcDbEntity
  8
ACMV-Dim_Duct
440
 16777216
370
    -2
100
AcDbLine
 10
17071.82615928325
 20
2631.526601442798
 30
0.0
 11
17071.82615928325
 21
2700.526601442798
 31
0.0
  0
LINE
  5
110
330
10C
100
AcDbEntity
  8
ACMV-Dim_Duct
440
 16777216
370
    -2
100
AcDbLine
 10
14479.17482754392
 20
2600.526601442798
 30
0.0
 11
17071.82615928325
 21
2600.526601442798
 31
0.0
  0
INSERT
  5
111
330
10C
100
AcDbEntity
  8
ACMV-Dim_Duct
440
 16777216
370
    -2
100
AcDbBlockReference
  2
_ArchTick
 10
14479.17482754392
 20
2600.526601442798
 30
0.0
 41
100.0
 42
100.0
 43
100.0
 50
180.0
  0
INSERT
  5
112
330
10C
100
AcDbEntity
  8
ACMV-Dim_Duct
440
 16777216
370
    -2
100
AcDbBlockReference
  2
_ArchTick
 10
17071.82615928325
 20
2600.526601442798
 30
0.0
 41
100.0
 42
100.0
 43
100.0
  0
MTEXT
  5
113
330
10C
100
AcDbEntity
  8
ACMV-Dim_Duct
440
 16777216
100
AcDbMText
 10
15775.50049341359
 20
2752.709411811148
 30
0.0
 40
200.0
 41
0.0
 46
0.0
 71
     5
 72
     1
  1
\A1;2593
  7
DIM 1
 73
     1
 44
1.0
  0
POINT
  5
114
330
10C
100
AcDbEntity
  8
Defpoints
 62
     0
440
 16777216
100
AcDbPoint
 10
14479.17482754392
 20
2476.439375640905
 30
0.0
  0
POINT
  5
115
330
10C
100
AcDbEntity
  8
Defpoints
 62
     0
440
 16777216
100
AcDbPoint
 10
17071.82615928325
 20
2531.526601442798
 30
0.0
  0
POINT
  5
116
330
10C
100
AcDbEntity
  8
Defpoints
 62
     0
440
 16777216
100
AcDbPoint
 10
17071.82615928325
 20
2600.526601442798
 30
0.0
  0
ENDBLK
  5
117
330
10C
100
AcDbEntity
  8
0
100
AcDbBlockEnd
  0
BLOCK
  5
2C2
330
2C1
100
AcDbEntity
  8
0
100
AcDbBlockBegin
  2
*D6
 70
     1
 10
0.0
 20
0.0
 30
0.0
  3
*D6
  1

  0
LINE
  5
2D9
330
2C1
100
AcDbEntity
  8
ACMV-Dim_Duct
440
 16777216
370
    -2
100
AcDbLine
 10
17603.89801054288
 20
-3412.652387451414
 30
0.0
 11
17603.89801054288
 21
-3288.565161649521
 31
0.0
  0
LINE
  5
2DA
330
2C1
100
AcDbEntity
  8
ACMV-Dim_Duct
440
 16777216
370
    -2
100
AcDbLine
 10
20196.54934228221
 20
-3357.565161649521
 30
0.0
 11
20196.54934228221
 21
-3288.565161649521
 31
0.0
  0
LINE
  5
2DB
330
2C1
100
AcDbEntity
  8
ACMV-Dim_Duct
440
 16777216
370
    -2
100
AcDbLine
 10
17603.89801054288
 20
-3388.565161649521
 30
0.0
 11
20196.54934228221
 21
-3388.565161649521
 31
0.0
  0
INSERT
  5
2DC
330
2C1
100
AcDbEntity
  8
ACMV-Dim_Duct
440
 16777216
370
    -2
100
AcDbBlockReference
  2
_ArchTick
 10
17603.89801054288
 20
-3388.565161649521
 30
0.0
 41
70.0
 42
70.0
 43
70.0
 50
180.0
  0
INSERT
  5
2DD
330
2C1
100
AcDbEntity
  8
ACMV-Dim_Duct
440
 16777216
370
    -2
100
AcDbBlockReference
  2
_ArchTick
 10
20196.54934228221
 20
-3388.565161649521
 30
0.0
 41
70.0
 42
70.0
 43
70.0
  0
MTEXT
  5
2DE
330
2C1
100
AcDbEntity
  8
ACMV-Dim_Duct
440
 16777216
100
AcDbMText
 10
18900.22367641254
 20
-3238.565161649521
 30
0.0
 40
200.0
 41
0.0
 46
0.0
 71
     5
 72
     1
  1
\A1;2593
  7
DIM 1
 73
     1
 44
1.0
  0
POINT
  5
2DF
330
2C1
100
AcDbEntity
  8
Defpoints
 62
     0
440
 16777216
100
AcDbPoint
 10
17603.89801054288
 20
-3512.652387451414
 30
0.0
  0
POINT
  5
2E0
330
2C1
100
AcDbEntity
  8
Defpoints
 62
     0
440
 16777216
100
AcDbPoint
 10
20196.54934228221
 20
-3457.565161649521
 30
0.0
  0
POINT
  5
2E1
330
2C1
100
AcDbEntity
  8
Defpoints
 62
     0
440
 16777216
100
AcDbPoint
 10
20196.54934228221
 20
-3388.565161649521
 30
0.0
  0
ENDBLK
  5
2C3
330
2C1
100
AcDbEntity
  8
0
100
AcDbBlockEnd
  0
BLOCK
  5
2CE
330
2CD
100
AcDbEntity
  8
0
100
AcDbBlockBegin
  2
*D7
 70
     1
 10
0.0
 20
0.0
 30
0.0
  3
*D7
  1

  0
LINE
  5
2E2
330
2CD
100
AcDbEntity
  8
ACMV-Dim_Duct
440
 16777216
370
    -2
100
AcDbLine
 10
17603.89801054288
 20
-3832.103648681053
 30
0.0
 11
17603.89801054288
 21
-3708.01642287916
 31
0.0
  0
LINE
  5
2E3
330
2CD
100
AcDbEntity
  8
ACMV-Dim_Duct
440
 16777216
370
    -2
100
AcDbLine
 10
20196.54934228221
 20
-3777.016422879159
 30
0.0
 11
20196.54934228221
 21
-3708.01642287916
 31
0.0
  0
LINE
  5
2E4
330
2CD
100
AcDbEntity
  8
ACMV-Dim_Duct
440
 16777216
370
    -2
100
AcDbLine
 10
17603.89801054288
 20
-3808.016422879159
 30
0.0
 11
20196.54934228221
 21
-3808.016422879159
 31
0.0
  0
INSERT
  5
2E5
330
2CD
100
AcDbEntity
  8
ACMV-Dim_Duct
440
 16777216
370
    -2
100
AcDbBlockReference
  2
_ArchTick
 10
17603.89801054288
 20
-3808.016422879159
 30
0.0
 41
100.0
 42
100.0
 43
100.0
 50
180.0
  0
INSERT
  5
2E6
330
2CD
100
AcDbEntity
  8
ACMV-Dim_Duct
440
 16777216
370
    -2
100
AcDbBlockReference
  2
_ArchTick
 10
20196.54934228221
 20
-3808.016422879159
 30
0.0
 41
100.0
 42
100.0
 43
100.0
  0
MTEXT
  5
2E7
330
2CD
100
AcDbEntity
  8
ACMV-Dim_Duct
440
 16777216
100
AcDbMText
 10
18900.22367641254
 20
-3658.01642287916
 30
0.0
 40
200.0
 41
0.0
 46
0.0
 71
     5
 72
     1
  1
\A1;2593
  7
DIM 1
 73
     1
 44
1.0
  0
POINT
  5
2E8
330
2CD
100
AcDbEntity
  8
Defpoints
 62
     0
440
 16777216
100
AcDbPoint
 10
17603.89801054288
 20
-3932.103648681053
 30
0.0
  0
POINT
  5
2E9
330
2CD
100
AcDbEntity
  8
Defpoints
 62
     0
440
 16777216
100
AcDbPoint
 10
20196.54934228221
 20
-3877.01642287916
 30
0.0
  0
POINT
  5
2EA
330
2CD
100
AcDbEntity
  8
Defpoints
 62
     0
440
 16777216
100
AcDbPoint
 10
20196.54934228221
 20
-3808.016422879159
 30
0.0
  0
ENDBLK
  5
2CF
330
2CD
100
AcDbEntity
  8
0
100
AcDbBlockEnd
  0
BLOCK
  5
2ED
330
2EC
100
AcDbEntity
  8
0
100
AcDbBlockBegin
  2
*D8
 70
     1
 10
0.0
 20
0.0
 30
0.0
  3
*D8
  1

  0
LINE
  5
2FA
330
2EC
100
AcDbEntity
  8
0
  6
ByBlock
 62
     0
440
 16777216
370
    -2
100
AcDbLine
 10
0.0625
 20
0.0
 30
0.0
 11
176.5931598073128
 21
0.0000000000000284
 31
0.0
  0
LINE
  5
2FB
330
2EC
100
AcDbEntity
  8
0
  6
ByBlock
 62
     0
440
 16777216
370
    -2
100
AcDbLine
 10
0.0625000000000579
 20
126.619037896906
 30
0.0
 11
176.5931598073128
 21
126.619037896906
 31
0.0
  0
LINE
  5
2FC
330
2EC
100
AcDbEntity
  8
0
  6
ByBlock
 62
     0
440
 16777216
370
    -2
100
AcDbLine
 10
176.4131598073128
 20
0.1800000000000284
 30
0.0
 11
176.4131598073128
 21
63.12761581066315
 31
0.0
  0
LINE
  5
2FD
330
2EC
100
AcDbEntity
  8
0
  6
ByBlock
 62
     0
440
 16777216
370
    -2
100
AcDbLine
 10
176.4131598073128
 20
126.439037896906
 30
0.0
 11
176.4131598073128
 21
63.49142208624296
 31
0.0
  0
SOLID
  5
2FE
330
2EC
100
AcDbEntity
  8
0
  6
ByBlock
 62
     0
440
 16777216
100
AcDbTrace
 10
176.3831598073128
 20
0.1800000000000284
 30
0.0
 11
176.4431598073128
 21
0.1800000000000284
 31
0.0
 12
176.4131598073128
 22
0.0000000000000284
 32
0.0
 13
176.4131598073128
 23
0.0000000000000284
 33
0.0
  0
SOLID
  5
2FF
330
2EC
100
AcDbEntity
  8
0
  6
ByBlock
 62
     0
440
 16777216
100
AcDbTrace
 10
176.3831598073128
 20
126.439037896906
 30
0.0
 11
176.4431598073128
 21
126.439037896906
 31
0.0
 12
176.4131598073128
 22
126.619037896906
 32
0.0
 13
176.4131598073128
 23
126.619037896906
 33
0.0
  0
MTEXT
  5
300
330
2EC
100
AcDbEntity
  8
0
  6
ByBlock
 62
     0
440
 16777216
100
AcDbMText
 10
176.4131598073128
 20
63.30951894845298
 30
0.0
 40
0.18
 41
0.0
 46
0.0
 71
     5
 72
     1
  1
\A1;126.6190
 73
     1
 44
1.0
  0
POINT
  5
301
330
2EC
100
AcDbEntity
  8
Defpoints
  6
ByBlock
 62
     0
440
 16777216
100
AcDbPoint
 10
0.0
 20
0.0
 30
0.0
  0
POINT
  5
302
330
2EC
100
AcDbEntity
  8
Defpoints
  6
ByBlock
 62
     0
440
 16777216
100
AcDbPoint
 10
0.0000000000000578
 20
126.619037896906
 30
0.0
  0
POINT
  5
303
330
2EC
100
AcDbEntity
  8
Defpoints
  6
ByBlock
 62
     0
440
 16777216
100
AcDbPoint
 10
176.4131598073128
 20
126.619037896906
 30
0.0
  0
ENDBLK
  5
2EE
330
2EC
100
AcDbEntity
  8
0
100
AcDbBlockEnd
  0
BLOCK
  5
35A
330
359
100
AcDbEntity
  8
0
100
AcDbBlockBegin
  2
*D10
 70
     1
 10
0.0
 20
0.0
 30
0.0
  3
*D10
  1

  0
LINE
  5
372
330
359
100
AcDbEntity
  8
0
  6
ByBlock
 62
     0
440
 16777216
370
    -2
100
AcDbLine
 10
-27.56250000000001
 20
-40.5
 30
0.0
 11
-42.94888654238795
 21
-40.5
 31
0.0
  0
LINE
  5
373
330
359
100
AcDbEntity
  8
0
  6
ByBlock
 62
     0
440
 16777216
370
    -2
100
AcDbLine
 10
-27.56250000000001
 20
-48.50000000000003
 30
0.0
 11
-42.94888654238795
 21
-48.50000000000003
 31
0.0
  0
LINE
  5
374
330
359
100
AcDbEntity
  8
0
  6
ByBlock
 62
     0
440
 16777216
370
    -2
100
AcDbLine
 10
-42.76888654238796
 20
-40.68
 30
0.0
 11
-42.76888654238796
 21
-44.31809686221011
 31
0.0
  0
LINE
  5
375
330
359
100
AcDbEntity
  8
0
  6
ByBlock
 62
     0
440
 16777216
370
    -2
100
AcDbLine
 10
-42.76888654238795
 20
-48.32000000000003
 30
0.0
 11
-42.76888654238796
 21
-44.68190313778992
 31
0.0
  0
SOLID
  5
376
330
359
100
AcDbEntity
  8
0
  6
ByBlock
 62
     0
440
 16777216
100
AcDbTrace
 10
-42.79888654238796
 20
-40.68
 30
0.0
 11
-42.73888654238795
 21
-40.68
 31
0.0
 12
-42.76888654238796
 22
-40.5
 32
0.0
 13
-42.76888654238796
 23
-40.5
 33
0.0
  0
SOLID
  5
377
330
359
100
AcDbEntity
  8
0
  6
ByBlock
 62
     0
440
 16777216
100
AcDbTrace
 10
-42.79888654238795
 20
-48.32000000000003
 30
0.0
 11
-42.73888654238795
 21
-48.32000000000003
 31
0.0
 12
-42.76888654238795
 22
-48.50000000000003
 32
0.0
 13
-42.76888654238795
 23
-48.50000000000003
 33
0.0
  0
MTEXT
  5
378
330
359
100
AcDbEntity
  8
0
  6
ByBlock
 62
     0
440
 16777216
100
AcDbMText
 10
-42.76888654238796
 20
-44.5
 30
0.0
 40
0.18
 41
0.0
 46
0.0
 71
     5
 72
     1
  1
\A1;8.0000
 73
     1
 44
1.0
  0
POINT
  5
379
330
359
100
AcDbEntity
  8
Defpoints
  6
ByBlock
 62
     0
440
 16777216
100
AcDbPoint
 10
-27.50000000000002
 20
-40.5
 30
0.0
  0
POINT
  5
37A
330
359
100
AcDbEntity
  8
Defpoints
  6
ByBlock
 62
     0
440
 16777216
100
AcDbPoint
 10
-27.50000000000002
 20
-48.50000000000003
 30
0.0
  0
POINT
  5
37B
330
359
100
AcDbEntity
  8
Defpoints
  6
ByBlock
 62
     0
440
 16777216
100
AcDbPoint
 10
-42.76888654238795
 20
-48.50000000000003
 30
0.0
  0
ENDBLK
  5
35B
330
359
100
AcDbEntity
  8
0
100
AcDbBlockEnd
  0
BLOCK
  5
37E
330
37D
100
AcDbEntity
  8
0
100
AcDbBlockBegin
  2
*D11
 70
     1
 10
0.0
 20
0.0
 30
0.0
  3
*D11
  1

  0
LINE
  5
38B
330
37D
100
AcDbEntity
  8
0
  6
ByBlock
 62
     0
440
 16777216
370
    -2
100
AcDbLine
 10
-598.5036020585048
 20
-62.48658325988708
 30
0.0
 11
-598.5036020585048
 21
-66.32584594689859
 31
0.0
  0
LINE
  5
38C
330
37D
100
AcDbEntity
  8
0
  6
ByBlock
 62
     0
440
 16777216
370
    -2
100
AcDbLine
 10
-606.5036020585048
 20
-62.48658325988708
 30
0.0
 11
-606.5036020585048
 21
-66.32584594689859
 31
0.0
  0
LINE
  5
38D
330
37D
100
AcDbEntity
  8
0
  6
ByBlock
 62
     0
440
 16777216
370
    -2
100
AcDbLine
 10
-598.6836020585047
 20
-66.14584594689858
 30
0.0
 11
-602.0401573108922
 21
-66.14584594689858
 31
0.0
  0
LINE
  5
38E
330
37D
100
AcDbEntity
  8
0
  6
ByBlock
 62
     0
440
 16777216
370
    -2
100
AcDbLine
 10
-606.3236020585049
 20
-66.14584594689858
 30
0.0
 11
-602.9670468061174
 21
-66.14584594689858
 31
0.0
  0
SOLID
  5
38F
330
37D
100
AcDbEntity
  8
0
  6
ByBlock
 62
     0
440
 16777216
100
AcDbTrace
 10
-598.6836020585047
 20
-66.11584594689858
 30
0.0
 11
-598.6836020585047
 21
-66.17584594689859
 31
0.0
 12
-598.5036020585048
 22
-66.14584594689858
 32
0.0
 13
-598.5036020585048
 23
-66.14584594689858
 33
0.0
  0
SOLID
  5
390
330
37D
100
AcDbEntity
  8
0
  6
ByBlock
 62
     0
440
 16777216
100
AcDbTrace
 10
-606.3236020585049
 20
-66.11584594689858
 30
0.0
 11
-606.3236020585049
 21
-66.17584594689859
 31
0.0
 12
-606.5036020585048
 22
-66.14584594689858
 32
0.0
 13
-606.5036020585048
 23
-66.14584594689858
 33
0.0
  0
MTEXT
  5
391
330
37D
100
AcDbEntity
  8
0
  6
ByBlock
 62
     0
440
 16777216
100
AcDbMText
 10
-602.5036020585048
 20
-66.14584594689858
 30
0.0
 40
0.18
 41
0.0
 46
0.0
 71
     5
 72
     1
  1
\A1;8.0000
 73
     1
 44
1.0
  0
POINT
  5
392
330
37D
100
AcDbEntity
  8
Defpoints
  6
ByBlock
 62
     0
440
 16777216
100
AcDbPoint
 10
-598.5036020585048
 20
-62.42408325988709
 30
0.0
  0
POINT
  5
393
330
37D
100
AcDbEntity
  8
Defpoints
  6
ByBlock
 62
     0
440
 16777216
100
AcDbPoint
 10
-606.5036020585048
 20
-62.42408325988709
 30
0.0
  0
POINT
  5
394
330
37D
100
AcDbEntity
  8
Defpoints
  6
ByBlock
 62
     0
440
 16777216
100
AcDbPoint
 10
-606.5036020585048
 20
-66.14584594689858
 30
0.0
  0
ENDBLK
  5
37F
330
37D
100
AcDbEntity
  8
0
100
AcDbBlockEnd
  0
BLOCK
  5
398
330
397
100
AcDbEntity
  8
0
100
AcDbBlockBegin
  2
*D12
 70
     1
 10
0.0
 20
0.0
 30
0.0
  3
*D12
  1

  0
LINE
  5
3A5
330
397
100
AcDbEntity
  8
0
  6
ByBlock
 62
     0
440
 16777216
370
    -2
100
AcDbLine
 10
-42.73888654238795
 20
-40.6175
 30
0.0
 11
-42.73888654238795
 21
-36.56573385802615
 31
0.0
  0
LINE
  5
3A6
330
397
100
AcDbEntity
  8
0
  6
ByBlock
 62
     0
440
 16777216
370
    -2
100
AcDbLine
 10
-20.0
 20
-40.43749999999999
 30
0.0
 11
-20.0
 21
-36.56573385802615
 31
0.0
  0
LINE
  5
3A7
330
397
100
AcDbEntity
  8
0
  6
ByBlock
 62
     0
440
 16777216
370
    -2
100
AcDbLine
 10
-42.55888654238796
 20
-36.74573385802614
 30
0.0
 11
-31.90471612249002
 21
-36.74573385802614
 31
0.0
  0
LINE
  5
3A8
330
397
100
AcDbEntity
  8
0
  6
ByBlock
 62
     0
440
 16777216
370
    -2
100
AcDbLine
 10
-20.18
 20
-36.74573385802614
 30
0.0
 11
-30.83417041989794
 21
-36.74573385802614
 31
0.0
  0
SOLID
  5
3A9
330
397
100
AcDbEntity
  8
0
  6
ByBlock
 62
     0
440
 16777216
100
AcDbTrace
 10
-42.55888654238796
 20
-36.71573385802614
 30
0.0
 11
-42.55888654238796
 21
-36.77573385802614
 31
0.0
 12
-42.73888654238795
 22
-36.74573385802614
 32
0.0
 13
-42.73888654238795
 23
-36.74573385802614
 33
0.0
  0
SOLID
  5
3AA
330
397
100
AcDbEntity
  8
0
  6
ByBlock
 62
     0
440
 16777216
100
AcDbTrace
 10
-20.18
 20
-36.71573385802614
 30
0.0
 11
-20.18
 21
-36.77573385802614
 31
0.0
 12
-20.0
 22
-36.74573385802614
 32
0.0
 13
-20.0
 23
-36.74573385802614
 33
0.0
  0
MTEXT
  5
3AB
330
397
100
AcDbEntity
  8
0
  6
ByBlock
 62
     0
440
 16777216
100
AcDbMText
 10
-31.36944327119398
 20
-36.74573385802614
 30
0.0
 40
0.18
 41
0.0
 46
0.0
 71
     5
 72
     1
  1
\A1;22.7389
 73
     1
 44
1.0
  0
POINT
  5
3AC
330
397
100
AcDbEntity
  8
Defpoints
  6
ByBlock
 62
     0
440
 16777216
100
AcDbPoint
 10
-42.73888654238795
 20
-40.68
 30
0.0
  0
POINT
  5
3AD
330
397
100
AcDbEntity
  8
Defpoints
  6
ByBlock
 62
     0
440
 16777216
100
AcDbPoint
 10
-20.0
 20
-40.49999999999999
 30
0.0
  0
POINT
  5
3AE
330
397
100
AcDbEntity
  8
Defpoints
  6
ByBlock
 62
     0
440
 16777216
100
AcDbPoint
 10
-20.0
 20
-36.74573385802614
 30
0.0
  0
ENDBLK
  5
399
330
397
100
AcDbEntity
  8
0
100
AcDbBlockEnd
  0
BLOCK
  5
3CC
330
3CB
100
AcDbEntity
  8
0
100
AcDbBlockBegin
  2
*D13
 70
     1
 10
0.0
 20
0.0
 30
0.0
  3
*D13
  1

  0
LINE
  5
3D9
330
3CB
100
AcDbEntity
  8
0
  6
ByBlock
 62
     0
440
 16777216
370
    -2
100
AcDbLine
 10
-978.7757709339043
 20
-62.0990089837251
 30
0.0
 11
-978.8932709339048
 21
-62.0990089837251
 31
0.0
  0
LINE
  5
3DA
330
3CB
100
AcDbEntity
  8
0
  6
ByBlock
 62
     0
440
 16777216
370
    -2
100
AcDbLine
 10
-978.7757709339043
 20
164.2170071540495
 30
0.0
 11
-978.8932709339048
 21
164.2170071540495
 31
0.0
  0
LINE
  5
3DB
330
3CB
100
AcDbEntity
  8
0
  6
ByBlock
 62
     0
440
 16777216
370
    -2
100
AcDbLine
 10
-978.7132709339047
 20
-61.91900898372511
 30
0.0
 11
-978.7132709339047
 21
50.87703455583072
 31
0.0
  0
LINE
  5
3DC
330
3CB
100
AcDbEntity
  8
0
  6
ByBlock
 62
     0
440
 16777216
370
    -2
100
AcDbLine
 10
-978.7132709339047
 20
164.0370071540495
 30
0.0
 11
-978.7132709339047
 21
51.24096361449375
 31
0.0
  0
SOLID
  5
3DD
330
3CB
100
AcDbEntity
  8
0
  6
ByBlock
 62
     0
440
 16777216
100
AcDbTrace
 10
-978.7432709339048
 20
-61.91900898372511
 30
0.0
 11
-978.6832709339048
 21
-61.91900898372511
 31
0.0
 12
-978.7132709339047
 22
-62.0990089837251
 32
0.0
 13
-978.7132709339047
 23
-62.0990089837251
 33
0.0
  0
SOLID
  5
3DE
330
3CB
100
AcDbEntity
  8
0
  6
ByBlock
 62
     0
440
 16777216
100
AcDbTrace
 10
-978.7432709339048
 20
164.0370071540495
 30
0.0
 11
-978.6832709339048
 21
164.0370071540495
 31
0.0
 12
-978.7132709339047
 22
164.2170071540495
 32
0.0
 13
-978.7132709339047
 23
164.2170071540495
 33
0.0
  0
MTEXT
  5
3DF
330
3CB
100
AcDbEntity
  8
0
  6
ByBlock
 62
     0
440
 16777216
100
AcDbMText
 10
-978.7132709339045
 20
51.05899908516249
 30
0.0
 40
0.18
 41
0.0
 46
0.0
 71
     5
 72
     1
  1
\A1;226.3160
 73
     1
 44
1.0
  0
POINT
  5
3E0
330
3CB
100
AcDbEntity
  8
Defpoints
  6
ByBlock
 62
     0
440
 16777216
100
AcDbPoint
 10
-978.7132709339044
 20
-62.0990089837251
 30
0.0
  0
POINT
  5
3E1
330
3CB
100
AcDbEntity
  8
Defpoints
  6
ByBlock
 62
     0
440
 16777216
100
AcDbPoint
 10
-978.7132709339044
 20
164.2170071540495
 30
0.0
  0
POINT
  5
3E2
330
3CB
100
AcDbEntity
  8
Defpoints
  6
ByBlock
 62
     0
440
 16777216
100
AcDbPoint
 10
-978.7132709339047
 20
164.2170071540495
 30
0.0
  0
ENDBLK
  5
3CD
330
3CB
100
AcDbEntity
  8
0
100
AcDbBlockEnd
  0
BLOCK
  5
3EE
330
3ED
100
AcDbEntity
  8
0
100
AcDbBlockBegin
  2
*D14
 70
     1
 10
0.0
 20
0.0
 30
0.0
  3
*D14
  1

  0
LINE
  5
3FB
330
3ED
100
AcDbEntity
  8
0
  6
ByBlock
 62
     0
440
 16777216
370
    -2
100
AcDbLine
 10
-526.566102058505
 20
-70.42408325988711
 30
0.0
 11
-526.6836020585052
 21
-70.42408325988711
 31
0.0
  0
LINE
  5
3FC
330
3ED
100
AcDbEntity
  8
0
  6
ByBlock
 62
     0
440
 16777216
370
    -2
100
AcDbLine
 10
-526.566102058505
 20
54.57591674011294
 30
0.0
 11
-526.6836020585052
 21
54.57591674011294
 31
0.0
  0
LINE
  5
3FD
330
3ED
100
AcDbEntity
  8
0
  6
ByBlock
 62
     0
440
 16777216
370
    -2
100
AcDbLine
 10
-526.5036020585053
 20
-70.2440832598871
 30
0.0
 11
-526.5036020585053
 21
-8.105986397676989
 31
0.0
  0
LINE
  5
3FE
330
3ED
100
AcDbEntity
  8
0
  6
ByBlock
 62
     0
440
 16777216
370
    -2
100
AcDbLine
 10
-526.5036020585053
 20
54.39591674011294
 30
0.0
 11
-526.5036020585053
 21
-7.742180122097181
 31
0.0
  0
SOLID
  5
3FF
330
3ED
100
AcDbEntity
  8
0
  6
ByBlock
 62
     0
440
 16777216
100
AcDbTrace
 10
-526.5336020585052
 20
-70.2440832598871
 30
0.0
 11
-526.4736020585053
 21
-70.2440832598871
 31
0.0
 12
-526.5036020585053
 22
-70.42408325988711
 32
0.0
 13
-526.5036020585053
 23
-70.42408325988711
 33
0.0
  0
SOLID
  5
400
330
3ED
100
AcDbEntity
  8
0
  6
ByBlock
 62
     0
440
 16777216
100
AcDbTrace
 10
-526.5336020585052
 20
54.39591674011294
 30
0.0
 11
-526.4736020585053
 21
54.39591674011294
 31
0.0
 12
-526.5036020585053
 22
54.57591674011294
 32
0.0
 13
-526.5036020585053
 23
54.57591674011294
 33
0.0
  0
MTEXT
  5
401
330
3ED
100
AcDbEntity
  8
0
  6
ByBlock
 62
     0
440
 16777216
100
AcDbMText
 10
-526.5036020585052
 20
-7.924083259886934
 30
0.0
 40
0.18
 41
0.0
 46
0.0
 71
     5
 72
     1
  1
\A1;125.0000
 73
     1
 44
1.0
  0
POINT
  5
402
330
3ED
100
AcDbEntity
  8
Defpoints
  6
ByBlock
 62
     0
440
 16777216
100
AcDbPoint
 10
-526.503602058505
 20
-70.42408325988711
 30
0.0
  0
POINT
  5
403
330
3ED
100
AcDbEntity
  8
Defpoints
  6
ByBlock
 62
     0
440
 16777216
100
AcDbPoint
 10
-526.503602058505
 20
54.57591674011294
 30
0.0
  0
POINT
  5
404
330
3ED
100
AcDbEntity
  8
Defpoints
  6
ByBlock
 62
     0
440
 16777216
100
AcDbPoint
 10
-526.5036020585053
 20
54.57591674011294
 30
0.0
  0
ENDBLK
  5
3EF
330
3ED
100
AcDbEntity
  8
0
100
AcDbBlockEnd
  0
BLOCK
  5
408
330
407
100
AcDbEntity
  8
0
100
AcDbBlockBegin
  2
*D15
 70
     1
 10
0.0
 20
0.0
 30
0.0
  3
*D15
  1

  0
LINE
  5
415
330
407
100
AcDbEntity
  8
0
  6
ByBlock
 62
     0
440
 16777216
370
    -2
100
AcDbLine
 10
-526.5036020585048
 20
-70.36158325988708
 30
0.0
 11
-526.5036020585048
 21
-70.24408325988708
 31
0.0
  0
LINE
  5
416
330
407
100
AcDbEntity
  8
0
  6
ByBlock
 62
     0
440
 16777216
370
    -2
100
AcDbLine
 10
-606.5036020585048
 20
-70.36158325988708
 30
0.0
 11
-606.5036020585048
 21
-70.24408325988708
 31
0.0
  0
LINE
  5
417
330
407
100
AcDbEntity
  8
0
  6
ByBlock
 62
     0
440
 16777216
370
    -2
100
AcDbLine
 10
-526.6836020585047
 20
-70.42408325988708
 30
0.0
 11
-565.9702323449987
 21
-70.42408325988708
 31
0.0
  0
LINE
  5
418
330
407
100
AcDbEntity
  8
0
  6
ByBlock
 62
     0
440
 16777216
370
    -2
100
AcDbLine
 10
-606.3236020585049
 20
-70.42408325988708
 30
0.0
 11
-567.0369717720109
 21
-70.42408325988708
 31
0.0
  0
SOLID
  5
419
330
407
100
AcDbEntity
  8
0
  6
ByBlock
 62
     0
440
 16777216
100
AcDbTrace
 10
-526.6836020585047
 20
-70.39408325988708
 30
0.0
 11
-526.6836020585047
 21
-70.45408325988709
 31
0.0
 12
-526.5036020585048
 22
-70.42408325988708
 32
0.0
 13
-526.5036020585048
 23
-70.42408325988708
 33
0.0
  0
SOLID
  5
41A
330
407
100
AcDbEntity
  8
0
  6
ByBlock
 62
     0
440
 16777216
100
AcDbTrace
 10
-606.3236020585049
 20
-70.39408325988708
 30
0.0
 11
-606.3236020585049
 21
-70.45408325988709
 31
0.0
 12
-606.5036020585048
 22
-70.42408325988708
 32
0.0
 13
-606.5036020585048
 23
-70.42408325988708
 33
0.0
  0
MTEXT
  5
41B
330
407
100
AcDbEntity
  8
0
  6
ByBlock
 62
     0
440
 16777216
100
AcDbMText
 10
-566.5036020585048
 20
-70.42408325988708
 30
0.0
 40
0.18
 41
0.0
 46
0.0
 71
     5
 72
     1
  1
\A1;80.0000
 73
     1
 44
1.0
  0
POINT
  5
41C
330
407
100
AcDbEntity
  8
Defpoints
  6
ByBlock
 62
     0
440
 16777216
100
AcDbPoint
 10
-526.5036020585048
 20
-70.42408325988708
 30
0.0
  0
POINT
  5
41D
330
407
100
AcDbEntity
  8
Defpoints
  6
ByBlock
 62
     0
440
 16777216
100
AcDbPoint
 10
-606.5036020585048
 20
-70.42408325988708
 30
0.0
  0
POINT
  5
41E
330
407
100
AcDbEntity
  8
Defpoints
  6
ByBlock
 62
     0
440
 16777216
100
AcDbPoint
 10
-606.5036020585048
 20
-70.42408325988708
 30
0.0
  0
ENDBLK
  5
409
330
407
100
AcDbEntity
  8
0
100
AcDbBlockEnd
  0
BLOCK
  5
438
330
437
100
AcDbEntity
  8
0
100
AcDbBlockBegin
  2
*D16
 70
     1
 10
0.0
 20
0.0
 30
0.0
  3
*D16
  1

  0
LINE
  5
445
330
437
100
AcDbEntity
  8
0
  6
ByBlock
 62
     0
440
 16777216
370
    -2
100
AcDbLine
 10
-978.7132709339038
 20
-62.03650898372508
 30
0.0
 11
-978.7132709339038
 21
-61.91900898372505
 31
0.0
  0
LINE
  5
446
330
437
100
AcDbEntity
  8
0
  6
ByBlock
 62
     0
440
 16777216
370
    -2
100
AcDbLine
 10
-1103.713270933904
 20
-62.03650898372505
 30
0.0
 11
-1103.713270933904
 21
-61.91900898372505
 31
0.0
  0
LINE
  5
447
330
437
100
AcDbEntity
  8
0
  6
ByBlock
 62
     0
440
 16777216
370
    -2
100
AcDbLine
 10
-978.8932709339038
 20
-62.09900898372506
 30
0.0
 11
-1040.618571070329
 21
-62.09900898372506
 31
0.0
  0
LINE
  5
448
330
437
100
AcDbEntity
  8
0
  6
ByBlock
 62
     0
440
 16777216
370
    -2
100
AcDbLine
 10
-1103.533270933904
 20
-62.09900898372506
 30
0.0
 11
-1041.807970797478
 21
-62.09900898372506
 31
0.0
  0
SOLID
  5
449
330
437
100
AcDbEntity
  8
0
  6
ByBlock
 62
     0
440
 16777216
100
AcDbTrace
 10
-978.8932709339038
 20
-62.06900898372506
 30
0.0
 11
-978.8932709339038
 21
-62.12900898372506
 31
0.0
 12
-978.7132709339038
 22
-62.09900898372506
 32
0.0
 13
-978.7132709339038
 23
-62.09900898372506
 33
0.0
  0
SOLID
  5
44A
330
437
100
AcDbEntity
  8
0
  6
ByBlock
 62
     0
440
 16777216
100
AcDbTrace
 10
-1103.533270933904
 20
-62.06900898372506
 30
0.0
 11
-1103.533270933904
 21
-62.12900898372506
 31
0.0
 12
-1103.713270933904
 22
-62.09900898372506
 32
0.0
 13
-1103.713270933904
 23
-62.09900898372506
 33
0.0
  0
MTEXT
  5
44B
330
437
100
AcDbEntity
  8
0
  6
ByBlock
 62
     0
440
 16777216
100
AcDbMText
 10
-1041.213270933904
 20
-62.09900898372506
 30
0.0
 40
0.18
 41
0.0
 46
0.0
 71
     5
 72
     1
  1
\A1;125.0000
 73
     1
 44
1.0
  0
POINT
  5
44C
330
437
100
AcDbEntity
  8
Defpoints
  6
ByBlock
 62
     0
440
 16777216
100
AcDbPoint
 10
-978.7132709339038
 20
-62.09900898372508
 30
0.0
  0
POINT
  5
44D
330
437
100
AcDbEntity
  8
Defpoints
  6
ByBlock
 62
     0
440
 16777216
100
AcDbPoint
 10
-1103.713270933904
 20
-62.09900898372506
 30
0.0
  0
POINT
  5
44E
330
437
100
AcDbEntity
  8
Defpoints
  6
ByBlock
 62
     0
440
 16777216
100
AcDbPoint
 10
-1103.713270933904
 20
-62.09900898372506
 30
0.0
  0
ENDBLK
  5
439
330
437
100
AcDbEntity
  8
0
100
AcDbBlockEnd
  0
ENDSEC
  0
SECTION
  2
ENTITIES
  0
LINE
  5
20C
330
2
100
AcDbEntity
  8
ACMV- BASEMENT EXHAUST AIR DUCT
100
AcDbLine
 10
8545.093073389756
 20
-457.5205063271905
 30
0.0
 11
9570.793069282345
 21
-457.5205063271905
 31
0.0
  0
LINE
  5
20D
330
2
100
AcDbEntity
  8
ACMV- CHWR
100
AcDbLine
 10
8545.093073389756
 20
-657.5205063271905
 30
0.0
 11
9570.793069282345
 21
-657.5205063271905
 31
0.0
  0
LINE
  5
20E
330
2
100
AcDbEntity
  8
ACMV- CHWS
100
AcDbLine
 10
8545.093073389756
 20
-857.5205063271905
 30
0.0
 11
9570.793069282345
 21
-857.5205063271905
 31
0.0
  0
LINE
  5
20F
330
2
100
AcDbEntity
  8
ACMV- CONTROL WIRING
100
AcDbLine
 10
8545.093073389756
 20
-1057.52050632719
 30
0.0
 11
9570.793069282345
 21
-1057.52050632719
 31
0.0
  0
LINE
  5
210
330
2
100
AcDbEntity
  8
ACMV- CWR
100
AcDbLine
 10
8545.093073389756
 20
-1257.52050632719
 30
0.0
 11
9570.793069282345
 21
-1257.52050632719
 31
0.0
  0
LINE
  5
211
330
2
100
AcDbEntity
  8
ACMV- CWS
100
AcDbLine
 10
8545.093073389756
 20
-1457.52050632719
 30
0.0
 11
9570.793069282345
 21
-1457.52050632719
 31
0.0
  0
LINE
  5
212
330
2
100
AcDbEntity
  8
ACMV- DRAIN PIPE
100
AcDbLine
 10
8545.093073389756
 20
-1657.52050632719
 30
0.0
 11
9570.793069282345
 21
-1657.52050632719
 31
0.0
  0
LINE
  5
213
330
2
100
AcDbEntity
  8
ACMV- EQUIPMENT
100
AcDbLine
 10
8545.093073389756
 20
-2058.587172993857
 30
0.0
 11
9570.793069282345
 21
-2058.587172993857
 31
0.0
  0
LINE
  5
214
330
2
100
AcDbEntity
  8
ACMV- EXHAUST AIR DUCT
100
AcDbLine
 10
8545.093073389756
 20
-2258.587172993857
 30
0.0
 11
9570.793069282345
 21
-2258.587172993857
 31
0.0
  0
LINE
  5
215
330
2
100
AcDbEntity
  8
ACMV- FRESH AIR DUCT
100
AcDbLine
 10
8545.093073389756
 20
-2458.587172993857
 30
0.0
 11
9570.793069282345
 21
-2458.587172993857
 31
0.0
  0
LINE
  5
216
330
2
100
AcDbEntity
  8
ACMV- GAS PIPING
100
AcDbLine
 10
8545.093073389756
 20
-2658.587172993857
 30
0.0
 11
9570.793069282345
 21
-2658.587172993857
 31
0.0
  0
LINE
  5
217
330
2
100
AcDbEntity
  8
ACMV- PRESSURISATION AIR DUCT
100
AcDbLine
 10
8545.093073389756
 20
-2858.587172993857
 30
0.0
 11
9570.793069282345
 21
-2858.587172993857
 31
0.0
  0
LINE
  5
218
330
2
100
AcDbEntity
  8
ACMV- RETURN AIR DUCT
100
AcDbLine
 10
8545.093073389756
 20
-3058.587172993857
 30
0.0
 11
9570.793069282345
 21
-3058.587172993857
 31
0.0
  0
LINE
  5
219
330
2
100
AcDbEntity
  8
ACMV- SMOKE EXHAUST DUCT
100
AcDbLine
 10
8545.093073389756
 20
-3258.587172993858
 30
0.0
 11
9570.793069282345
 21
-3258.587172993858
 31
0.0
  0
LINE
  5
21A
330
2
100
AcDbEntity
  8
ACMV- BASEMENT EXHAUST AIR DUCT TEXT
100
AcDbLine
 10
13649.88024778597
 20
-457.5205063271905
 30
0.0
 11
14675.58024367856
 21
-457.5205063271905
 31
0.0
  0
LINE
  5
21B
330
2
100
AcDbEntity
  8
ACMV-Dim_dinh vi Dpipe
100
AcDbLine
 10
19190.63753519449
 20
-699.1042397527826
 30
0.0
 11
20196.54934228221
 21
-699.1042397527826
 31
0.0
  0
LINE
  5
21C
330
2
100
AcDbEntity
  8
ACMV-Dim_dinh vi duct
100
AcDbLine
 10
19190.63753519449
 20
-951.1042397527827
 30
0.0
 11
20196.54934228221
 21
-951.1042397527827
 31
0.0
  0
LINE
  5
21D
330
2
100
AcDbEntity
  8
ACMV-Dim_dinh vi piping
100
AcDbLine
 10
19190.63753519449
 20
-1203.104239752782
 30
0.0
 11
20196.54934228221
 21
-1203.104239752782
 31
0.0
  0
LINE
  5
21E
330
2
100
AcDbEntity
  8
ACMV-Dim_Duct
100
AcDbLine
 10
19190.63753519449
 20
-1455.104239752782
 30
0.0
 11
20196.54934228221
 21
-1455.104239752782
 31
0.0
  0
LINE
  5
21F
330
2
100
AcDbEntity
  8
ACMV-Dim_support drainpipe
100
AcDbLine
 10
19190.63753519449
 20
-1962.545299338443
 30
0.0
 11
20196.54934228221
 21
-1962.545299338443
 31
0.0
  0
LINE
  5
220
330
2
100
AcDbEntity
  8
ACMV-Dim_support duct
100
AcDbLine
 10
19190.63753519449
 20
-2214.545299338444
 30
0.0
 11
20196.54934228221
 21
-2214.545299338444
 31
0.0
  0
LINE
  5
221
330
2
100
AcDbEntity
  8
ACMV-Dim_support piping
100
AcDbLine
 10
19190.63753519449
 20
-2466.545299338444
 30
0.0
 11
20196.54934228221
 21
-2466.545299338444
 31
0.0
  0
LWPOLYLINE
  5
222
330
2
100
AcDbEntity
  8
0
100
AcDbPolyline
 90
        4
 70
     1
 43
0.0
 10
6602.833755094822
 20
943.7077853193796
 10
21450.30412056976
 20
943.7077853193796
 10
21450.30412056976
 20
-3979.307125869946
 10
6602.833755094822
 20
-3979.307125869946
  0
LINE
  5
223
330
2
100
AcDbEntity
  8
ACMV-DIM PIPE
100
AcDbLine
 10
19190.63753519449
 20
-1710.545299338443
 30
0.0
 11
20196.54934228221
 21
-1710.545299338443
 31
0.0
  0
LINE
  5
224
330
2
100
AcDbEntity
  8
0
100
AcDbLine
 10
11290.23918491163
 20
943.7077853193796
 30
0.0
 11
11290.23918491163
 21
-3979.307125869946
 31
0.0
  0
MTEXT
  5
225
330
2
100
AcDbEntity
  8
0
100
AcDbMText
 10
8012.450808114635
 20
640.857302555446
 30
0.0
 40
200.0
 41
5210.1578232717
 46
0.0
 71
     1
 72
     5
  1
ELEMENT LAYER
  7
TITLE TEXT
 73
     1
 44
1.0
101
Embedded Object
 70
     1
 10
1.0
 20
0.0
 30
0.0
 11
8012.450808114635
 21
640.857302555446
 31
0.0
 40
5210.1578232717
 41
0.0
 42
2302.72
 43
200.2666666666667
 71
     2
 72
     1
 44
5210.1578232717
 45
1000.0
 73
     0
 74
     0
 46
0.0
  0
MTEXT
  5
226
330
2
100
AcDbEntity
  8
0
100
AcDbMText
 10
18237.51972181655
 20
640.857302555446
 30
0.0
 40
200.0
 41
5210.1578232717
 46
0.0
 71
     1
 72
     5
  1
DIM LAYER
  7
TITLE TEXT
 73
     1
 44
1.0
101
Embedded Object
 70
     1
 10
1.0
 20
0.0
 30
0.0
 11
18237.51972181655
 21
640.857302555446
 31
0.0
 40
5210.1578232717
 41
0.0
 42
1513.6
 43
200.2666666666667
 71
     2
 72
     1
 44
5210.1578232717
 45
1000.0
 73
     0
 74
     0
 46
0.0
  0
LINE
  5
227
330
2
100
AcDbEntity
  8
0
100
AcDbLine
 10
6602.833755094822
 20
-30.40338698696451
 30
0.0
 11
21450.30412056976
 21
-30.40338698696451
 31
0.0
  0
MTEXT
  5
228
330
2
100
AcDbEntity
  8
0
100
AcDbMText
 10
7066.905982274477
 20
-433.4165167072687
 30
0.0
 40
50.0
 41
1437.402990375558
 46
0.0
 71
     1
 72
     5
  1
ACMV- BASEMENT EXHAUST AIR DUCT
  7
TITLE TEXT
 73
     1
 44
1.0
101
Embedded Object
 70
     1
 10
1.0
 20
0.0
 30
0.0
 11
7066.905982274477
 21
-433.4165167072687
 31
0.0
 40
1437.402990375558
 41
0.0
 42
1321.44
 43
52.26666666666666
 71
     2
 72
     1
 44
1437.402990375558
 45
250.0
 73
     0
 74
     0
 46
0.0
  0
MTEXT
  5
229
330
2
100
AcDbEntity
  8
0
100
AcDbMText
 10
7066.905982274477
 20
-633.4165167072687
 30
0.0
 40
50.0
 41
1437.402990375558
 46
0.0
 71
     1
 72
     5
  1
ACMV- CHWP- RETURN
  7
TITLE TEXT
 73
     1
 44
1.0
101
Embedded Object
 70
     1
 10
1.0
 20
0.0
 30
0.0
 11
7066.905982274477
 21
-633.4165167072687
 31
0.0
 40
1437.402990375558
 41
0.0
 42
785.28
 43
52.26666666666666
 71
     2
 72
     1
 44
1437.402990375558
 45
250.0
 73
     0
 74
     0
 46
0.0
  0
MTEXT
  5
22A
330
2
100
AcDbEntity
  8
0
100
AcDbMText
 10
7066.905982274477
 20
-833.4165167072688
 30
0.0
 40
50.0
 41
1437.402990375558
 46
0.0
 71
     1
 72
     5
  1
ACMV- CHWP- SUPPLY
  7
TITLE TEXT
 73
     1
 44
1.0
101
Embedded Object
 70
     1
 10
1.0
 20
0.0
 30
0.0
 11
7066.905982274477
 21
-833.4165167072688
 31
0.0
 40
1437.402990375558
 41
0.0
 42
775.6799999999999
 43
52.26666666666666
 71
     2
 72
     1
 44
1437.402990375558
 45
250.0
 73
     0
 74
     0
 46
0.0
  0
MTEXT
  5
22B
330
2
100
AcDbEntity
  8
0
100
AcDbMText
 10
7066.905982274477
 20
-1033.416516707269
 30
0.0
 40
50.0
 41
1437.402990375558
 46
0.0
 71
     1
 72
     5
  1
ACMV- CONTROL WIRING
  7
TITLE TEXT
 73
     1
 44
1.0
101
Embedded Object
 70
     1
 10
1.0
 20
0.0
 30
0.0
 11
7066.905982274477
 21
-1033.416516707269
 31
0.0
 40
1437.402990375558
 41
0.0
 42
848.9599999999999
 43
52.26666666666666
 71
     2
 72
     1
 44
1437.402990375558
 45
250.0
 73
     0
 74
     0
 46
0.0
  0
MTEXT
  5
22C
330
2
100
AcDbEntity
  8
0
100
AcDbMText
 10
7066.905982274477
 20
-1233.416516707269
 30
0.0
 40
50.0
 41
1437.402990375558
 46
0.0
 71
     1
 72
     5
  1
ACMV- CWP- RETURN
  7
TITLE TEXT
 73
     1
 44
1.0
101
Embedded Object
 70
     1
 10
1.0
 20
0.0
 30
0.0
 11
7066.905982274477
 21
-1233.416516707269
 31
0.0
 40
1437.402990375558
 41
0.0
 42
735.36
 43
52.26666666666666
 71
     2
 72
     1
 44
1437.402990375558
 45
250.0
 73
     0
 74
     0
 46
0.0
  0
MTEXT
  5
22D
330
2
100
AcDbEntity
  8
0
100
AcDbMText
 10
7066.905982274477
 20
-1433.416516707269
 30
0.0
 40
50.0
 41
1437.402990375558
 46
0.0
 71
     1
 72
     5
  1
ACMV- CWP- SUPPLY
  7
TITLE TEXT
 73
     1
 44
1.0
101
Embedded Object
 70
     1
 10
1.0
 20
0.0
 30
0.0
 11
7066.905982274477
 21
-1433.416516707269
 31
0.0
 40
1437.402990375558
 41
0.0
 42
725.76
 43
52.26666666666666
 71
     2
 72
     1
 44
1437.402990375558
 45
250.0
 73
     0
 74
     0
 46
0.0
  0
MTEXT
  5
22E
330
2
100
AcDbEntity
  8
0
100
AcDbMText
 10
7066.905982274477
 20
-1633.416516707268
 30
0.0
 40
50.0
 41
1437.402990375558
 46
0.0
 71
     1
 72
     5
  1
ACMV- DRAIN PIPE
  7
TITLE TEXT
 73
     1
 44
1.0
101
Embedded Object
 70
     1
 10
1.0
 20
0.0
 30
0.0
 11
7066.905982274477
 21
-1633.416516707268
 31
0.0
 40
1437.402990375558
 41
0.0
 42
649.12
 43
52.26666666666666
 71
     2
 72
     1
 44
1437.402990375558
 45
250.0
 73
     0
 74
     0
 46
0.0
  0
MTEXT
  5
22F
330
2
100
AcDbEntity
  8
0
100
AcDbMText
 10
7066.905982274477
 20
-2034.483183373936
 30
0.0
 40
50.0
 41
1437.402990375558
 46
0.0
 71
     1
 72
     5
  1
ACMV- EQUIPMENT
  7
TITLE TEXT
 73
     1
 44
1.0
101
Embedded Object
 70
     1
 10
1.0
 20
0.0
 30
0.0
 11
7066.905982274477
 21
-2034.483183373936
 31
0.0
 40
1437.402990375558
 41
0.0
 42
655.1999999999999
 43
53.33333333333333
 71
     2
 72
     1
 44
1437.402990375558
 45
250.0
 73
     0
 74
     0
 46
0.0
  0
MTEXT
  5
230
330
2
100
AcDbEntity
  8
0
100
AcDbMText
 10
7066.905982274477
 20
-2234.483183373936
 30
0.0
 40
50.0
 41
1437.402990375558
 46
0.0
 71
     1
 72
     5
  1
ACMV- EXHAUST AIR DUCT
  7
TITLE TEXT
 73
     1
 44
1.0
101
Embedded Object
 70
     1
 10
1.0
 20
0.0
 30
0.0
 11
7066.905982274477
 21
-2234.483183373936
 31
0.0
 40
1437.402990375558
 41
0.0
 42
913.1199999999999
 43
52.26666666666666
 71
     2
 72
     1
 44
1437.402990375558
 45
250.0
 73
     0
 74
     0
 46
0.0
  0
MTEXT
  5
231
330
2
100
AcDbEntity
  8
0
100
AcDbMText
 10
7066.905982274477
 20
-2434.483183373936
 30
0.0
 40
50.0
 41
1437.402990375558
 46
0.0
 71
     1
 72
     5
  1
ACMV- FRESH AIR DUCT
  7
TITLE TEXT
 73
     1
 44
1.0
101
Embedded Object
 70
     1
 10
1.0
 20
0.0
 30
0.0
 11
7066.905982274477
 21
-2434.483183373936
 31
0.0
 40
1437.402990375558
 41
0.0
 42
826.7199999999998
 43
52.26666666666666
 71
     2
 72
     1
 44
1437.402990375558
 45
250.0
 73
     0
 74
     0
 46
0.0
  0
MTEXT
  5
232
330
2
100
AcDbEntity
  8
0
100
AcDbMText
 10
7066.905982274477
 20
-2634.483183373936
 30
0.0
 40
50.0
 41
1437.402990375558
 46
0.0
 71
     1
 72
     5
  1
ACMV- GAS PIPING
  7
TITLE TEXT
 73
     1
 44
1.0
101
Embedded Object
 70
     1
 10
1.0
 20
0.0
 30
0.0
 11
7066.905982274477
 21
-2634.483183373936
 31
0.0
 40
1437.402990375558
 41
0.0
 42
647.5199999999999
 43
52.26666666666666
 71
     2
 72
     1
 44
1437.402990375558
 45
250.0
 73
     0
 74
     0
 46
0.0
  0
MTEXT
  5
233
330
2
100
AcDbEntity
  8
0
100
AcDbMText
 10
7066.905982274477
 20
-2834.483183373936
 30
0.0
 40
50.0
 41
1437.402990375558
 46
0.0
 71
     1
 72
     5
  1
ACMV- PRESSURISATION AIR DUCT
  7
TITLE TEXT
 73
     1
 44
1.0
101
Embedded Object
 70
     1
 10
1.0
 20
0.0
 30
0.0
 11
7066.905982274477
 21
-2834.483183373936
 31
0.0
 40
1437.402990375558
 41
0.0
 42
1192.479999999999
 43
52.26666666666666
 71
     2
 72
     1
 44
1437.402990375558
 45
250.0
 73
     0
 74
     0
 46
0.0
  0
MTEXT
  5
234
330
2
100
AcDbEntity
  8
0
100
AcDbMText
 10
7066.905982274477
 20
-3034.483183373936
 30
0.0
 40
50.0
 41
1437.402990375558
 46
0.0
 71
     1
 72
     5
  1
ACMV- RETURN AIR DUCT
  7
TITLE TEXT
 73
     1
 44
1.0
101
Embedded Object
 70
     1
 10
1.0
 20
0.0
 30
0.0
 11
7066.905982274477
 21
-3034.483183373936
 31
0.0
 40
1437.402990375558
 41
0.0
 42
877.5999999999999
 43
52.26666666666666
 71
     2
 72
     1
 44
1437.402990375558
 45
250.0
 73
     0
 74
     0
 46
0.0
  0
MTEXT
  5
235
330
2
100
AcDbEntity
  8
0
100
AcDbMText
 10
7066.905982274477
 20
-3234.483183373936
 30
0.0
 40
50.0
 41
1437.402990375558
 46
0.0
 71
     1
 72
     5
  1
ACMV- SMOKE EXHAUST DUCT
  7
TITLE TEXT
 73
     1
 44
1.0
101
Embedded Object
 70
     1
 10
1.0
 20
0.0
 30
0.0
 11
7066.905982274477
 21
-3234.483183373936
 31
0.0
 40
1437.402990375558
 41
0.0
 42
1039.04
 43
52.26666666666666
 71
     2
 72
     1
 44
1437.402990375558
 45
250.0
 73
     0
 74
     0
 46
0.0
  0
MTEXT
  5
236
330
2
100
AcDbEntity
  8
0
100
AcDbMText
 10
12171.69315667069
 20
-433.4165167072687
 30
0.0
 40
50.0
 41
1437.402990375558
 46
0.0
 71
     1
 72
     5
  1
ACMV-TEXT
  7
TITLE TEXT
 73
     1
 44
1.0
101
Embedded Object
 70
     1
 10
1.0
 20
0.0
 30
0.0
 11
12171.69315667069
 21
-433.4165167072687
 31
0.0
 40
1437.402990375558
 41
0.0
 42
395.36
 43
52.26666666666666
 71
     2
 72
     1
 44
1437.402990375558
 45
250.0
 73
     0
 74
     0
 46
0.0
  0
MTEXT
  5
237
330
2
100
AcDbEntity
  8
0
100
AcDbMText
 10
17642.97447846804
 20
-423.0002501328608
 30
0.0
 40
50.0
 41
1437.402990375558
 46
0.0
 71
     1
 72
     5
  1
ACMV-DIM PIPE
  7
TITLE TEXT
 73
     1
 44
1.0
101
Embedded Object
 70
     1
 10
1.0
 20
0.0
 30
0.0
 11
17642.97447846804
 21
-423.0002501328608
 31
0.0
 40
1437.402990375558
 41
0.0
 42
539.8399999999999
 43
52.26666666666666
 71
     2
 72
     1
 44
1437.402990375558
 45
250.0
 73
     0
 74
     0
 46
0.0
  0
MTEXT
  5
238
330
2
100
AcDbEntity
  8
0
100
AcDbMText
 10
17642.97447846804
 20
-675.0002501328609
 30
0.0
 40
50.0
 41
1437.402990375558
 46
0.0
 71
     1
 72
     5
  1
ACMV-Dim_dinh vi Dpipe
  7
TITLE TEXT
 73
     1
 44
1.0
101
Embedded Object
 70
     1
 10
1.0
 20
0.0
 30
0.0
 11
17642.97447846804
 21
-675.0002501328609
 31
0.0
 40
1437.402990375558
 41
0.0
 42
824.4799999999999
 43
63.66666666666667
 71
     2
 72
     1
 44
1437.402990375558
 45
250.0
 73
     0
 74
     0
 46
0.0
  0
MTEXT
  5
239
330
2
100
AcDbEntity
  8
0
100
AcDbMText
 10
17642.97447846804
 20
-927.0002501328608
 30
0.0
 40
50.0
 41
1433.491787987674
 46
0.0
 71
     1
 72
     5
  1
ACMV-Dim_dinh vi duct
  7
TITLE TEXT
 73
     1
 44
1.0
101
Embedded Object
 70
     1
 10
1.0
 20
0.0
 30
0.0
 11
17642.97447846804
 21
-927.0002501328608
 31
0.0
 40
1433.491787987674
 41
0.0
 42
774.5599999999999
 43
59.06666666666666
 71
     2
 72
     1
 44
1433.491787987674
 45
250.0
 73
     0
 74
     0
 46
52.26666666666666
  0
MTEXT
  5
23A
330
2
100
AcDbEntity
  8
0
100
AcDbMText
 10
17642.97447846804
 20
-1179.000250132861
 30
0.0
 40
50.0
 41
1437.402990375558
 46
0.0
 71
     1
 72
     5
  1
ACMV-Dim_dinh vi piping
  7
TITLE TEXT
 73
     1
 44
1.0
101
Embedded Object
 70
     1
 10
1.0
 20
0.0
 30
0.0
 11
17642.97447846804
 21
-1179.000250132861
 31
0.0
 40
1437.402990375558
 41
0.0
 42
835.3599999999998
 43
63.66666666666667
 71
     2
 72
     1
 44
1437.402990375558
 45
250.0
 73
     0
 74
     0
 46
0.0
  0
MTEXT
  5
23B
330
2
100
AcDbEntity
  8
0
100
AcDbMText
 10
17642.97447846804
 20
-1434.441309718521
 30
0.0
 40
50.0
 41
1437.402990375558
 46
0.0
 71
     1
 72
     5
  1
ACMV-Dim_Duct
  7
TITLE TEXT
 73
     1
 44
1.0
101
Embedded Object
 70
     1
 10
1.0
 20
0.0
 30
0.0
 11
17642.97447846804
 21
-1434.441309718521
 31
0.0
 40
1437.402990375558
 41
0.0
 42
536.1599999999998
 43
59.06666666666666
 71
     2
 72
     1
 44
1437.402990375558
 45
250.0
 73
     0
 74
     0
 46
0.0
  0
MTEXT
  5
23C
330
2
100
AcDbEntity
  8
0
100
AcDbMText
 10
17642.97447846804
 20
-1686.441309718522
 30
0.0
 40
50.0
 41
1437.402990375558
 46
0.0
 71
     1
 72
     5
  1
ACMV-Dim_EQUIP
  7
TITLE TEXT
 73
     1
 44
1.0
101
Embedded Object
 70
     1
 10
1.0
 20
0.0
 30
0.0
 11
17642.97447846804
 21
-1686.441309718522
 31
0.0
 40
1437.402990375558
 41
0.0
 42
597.7599999999999
 43
59.06666666666666
 71
     2
 72
     1
 44
1437.402990375558
 45
250.0
 73
     0
 74
     0
 46
0.0
  0
MTEXT
  5
23D
330
2
100
AcDbEntity
  8
0
100
AcDbMText
 10
17642.97447846804
 20
-1938.441309718522
 30
0.0
 40
50.0
 41
1437.402990375558
 46
0.0
 71
     1
 72
     5
  1
ACMV-Dim_support drainpipe
  7
TITLE TEXT
 73
     1
 44
1.0
101
Embedded Object
 70
     1
 10
1.0
 20
0.0
 30
0.0
 11
17642.97447846804
 21
-1938.441309718522
 31
0.0
 40
1437.402990375558
 41
0.0
 42
951.9999999999999
 43
63.66666666666667
 71
     2
 72
     1
 44
1437.402990375558
 45
250.0
 73
     0
 74
     0
 46
0.0
  0
MTEXT
  5
23E
330
2
100
AcDbEntity
  8
0
100
AcDbMText
 10
17642.97447846804
 20
-2190.441309718522
 30
0.0
 40
50.0
 41
1437.402990375558
 46
0.0
 71
     1
 72
     5
  1
ACMV-Dim_support duct
  7
TITLE TEXT
 73
     1
 44
1.0
101
Embedded Object
 70
     1
 10
1.0
 20
0.0
 30
0.0
 11
17642.97447846804
 21
-2190.441309718522
 31
0.0
 40
1437.402990375558
 41
0.0
 42
789.9199999999998
 43
63.66666666666667
 71
     2
 72
     1
 44
1437.402990375558
 45
250.0
 73
     0
 74
     0
 46
0.0
  0
LINE
  5
23F
330
2
100
AcDbEntity
  8
0
100
AcDbLine
 10
16661.18831370331
 20
943.7077853193796
 30
0.0
 11
16661.18831370331
 21
-3979.307125869946
 31
0.0
  0
MTEXT
  5
240
330
2
100
AcDbEntity
  8
0
100
AcDbMText
 10
12933.03699277461
 20
640.857302555446
 30
0.0
 40
200.0
 41
5210.1578232717
 46
0.0
 71
     1
 72
     5
  1
TEXT LAYER
  7
TITLE TEXT
 73
     1
 44
1.0
101
Embedded Object
 70
     1
 10
1.0
 20
0.0
 30
0.0
 11
12933.03699277461
 21
640.857302555446
 31
0.0
 40
5210.1578232717
 41
0.0
 42
1681.28
 43
200.2666666666667
 71
     2
 72
     1
 44
5210.1578232717
 45
1000.0
 73
     0
 74
     0
 46
0.0
  0
LINE
  5
241
330
2
100
AcDbEntity
  8
ACMV-DIM PIPE
100
AcDbLine
 10
19190.63753519449
 20
-447.1042397527826
 30
0.0
 11
20196.54934228221
 21
-447.1042397527826
 31
0.0
  0
MTEXT
  5
242
330
2
100
AcDbEntity
  8
0
100
AcDbMText
 10
17642.97447846804
 20
-2442.441309718522
 30
0.0
 40
50.0
 41
1437.402990375558
 46
0.0
 71
     1
 72
     5
  1
ACMV-Dim_support piping
  7
TITLE TEXT
 73
     1
 44
1.0
101
Embedded Object
 70
     1
 10
1.0
 20
0.0
 30
0.0
 11
17642.97447846804
 21
-2442.441309718522
 31
0.0
 40
1437.402990375558
 41
0.0
 42
850.7199999999999
 43
63.66666666666667
 71
     2
 72
     1
 44
1437.402990375558
 45
250.0
 73
     0
 74
     0
 46
0.0
  0
LINE
  5
243
330
2
100
AcDbEntity
  8
ACMV- CHWR TEXT
100
AcDbLine
 10
13649.88024778597
 20
-657.5205063271905
 30
0.0
 11
14675.58024367856
 21
-657.5205063271905
 31
0.0
  0
MTEXT
  5
244
330
2
100
AcDbEntity
  8
0
100
AcDbMText
 10
12171.69315667069
 20
-633.4165167072687
 30
0.0
 40
50.0
 41
1437.402990375558
 46
0.0
 71
     1
 72
     5
  1
ACMV- CHWR TEXT
  7
TITLE TEXT
 73
     1
 44
1.0
101
Embedded Object
 70
     1
 10
1.0
 20
0.0
 30
0.0
 11
12171.69315667069
 21
-633.4165167072687
 31
0.0
 40
1437.402990375558
 41
0.0
 42
662.7199999999999
 43
52.26666666666666
 71
     2
 72
     1
 44
1437.402990375558
 45
250.0
 73
     0
 74
     0
 46
0.0
  0
LINE
  5
245
330
2
100
AcDbEntity
  8
ACMV- CONTROL WIRING TEXT
100
AcDbLine
 10
13649.88024778597
 20
-1057.52050632719
 30
0.0
 11
14675.58024367856
 21
-1057.52050632719
 31
0.0
  0
MTEXT
  5
246
330
2
100
AcDbEntity
  8
0
100
AcDbMText
 10
12171.69315667069
 20
-1033.416516707269
 30
0.0
 40
50.0
 41
1437.402990375558
 46
0.0
 71
     1
 72
     5
  1
ACMV- CONTROL WIRING TEXT
  7
TITLE TEXT
 73
     1
 44
1.0
101
Embedded Object
 70
     1
 10
1.0
 20
0.0
 30
0.0
 11
12171.69315667069
 21
-1033.416516707269
 31
0.0
 40
1437.402990375558
 41
0.0
 42
1054.24
 43
52.26666666666666
 71
     2
 72
     1
 44
1437.402990375558
 45
250.0
 73
     0
 74
     0
 46
0.0
  0
LINE
  5
247
330
2
100
AcDbEntity
  8
ACMV- CWS TEXT
100
AcDbLine
 10
13649.88024778597
 20
-1257.52050632719
 30
0.0
 11
14675.58024367856
 21
-1257.52050632719
 31
0.0
  0
MTEXT
  5
248
330
2
100
AcDbEntity
  8
0
100
AcDbMText
 10
12171.69315667069
 20
-1233.416516707269
 30
0.0
 40
50.0
 41
1437.402990375558
 46
0.0
 71
     1
 72
     5
  1
ACMV- CWS TEXT
  7
TITLE TEXT
 73
     1
 44
1.0
101
Embedded Object
 70
     1
 10
1.0
 20
0.0
 30
0.0
 11
12171.69315667069
 21
-1233.416516707269
 31
0.0
 40
1437.402990375558
 41
0.0
 42
607.9999999999999
 43
52.26666666666666
 71
     2
 72
     1
 44
1437.402990375558
 45
250.0
 73
     0
 74
     0
 46
0.0
  0
LINE
  5
249
330
2
100
AcDbEntity
  8
ACMV- DRAIN PIPE TEXT
100
AcDbLine
 10
13649.88024778597
 20
-1657.52050632719
 30
0.0
 11
14675.58024367856
 21
-1657.52050632719
 31
0.0
  0
MTEXT
  5
24A
330
2
100
AcDbEntity
  8
0
100
AcDbMText
 10
12171.69315667069
 20
-1633.416516707268
 30
0.0
 40
50.0
 41
1437.402990375558
 46
0.0
 71
     1
 72
     5
  1
ACMV- DRAIN PIPE TEXT
  7
TITLE TEXT
 73
     1
 44
1.0
101
Embedded Object
 70
     1
 10
1.0
 20
0.0
 30
0.0
 11
12171.69315667069
 21
-1633.416516707268
 31
0.0
 40
1437.402990375558
 41
0.0
 42
853.7599999999999
 43
52.26666666666666
 71
     2
 72
     1
 44
1437.402990375558
 45
250.0
 73
     0
 74
     0
 46
0.0
  0
LINE
  5
24B
330
2
100
AcDbEntity
  8
ACMV- EQUIPMENT TEXT
100
AcDbLine
 10
13649.88024778597
 20
-1857.52050632719
 30
0.0
 11
14675.58024367856
 21
-1857.52050632719
 31
0.0
  0
MTEXT
  5
24C
330
2
100
AcDbEntity
  8
0
100
AcDbMText
 10
12171.69315667069
 20
-1833.416516707268
 30
0.0
 40
50.0
 41
1437.402990375558
 46
0.0
 71
     1
 72
     5
  1
ACMV- EQUIPMENT TEXT
  7
TITLE TEXT
 73
     1
 44
1.0
101
Embedded Object
 70
     1
 10
1.0
 20
0.0
 30
0.0
 11
12171.69315667069
 21
-1833.416516707268
 31
0.0
 40
1437.402990375558
 41
0.0
 42
854.72
 43
53.33333333333333
 71
     2
 72
     1
 44
1437.402990375558
 45
250.0
 73
     0
 74
     0
 46
0.0
  0
LINE
  5
24D
330
2
100
AcDbEntity
  8
ACMV- EXHAUST AIR DUCT TEXT
100
AcDbLine
 10
13649.88024778597
 20
-2057.520506327191
 30
0.0
 11
14675.58024367856
 21
-2057.520506327191
 31
0.0
  0
MTEXT
  5
24E
330
2
100
AcDbEntity
  8
0
100
AcDbMText
 10
12171.69315667069
 20
-2033.416516707269
 30
0.0
 40
50.0
 41
1437.402990375558
 46
0.0
 71
     1
 72
     5
  1
ACMV- EXHAUST AIR DUCT TEXT
  7
TITLE TEXT
 73
     1
 44
1.0
101
Embedded Object
 70
     1
 10
1.0
 20
0.0
 30
0.0
 11
12171.69315667069
 21
-2033.416516707269
 31
0.0
 40
1437.402990375558
 41
0.0
 42
1112.64
 43
52.26666666666666
 71
     2
 72
     1
 44
1437.402990375558
 45
250.0
 73
     0
 74
     0
 46
0.0
  0
LINE
  5
24F
330
2
100
AcDbEntity
  8
ACMV- FRESH AIR DUCT TEXT
100
AcDbLine
 10
13649.88024778597
 20
-2257.520506327191
 30
0.0
 11
14675.58024367856
 21
-2257.520506327191
 31
0.0
  0
MTEXT
  5
250
330
2
100
AcDbEntity
  8
0
100
AcDbMText
 10
12171.69315667069
 20
-2233.416516707269
 30
0.0
 40
50.0
 41
1437.402990375558
 46
0.0
 71
     1
 72
     5
  1
ACMV- FRESH AIR DUCT TEXT
  7
TITLE TEXT
 73
     1
 44
1.0
101
Embedded Object
 70
     1
 10
1.0
 20
0.0
 30
0.0
 11
12171.69315667069
 21
-2233.416516707269
 31
0.0
 40
1437.402990375558
 41
0.0
 42
1026.24
 43
52.26666666666666
 71
     2
 72
     1
 44
1437.402990375558
 45
250.0
 73
     0
 74
     0
 46
0.0
  0
LINE
  5
251
330
2
100
AcDbEntity
  8
ACMV- GAS PIPING TEXT
100
AcDbLine
 10
13649.88024778597
 20
-2457.52050632719
 30
0.0
 11
14675.58024367856
 21
-2457.52050632719
 31
0.0
  0
MTEXT
  5
252
330
2
100
AcDbEntity
  8
0
100
AcDbMText
 10
12171.69315667069
 20
-2433.416516707269
 30
0.0
 40
50.0
 41
1437.402990375558
 46
0.0
 71
     1
 72
     5
  1
ACMV- GAS PIPING TEXT
  7
TITLE TEXT
 73
     1
 44
1.0
101
Embedded Object
 70
     1
 10
1.0
 20
0.0
 30
0.0
 11
12171.69315667069
 21
-2433.416516707269
 31
0.0
 40
1437.402990375558
 41
0.0
 42
852.8
 43
52.26666666666666
 71
     2
 72
     1
 44
1437.402990375558
 45
250.0
 73
     0
 74
     0
 46
0.0
  0
LINE
  5
253
330
2
100
AcDbEntity
  8
ACMV- PRESSURISATION AIR DUCT TEXT
100
AcDbLine
 10
13649.88024778597
 20
-2657.520506327191
 30
0.0
 11
14675.58024367856
 21
-2657.520506327191
 31
0.0
  0
MTEXT
  5
254
330
2
100
AcDbEntity
  8
0
100
AcDbMText
 10
12171.69315667069
 20
-2633.416516707269
 30
0.0
 40
50.0
 41
1437.402990375558
 46
0.0
 71
     1
 72
     5
  1
ACMV- PRESSURISATION AIR DUCT TEXT
  7
TITLE TEXT
 73
     1
 44
1.0
101
Embedded Object
 70
     1
 10
1.0
 20
0.0
 30
0.0
 11
12171.69315667069
 21
-2633.416516707269
 31
0.0
 40
1437.402990375558
 41
0.0
 42
1392.0
 43
52.26666666666666
 71
     2
 72
     1
 44
1437.402990375558
 45
250.0
 73
     0
 74
     0
 46
0.0
  0
LINE
  5
255
330
2
100
AcDbEntity
  8
ACMV- RETURN AIR DUCT TEXT
100
AcDbLine
 10
13649.88024778597
 20
-2857.520506327191
 30
0.0
 11
14675.58024367856
 21
-2857.520506327191
 31
0.0
  0
MTEXT
  5
256
330
2
100
AcDbEntity
  8
0
100
AcDbMText
 10
12171.69315667069
 20
-2833.416516707269
 30
0.0
 40
50.0
 41
1437.402990375558
 46
0.0
 71
     1
 72
     5
  1
ACMV- RETURN AIR DUCT TEXT
  7
TITLE TEXT
 73
     1
 44
1.0
101
Embedded Object
 70
     1
 10
1.0
 20
0.0
 30
0.0
 11
12171.69315667069
 21
-2833.416516707269
 31
0.0
 40
1437.402990375558
 41
0.0
 42
1077.12
 43
52.26666666666666
 71
     2
 72
     1
 44
1437.402990375558
 45
250.0
 73
     0
 74
     0
 46
0.0
  0
LINE
  5
257
330
2
100
AcDbEntity
  8
ACMV- SMOKE EXHAUST DUCT TEXT
100
AcDbLine
 10
13649.88024778597
 20
-3257.520506327191
 30
0.0
 11
14675.58024367856
 21
-3257.520506327191
 31
0.0
  0
MTEXT
  5
258
330
2
100
AcDbEntity
  8
0
100
AcDbMText
 10
12171.69315667069
 20
-3233.416516707269
 30
0.0
 40
50.0
 41
1437.402990375558
 46
0.0
 71
     1
 72
     5
  1
ACMV- SMOKE EXHAUST DUCT TEXT
  7
TITLE TEXT
 73
     1
 44
1.0
101
Embedded Object
 70
     1
 10
1.0
 20
0.0
 30
0.0
 11
12171.69315667069
 21
-3233.416516707269
 31
0.0
 40
1437.402990375558
 41
0.0
 42
1238.56
 43
52.26666666666666
 71
     2
 72
     1
 44
1437.402990375558
 45
250.0
 73
     0
 74
     0
 46
0.0
  0
MTEXT
  5
259
330
2
100
AcDbEntity
  8
0
100
AcDbMText
 10
9791.682750355921
 20
-433.4165167072687
 30
0.0
 40
50.0
 41
354.3465522399347
 46
0.0
 71
     1
 72
     5
  1
161
  7
TITLE TEXT
 73
     1
 44
1.0
101
Embedded Object
 70
     1
 10
1.0
 20
0.0
 30
0.0
 11
9791.682750355921
 21
-433.4165167072687
 31
0.0
 40
354.3465522399347
 41
0.0
 42
100.48
 43
51.06666666666667
 71
     2
 72
     1
 44
354.3465522399347
 45
250.0
 73
     0
 74
     0
 46
0.0
  0
MTEXT
  5
25A
330
2
100
AcDbEntity
  8
0
100
AcDbMText
 10
9791.682750355921
 20
-633.4165167072687
 30
0.0
 40
50.0
 41
354.3465522399347
 46
0.0
 71
     1
 72
     5
  1
140
  7
TITLE TEXT
 73
     1
 44
1.0
101
Embedded Object
 70
     1
 10
1.0
 20
0.0
 30
0.0
 11
9791.682750355921
 21
-633.4165167072687
 31
0.0
 40
354.3465522399347
 41
0.0
 42
111.5199999999999
 43
51.06666666666667
 71
     2
 72
     1
 44
354.3465522399347
 45
250.0
 73
     0
 74
     0
 46
0.0
  0
MTEXT
  5
25B
330
2
100
AcDbEntity
  8
0
100
AcDbMText
 10
9791.682750355921
 20
-833.4165167072688
 30
0.0
 40
50.0
 41
354.3465522399347
 46
0.0
 71
     1
 72
     5
  1
70
  7
TITLE TEXT
 73
     1
 44
1.0
101
Embedded Object
 70
     1
 10
1.0
 20
0.0
 30
0.0
 11
9791.682750355921
 21
-833.4165167072688
 31
0.0
 40
354.3465522399347
 41
0.0
 42
73.44
 43
51.06666666666667
 71
     2
 72
     1
 44
354.3465522399347
 45
250.0
 73
     0
 74
     0
 46
0.0
  0
MTEXT
  5
25C
330
2
100
AcDbEntity
  8
0
100
AcDbMText
 10
9791.682750355921
 20
-1033.416516707269
 30
0.0
 40
50.0
 41
354.3465522399347
 46
0.0
 71
     1
 72
     5
  1
240
  7
TITLE TEXT
 73
     1
 44
1.0
101
Embedded Object
 70
     1
 10
1.0
 20
0.0
 30
0.0
 11
9791.682750355921
 21
-1033.416516707269
 31
0.0
 40
354.3465522399347
 41
0.0
 42
113.92
 43
51.06666666666667
 71
     2
 72
     1
 44
354.3465522399347
 45
250.0
 73
     0
 74
     0
 46
0.0
  0
MTEXT
  5
25D
330
2
100
AcDbEntity
  8
0
100
AcDbMText
 10
9791.682750355921
 20
-1233.416516707269
 30
0.0
 40
50.0
 41
354.3465522399347
 46
0.0
 71
     1
 72
     5
  1
95
  7
TITLE TEXT
 73
     1
 44
1.0
101
Embedded Object
 70
     1
 10
1.0
 20
0.0
 30
0.0
 11
9791.682750355921
 21
-1233.416516707269
 31
0.0
 40
354.3465522399347
 41
0.0
 42
72.64
 43
51.06666666666667
 71
     2
 72
     1
 44
354.3465522399347
 45
250.0
 73
     0
 74
     0
 46
0.0
  0
MTEXT
  5
25E
330
2
100
AcDbEntity
  8
0
100
AcDbMText
 10
9791.682750355921
 20
-1433.416516707269
 30
0.0
 40
50.0
 41
354.3465522399347
 46
0.0
 71
     1
 72
     5
  1
211
  7
TITLE TEXT
 73
     1
 44
1.0
101
Embedded Object
 70
     1
 10
1.0
 20
0.0
 30
0.0
 11
9791.682750355921
 21
-1433.416516707269
 31
0.0
 40
354.3465522399347
 41
0.0
 42
102.88
 43
50.0
 71
     2
 72
     1
 44
354.3465522399347
 45
250.0
 73
     0
 74
     0
 46
0.0
  0
MTEXT
  5
25F
330
2
100
AcDbEntity
  8
0
100
AcDbMText
 10
9791.682750355921
 20
-1633.416516707268
 30
0.0
 40
50.0
 41
354.3465522399347
 46
0.0
 71
     1
 72
     5
  1
150
  7
TITLE TEXT
 73
     1
 44
1.0
101
Embedded Object
 70
     1
 10
1.0
 20
0.0
 30
0.0
 11
9791.682750355921
 21
-1633.416516707268
 31
0.0
 40
354.3465522399347
 41
0.0
 42
111.5199999999999
 43
51.06666666666667
 71
     2
 72
     1
 44
354.3465522399347
 45
250.0
 73
     0
 74
     0
 46
0.0
  0
MTEXT
  5
260
330
2
100
AcDbEntity
  8
0
100
AcDbMText
 10
9791.682750355921
 20
-2034.483183373936
 30
0.0
 40
50.0
 41
354.3465522399347
 46
0.0
 71
     1
 72
     5
  1
41
  7
TITLE TEXT
 73
     1
 44
1.0
101
Embedded Object
 70
     1
 10
1.0
 20
0.0
 30
0.0
 11
9791.682750355921
 21
-2034.483183373936
 31
0.0
 40
354.3465522399347
 41
0.0
 42
63.67999999999999
 43
50.0
 71
     2
 72
     1
 44
354.3465522399347
 45
250.0
 73
     0
 74
     0
 46
0.0
  0
MTEXT
  5
261
330
2
100
AcDbEntity
  8
0
100
AcDbMText
 10
9791.682750355921
 20
-2234.483183373936
 30
0.0
 40
50.0
 41
354.3465522399347
 46
0.0
 71
     1
 72
     5
  1
30
  7
TITLE TEXT
 73
     1
 44
1.0
101
Embedded Object
 70
     1
 10
1.0
 20
0.0
 30
0.0
 11
9791.682750355921
 21
-2234.483183373936
 31
0.0
 40
354.3465522399347
 41
0.0
 42
74.08
 43
51.06666666666667
 71
     2
 72
     1
 44
354.3465522399347
 45
250.0
 73
     0
 74
     0
 46
0.0
  0
MTEXT
  5
262
330
2
100
AcDbEntity
  8
0
100
AcDbMText
 10
9791.682750355921
 20
-2434.483183373936
 30
0.0
 40
50.0
 41
354.3465522399347
 46
0.0
 71
     1
 72
     5
  1
100
  7
TITLE TEXT
 73
     1
 44
1.0
101
Embedded Object
 70
     1
 10
1.0
 20
0.0
 30
0.0
 11
9791.682750355921
 21
-2434.483183373936
 31
0.0
 40
354.3465522399347
 41
0.0
 42
111.5199999999999
 43
51.06666666666667
 71
     2
 72
     1
 44
354.3465522399347
 45
250.0
 73
     0
 74
     0
 46
0.0
  0
MTEXT
  5
263
330
2
100
AcDbEntity
  8
0
100
AcDbMText
 10
9791.682750355921
 20
-2634.483183373936
 30
0.0
 40
50.0
 41
354.3465522399347
 46
0.0
 71
     1
 72
     5
  1
130
  7
TITLE TEXT
 73
     1
 44
1.0
101
Embedded Object
 70
     1
 10
1.0
 20
0.0
 30
0.0
 11
9791.682750355921
 21
-2634.483183373936
 31
0.0
 40
354.3465522399347
 41
0.0
 42
111.5199999999999
 43
51.06666666666667
 71
     2
 72
     1
 44
354.3465522399347
 45
250.0
 73
     0
 74
     0
 46
0.0
  0
MTEXT
  5
264
330
2
100
AcDbEntity
  8
0
100
AcDbMText
 10
9791.682750355921
 20
-2834.483183373936
 30
0.0
 40
50.0
 41
354.3465522399347
 46
0.0
 71
     1
 72
     5
  1
64
  7
TITLE TEXT
 73
     1
 44
1.0
101
Embedded Object
 70
     1
 10
1.0
 20
0.0
 30
0.0
 11
9791.682750355921
 21
-2834.483183373936
 31
0.0
 40
354.3465522399347
 41
0.0
 42
73.12000000000001
 43
51.06666666666667
 71
     2
 72
     1
 44
354.3465522399347
 45
250.0
 73
     0
 74
     0
 46
0.0
  0
MTEXT
  5
265
330
2
100
AcDbEntity
  8
0
100
AcDbMText
 10
9791.682750355921
 20
-3034.483183373936
 30
0.0
 40
50.0
 41
354.3465522399347
 46
0.0
 71
     1
 72
     5
  1
6
  7
TITLE TEXT
 73
     1
 44
1.0
101
Embedded Object
 70
     1
 10
1.0
 20
0.0
 30
0.0
 11
9791.682750355921
 21
-3034.483183373936
 31
0.0
 40
354.3465522399347
 41
0.0
 42
33.11999999999999
 43
51.06666666666667
 71
     2
 72
     1
 44
354.3465522399347
 45
250.0
 73
     0
 74
     0
 46
0.0
  0
MTEXT
  5
266
330
2
100
AcDbEntity
  8
0
100
AcDbMText
 10
9791.682750355921
 20
-3234.483183373936
 30
0.0
 40
50.0
 41
354.3465522399347
 46
0.0
 71
     1
 72
     5
  1
10
  7
TITLE TEXT
 73
     1
 44
1.0
101
Embedded Object
 70
     1
 10
1.0
 20
0.0
 30
0.0
 11
9791.682750355921
 21
-3234.483183373936
 31
0.0
 40
354.3465522399347
 41
0.0
 42
71.03999999999999
 43
51.06666666666667
 71
     2
 72
     1
 44
354.3465522399347
 45
250.0
 73
     0
 74
     0
 46
0.0
  0
MTEXT
  5
267
330
2
100
AcDbEntity
  8
0
100
AcDbMText
 10
14896.46992475214
 20
-433.4165167072687
 30
0.0
 40
50.0
 41
354.3465522399347
 46
0.0
 71
     1
 72
     5
  1
255
  7
TITLE TEXT
 73
     1
 44
1.0
101
Embedded Object
 70
     1
 10
1.0
 20
0.0
 30
0.0
 11
14896.46992475214
 21
-433.4165167072687
 31
0.0
 40
354.3465522399347
 41
0.0
 42
113.12
 43
51.06666666666667
 71
     2
 72
     1
 44
354.3465522399347
 45
250.0
 73
     0
 74
     0
 46
0.0
  0
MTEXT
  5
268
330
2
100
AcDbEntity
  8
0
100
AcDbMText
 10
14896.46992475214
 20
-633.4165167072687
 30
0.0
 40
50.0
 41
354.3465522399347
 46
0.0
 71
     1
 72
     5
  1
141
  7
TITLE TEXT
 73
     1
 44
1.0
101
Embedded Object
 70
     1
 10
1.0
 20
0.0
 30
0.0
 11
14896.46992475214
 21
-633.4165167072687
 31
0.0
 40
354.3465522399347
 41
0.0
 42
100.48
 43
50.0
 71
     2
 72
     1
 44
354.3465522399347
 45
250.0
 73
     0
 74
     0
 46
0.0
  0
MTEXT
  5
269
330
2
100
AcDbEntity
  8
0
100
AcDbMText
 10
14896.46992475214
 20
-1033.416516707269
 30
0.0
 40
50.0
 41
354.3465522399347
 46
0.0
 71
     1
 72
     5
  1
255
  7
TITLE TEXT
 73
     1
 44
1.0
101
Embedded Object
 70
     1
 10
1.0
 20
0.0
 30
0.0
 11
14896.46992475214
 21
-1033.416516707269
 31
0.0
 40
354.3465522399347
 41
0.0
 42
113.12
 43
51.06666666666667
 71
     2
 72
     1
 44
354.3465522399347
 45
250.0
 73
     0
 74
     0
 46
0.0
  0
MTEXT
  5
26A
330
2
100
AcDbEntity
  8
0
100
AcDbMText
 10
14896.46992475214
 20
-1233.416516707269
 30
0.0
 40
50.0
 41
354.3465522399347
 46
0.0
 71
     1
 72
     5
  1
221
  7
TITLE TEXT
 73
     1
 44
1.0
101
Embedded Object
 70
     1
 10
1.0
 20
0.0
 30
0.0
 11
14896.46992475214
 21
-1233.416516707269
 31
0.0
 40
354.3465522399347
 41
0.0
 42
102.88
 43
50.0
 71
     2
 72
     1
 44
354.3465522399347
 45
250.0
 73
     0
 74
     0
 46
0.0
  0
MTEXT
  5
26B
330
2
100
AcDbEntity
  8
0
100
AcDbMText
 10
14896.46992475214
 20
-1633.416516707268
 30
0.0
 40
50.0
 41
354.3465522399347
 46
0.0
 71
     1
 72
     5
  1
151
  7
TITLE TEXT
 73
     1
 44
1.0
101
Embedded Object
 70
     1
 10
1.0
 20
0.0
 30
0.0
 11
14896.46992475214
 21
-1633.416516707268
 31
0.0
 40
354.3465522399347
 41
0.0
 42
100.48
 43
51.06666666666667
 71
     2
 72
     1
 44
354.3465522399347
 45
250.0
 73
     0
 74
     0
 46
0.0
  0
MTEXT
  5
26C
330
2
100
AcDbEntity
  8
0
100
AcDbMText
 10
14896.46992475214
 20
-1833.416516707268
 30
0.0
 40
50.0
 41
354.3465522399347
 46
0.0
 71
     1
 72
     5
  1
255
  7
TITLE TEXT
 73
     1
 44
1.0
101
Embedded Object
 70
     1
 10
1.0
 20
0.0
 30
0.0
 11
14896.46992475214
 21
-1833.416516707268
 31
0.0
 40
354.3465522399347
 41
0.0
 42
113.12
 43
51.06666666666667
 71
     2
 72
     1
 44
354.3465522399347
 45
250.0
 73
     0
 74
     0
 46
0.0
  0
MTEXT
  5
26D
330
2
100
AcDbEntity
  8
0
100
AcDbMText
 10
14896.46992475214
 20
-2033.416516707269
 30
0.0
 40
50.0
 41
354.3465522399347
 46
0.0
 71
     1
 72
     5
  1
31
  7
TITLE TEXT
 73
     1
 44
1.0
101
Embedded Object
 70
     1
 10
1.0
 20
0.0
 30
0.0
 11
14896.46992475214
 21
-2033.416516707269
 31
0.0
 40
354.3465522399347
 41
0.0
 42
63.03999999999999
 43
51.06666666666667
 71
     2
 72
     1
 44
354.3465522399347
 45
250.0
 73
     0
 74
     0
 46
0.0
  0
MTEXT
  5
26E
330
2
100
AcDbEntity
  8
0
100
AcDbMText
 10
14896.46992475214
 20
-2233.416516707269
 30
0.0
 40
50.0
 41
354.3465522399347
 46
0.0
 71
     1
 72
     5
  1
101
  7
TITLE TEXT
 73
     1
 44
1.0
101
Embedded Object
 70
     1
 10
1.0
 20
0.0
 30
0.0
 11
14896.46992475214
 21
-2233.416516707269
 31
0.0
 40
354.3465522399347
 41
0.0
 42
100.48
 43
51.06666666666667
 71
     2
 72
     1
 44
354.3465522399347
 45
250.0
 73
     0
 74
     0
 46
0.0
  0
MTEXT
  5
26F
330
2
100
AcDbEntity
  8
0
100
AcDbMText
 10
14896.46992475214
 20
-2433.416516707269
 30
0.0
 40
50.0
 41
354.3465522399347
 46
0.0
 71
     1
 72
     5
  1
131
  7
TITLE TEXT
 73
     1
 44
1.0
101
Embedded Object
 70
     1
 10
1.0
 20
0.0
 30
0.0
 11
14896.46992475214
 21
-2433.416516707269
 31
0.0
 40
354.3465522399347
 41
0.0
 42
100.48
 43
51.06666666666667
 71
     2
 72
     1
 44
354.3465522399347
 45
250.0
 73
     0
 74
     0
 46
0.0
  0
MTEXT
  5
270
330
2
100
AcDbEntity
  8
0
100
AcDbMText
 10
14896.46992475214
 20
-2633.416516707269
 30
0.0
 40
50.0
 41
354.3465522399347
 46
0.0
 71
     1
 72
     5
  1
62
  7
TITLE TEXT
 73
     1
 44
1.0
101
Embedded Object
 70
     1
 10
1.0
 20
0.0
 30
0.0
 11
14896.46992475214
 21
-2633.416516707269
 31
0.0
 40
354.3465522399347
 41
0.0
 42
72.8
 43
51.06666666666667
 71
     2
 72
     1
 44
354.3465522399347
 45
250.0
 73
     0
 74
     0
 46
0.0
  0
MTEXT
  5
271
330
2
100
AcDbEntity
  8
0
100
AcDbMText
 10
14896.46992475214
 20
-2833.416516707269
 30
0.0
 40
50.0
 41
354.3465522399347
 46
0.0
 71
     1
 72
     5
  1
201
  7
TITLE TEXT
 73
     1
 44
1.0
101
Embedded Object
 70
     1
 10
1.0
 20
0.0
 30
0.0
 11
14896.46992475214
 21
-2833.416516707269
 31
0.0
 40
354.3465522399347
 41
0.0
 42
102.88
 43
51.06666666666667
 71
     2
 72
     1
 44
354.3465522399347
 45
250.0
 73
     0
 74
     0
 46
0.0
  0
MTEXT
  5
272
330
2
100
AcDbEntity
  8
0
100
AcDbMText
 10
14896.46992475214
 20
-3233.416516707269
 30
0.0
 40
50.0
 41
354.3465522399347
 46
0.0
 71
     1
 72
     5
  1
11
  7
TITLE TEXT
 73
     1
 44
1.0
101
Embedded Object
 70
     1
 10
1.0
 20
0.0
 30
0.0
 11
14896.46992475214
 21
-3233.416516707269
 31
0.0
 40
354.3465522399347
 41
0.0
 42
59.99999999999999
 43
50.0
 71
     2
 72
     1
 44
354.3465522399347
 45
250.0
 73
     0
 74
     0
 46
0.0
  0
MTEXT
  5
273
330
2
100
AcDbEntity
  8
0
100
AcDbMText
 10
20417.43902335579
 20
-423.0002501328608
 30
0.0
 40
50.0
 41
354.3465522399347
 46
0.0
 71
     1
 72
     5
  1
111
  7
TITLE TEXT
 73
     1
 44
1.0
101
Embedded Object
 70
     1
 10
1.0
 20
0.0
 30
0.0
 11
20417.43902335579
 21
-423.0002501328608
 31
0.0
 40
354.3465522399347
 41
0.0
 42
100.48
 43
50.0
 71
     2
 72
     1
 44
354.3465522399347
 45
250.0
 73
     0
 74
     0
 46
0.0
  0
MTEXT
  5
274
330
2
100
AcDbEntity
  8
0
100
AcDbMText
 10
20417.43902335579
 20
-675.0002501328609
 30
0.0
 40
50.0
 41
354.3465522399347
 46
0.0
 71
     1
 72
     5
  1
111
  7
TITLE TEXT
 73
     1
 44
1.0
101
Embedded Object
 70
     1
 10
1.0
 20
0.0
 30
0.0
 11
20417.43902335579
 21
-675.0002501328609
 31
0.0
 40
354.3465522399347
 41
0.0
 42
100.48
 43
50.0
 71
     2
 72
     1
 44
354.3465522399347
 45
250.0
 73
     0
 74
     0
 46
0.0
  0
MTEXT
  5
275
330
2
100
AcDbEntity
  8
0
100
AcDbMText
 10
20417.43902335579
 20
-927.0002501328608
 30
0.0
 40
50.0
 41
354.3465522399347
 46
0.0
 71
     1
 72
     5
  1
111
  7
TITLE TEXT
 73
     1
 44
1.0
101
Embedded Object
 70
     1
 10
1.0
 20
0.0
 30
0.0
 11
20417.43902335579
 21
-927.0002501328608
 31
0.0
 40
354.3465522399347
 41
0.0
 42
100.48
 43
50.0
 71
     2
 72
     1
 44
354.3465522399347
 45
250.0
 73
     0
 74
     0
 46
0.0
  0
MTEXT
  5
276
330
2
100
AcDbEntity
  8
0
100
AcDbMText
 10
20417.43902335579
 20
-1179.000250132861
 30
0.0
 40
50.0
 41
354.3465522399347
 46
0.0
 71
     1
 72
     5
  1
111
  7
TITLE TEXT
 73
     1
 44
1.0
101
Embedded Object
 70
     1
 10
1.0
 20
0.0
 30
0.0
 11
20417.43902335579
 21
-1179.000250132861
 31
0.0
 40
354.3465522399347
 41
0.0
 42
100.48
 43
50.0
 71
     2
 72
     1
 44
354.3465522399347
 45
250.0
 73
     0
 74
     0
 46
0.0
  0
MTEXT
  5
277
330
2
100
AcDbEntity
  8
0
100
AcDbMText
 10
20417.43902335579
 20
-1431.000250132861
 30
0.0
 40
50.0
 41
354.3465522399347
 46
0.0
 71
     1
 72
     5
  1
111
  7
TITLE TEXT
 73
     1
 44
1.0
101
Embedded Object
 70
     1
 10
1.0
 20
0.0
 30
0.0
 11
20417.43902335579
 21
-1431.000250132861
 31
0.0
 40
354.3465522399347
 41
0.0
 42
100.48
 43
50.0
 71
     2
 72
     1
 44
354.3465522399347
 45
250.0
 73
     0
 74
     0
 46
0.0
  0
MTEXT
  5
278
330
2
100
AcDbEntity
  8
0
100
AcDbMText
 10
20417.43902335579
 20
-1686.441309718522
 30
0.0
 40
50.0
 41
354.3465522399347
 46
0.0
 71
     1
 72
     5
  1
111
  7
TITLE TEXT
 73
     1
 44
1.0
101
Embedded Object
 70
     1
 10
1.0
 20
0.0
 30
0.0
 11
20417.43902335579
 21
-1686.441309718522
 31
0.0
 40
354.3465522399347
 41
0.0
 42
100.48
 43
50.0
 71
     2
 72
     1
 44
354.3465522399347
 45
250.0
 73
     0
 74
     0
 46
0.0
  0
MTEXT
  5
279
330
2
100
AcDbEntity
  8
0
100
AcDbMText
 10
20417.43902335579
 20
-1938.441309718522
 30
0.0
 40
50.0
 41
354.3465522399347
 46
0.0
 71
     1
 72
     5
  1
51
  7
TITLE TEXT
 73
     1
 44
1.0
101
Embedded Object
 70
     1
 10
1.0
 20
0.0
 30
0.0
 11
20417.43902335579
 21
-1938.441309718522
 31
0.0
 40
354.3465522399347
 41
0.0
 42
62.55999999999999
 43
51.06666666666667
 71
     2
 72
     1
 44
354.3465522399347
 45
250.0
 73
     0
 74
     0
 46
0.0
  0
MTEXT
  5
27A
330
2
100
AcDbEntity
  8
0
100
AcDbMText
 10
20417.43902335579
 20
-2190.441309718522
 30
0.0
 40
50.0
 41
354.3465522399347
 46
0.0
 71
     1
 72
     5
  1
51
  7
TITLE TEXT
 73
     1
 44
1.0
101
Embedded Object
 70
     1
 10
1.0
 20
0.0
 30
0.0
 11
20417.43902335579
 21
-2190.441309718522
 31
0.0
 40
354.3465522399347
 41
0.0
 42
62.55999999999999
 43
51.06666666666667
 71
     2
 72
     1
 44
354.3465522399347
 45
250.0
 73
     0
 74
     0
 46
0.0
  0
MTEXT
  5
27B
330
2
100
AcDbEntity
  8
0
100
AcDbMText
 10
20417.43902335579
 20
-2442.441309718522
 30
0.0
 40
50.0
 41
354.3465522399347
 46
0.0
 71
     1
 72
     5
  1
51
  7
TITLE TEXT
 73
     1
 44
1.0
101
Embedded Object
 70
     1
 10
1.0
 20
0.0
 30
0.0
 11
20417.43902335579
 21
-2442.441309718522
 31
0.0
 40
354.3465522399347
 41
0.0
 42
62.55999999999999
 43
51.06666666666667
 71
     2
 72
     1
 44
354.3465522399347
 45
250.0
 73
     0
 74
     0
 46
0.0
  0
LINE
  5
27C
330
2
100
AcDbEntity
  8
ACMV- SUPPLY AIR DUCT
100
AcDbLine
 10
8545.093073389756
 20
-3458.587172993857
 30
0.0
 11
9570.793069282345
 21
-3458.587172993857
 31
0.0
  0
MTEXT
  5
27D
330
2
100
AcDbEntity
  8
0
100
AcDbMText
 10
7066.905982274477
 20
-3434.483183373936
 30
0.0
 40
50.0
 41
1437.402990375558
 46
0.0
 71
     1
 72
     5
  1
ACMV- SUPPLY {\fArial|b0|i0|c0|p34;AIR} DUCT
  7
TITLE TEXT
 73
     1
 44
1.0
101
Embedded Object
 70
     1
 10
1.0
 20
0.0
 30
0.0
 11
7066.905982274477
 21
-3434.483183373936
 31
0.0
 40
1437.402990375558
 41
0.0
 42
884.3671487039562
 43
52.26666666666666
 71
     2
 72
     1
 44
1437.402990375558
 45
250.0
 73
     0
 74
     0
 46
0.0
  0
MTEXT
  5
27E
330
2
100
AcDbEntity
  8
0
100
AcDbMText
 10
9791.682750355921
 20
-3434.483183373936
 30
0.0
 40
50.0
 41
354.3465522399347
 46
0.0
 71
     1
 72
     5
  1
61
  7
TITLE TEXT
 73
     1
 44
1.0
101
Embedded Object
 70
     1
 10
1.0
 20
0.0
 30
0.0
 11
9791.682750355921
 21
-3434.483183373936
 31
0.0
 40
354.3465522399347
 41
0.0
 42
62.39999999999999
 43
51.06666666666667
 71
     2
 72
     1
 44
354.3465522399347
 45
250.0
 73
     0
 74
     0
 46
0.0
  0
MTEXT
  5
27F
330
2
100
AcDbEntity
  8
0
100
AcDbMText
 10
10384.16232174437
 20
-433.4165167072687
 30
0.0
 40
50.0
 41
354.3465522399347
 46
0.0
 71
     1
 72
     5
  1
0.40mm
  7
TITLE TEXT
 73
     1
 44
1.0
101
Embedded Object
 70
     1
 10
1.0
 20
0.0
 30
0.0
 11
10384.16232174437
 21
-433.4165167072687
 31
0.0
 40
354.3465522399347
 41
0.0
 42
257.92
 43
51.06666666666667
 71
     2
 72
     1
 44
354.3465522399347
 45
250.0
 73
     0
 74
     0
 46
0.0
  0
MTEXT
  5
280
330
2
100
AcDbEntity
  8
0
100
AcDbMText
 10
10384.16232174437
 20
-633.4165167072687
 30
0.0
 40
50.0
 41
354.3465522399347
 46
0.0
 71
     1
 72
     5
  1
0.18mm
  7
TITLE TEXT
 73
     1
 44
1.0
101
Embedded Object
 70
     1
 10
1.0
 20
0.0
 30
0.0
 11
10384.16232174437
 21
-633.4165167072687
 31
0.0
 40
354.3465522399347
 41
0.0
 42
257.92
 43
51.06666666666667
 71
     2
 72
     1
 44
354.3465522399347
 45
250.0
 73
     0
 74
     0
 46
0.0
  0
MTEXT
  5
281
330
2
100
AcDbEntity
  8
0
100
AcDbMText
 10
10384.16232174437
 20
-833.4165167072688
 30
0.0
 40
50.0
 41
354.3465522399347
 46
0.0
 71
     1
 72
     5
  1
0.2mm
  7
TITLE TEXT
 73
     1
 44
1.0
101
Embedded Object
 70
     1
 10
1.0
 20
0.0
 30
0.0
 11
10384.16232174437
 21
-833.4165167072688
 31
0.0
 40
354.3465522399347
 41
0.0
 42
217.44
 43
51.06666666666667
 71
     2
 72
     1
 44
354.3465522399347
 45
250.0
 73
     0
 74
     0
 46
0.0
  0
MTEXT
  5
282
330
2
100
AcDbEntity
  8
0
100
AcDbMText
 10
10384.16232174437
 20
-1033.416516707269
 30
0.0
 40
50.0
 41
354.3465522399347
 46
0.0
 71
     1
 72
     5
  1
0.13mm
  7
TITLE TEXT
 73
     1
 44
1.0
101
Embedded Object
 70
     1
 10
1.0
 20
0.0
 30
0.0
 11
10384.16232174437
 21
-1033.416516707269
 31
0.0
 40
354.3465522399347
 41
0.0
 42
257.92
 43
51.06666666666667
 71
     2
 72
     1
 44
354.3465522399347
 45
250.0
 73
     0
 74
     0
 46
0.0
  0
MTEXT
  5
283
330
2
100
AcDbEntity
  8
0
100
AcDbMText
 10
10384.16232174437
 20
-1233.416516707269
 30
0.0
 40
50.0
 41
354.3465522399347
 46
0.0
 71
     1
 72
     5
  1
0.25mm
  7
TITLE TEXT
 73
     1
 44
1.0
101
Embedded Object
 70
     1
 10
1.0
 20
0.0
 30
0.0
 11
10384.16232174437
 21
-1233.416516707269
 31
0.0
 40
354.3465522399347
 41
0.0
 42
257.92
 43
51.06666666666667
 71
     2
 72
     1
 44
354.3465522399347
 45
250.0
 73
     0
 74
     0
 46
0.0
  0
MTEXT
  5
284
330
2
100
AcDbEntity
  8
0
100
AcDbMText
 10
10384.16232174437
 20
-1433.416516707269
 30
0.0
 40
50.0
 41
354.3465522399347
 46
0.0
 71
     1
 72
     5
  1
0.25mm
  7
TITLE TEXT
 73
     1
 44
1.0
101
Embedded Object
 70
     1
 10
1.0
 20
0.0
 30
0.0
 11
10384.16232174437
 21
-1433.416516707269
 31
0.0
 40
354.3465522399347
 41
0.0
 42
257.92
 43
51.06666666666667
 71
     2
 72
     1
 44
354.3465522399347
 45
250.0
 73
     0
 74
     0
 46
0.0
  0
MTEXT
  5
285
330
2
100
AcDbEntity
  8
0
100
AcDbMText
 10
10384.16232174437
 20
-1633.416516707268
 30
0.0
 40
50.0
 41
354.3465522399347
 46
0.0
 71
     1
 72
     5
  1
0.15mm
  7
TITLE TEXT
 73
     1
 44
1.0
101
Embedded Object
 70
     1
 10
1.0
 20
0.0
 30
0.0
 11
10384.16232174437
 21
-1633.416516707268
 31
0.0
 40
354.3465522399347
 41
0.0
 42
257.92
 43
51.06666666666667
 71
     2
 72
     1
 44
354.3465522399347
 45
250.0
 73
     0
 74
     0
 46
0.0
  0
MTEXT
  5
286
330
2
100
AcDbEntity
  8
0
100
AcDbMText
 10
10384.16232174437
 20
-2034.483183373936
 30
0.0
 40
50.0
 41
354.3465522399347
 46
0.0
 71
     1
 72
     5
  1
0.3mm
  7
TITLE TEXT
 73
     1
 44
1.0
101
Embedded Object
 70
     1
 10
1.0
 20
0.0
 30
0.0
 11
10384.16232174437
 21
-2034.483183373936
 31
0.0
 40
354.3465522399347
 41
0.0
 42
217.44
 43
51.06666666666667
 71
     2
 72
     1
 44
354.3465522399347
 45
250.0
 73
     0
 74
     0
 46
0.0
  0
MTEXT
  5
287
330
2
100
AcDbEntity
  8
0
100
AcDbMText
 10
10384.16232174437
 20
-2234.483183373936
 30
0.0
 40
50.0
 41
354.3465522399347
 46
0.0
 71
     1
 72
     5
  1
0.35mm
  7
TITLE TEXT
 73
     1
 44
1.0
101
Embedded Object
 70
     1
 10
1.0
 20
0.0
 30
0.0
 11
10384.16232174437
 21
-2234.483183373936
 31
0.0
 40
354.3465522399347
 41
0.0
 42
257.92
 43
51.06666666666667
 71
     2
 72
     1
 44
354.3465522399347
 45
250.0
 73
     0
 74
     0
 46
0.0
  0
MTEXT
  5
288
330
2
100
AcDbEntity
  8
0
100
AcDbMText
 10
10384.16232174437
 20
-2434.483183373936
 30
0.0
 40
50.0
 41
354.3465522399347
 46
0.0
 71
     1
 72
     5
  1
0.3mm
  7
TITLE TEXT
 73
     1
 44
1.0
101
Embedded Object
 70
     1
 10
1.0
 20
0.0
 30
0.0
 11
10384.16232174437
 21
-2434.483183373936
 31
0.0
 40
354.3465522399347
 41
0.0
 42
217.44
 43
51.06666666666667
 71
     2
 72
     1
 44
354.3465522399347
 45
250.0
 73
     0
 74
     0
 46
0.0
  0
MTEXT
  5
289
330
2
100
AcDbEntity
  8
0
100
AcDbMText
 10
10384.16232174437
 20
-2634.483183373936
 30
0.0
 40
50.0
 41
354.3465522399347
 46
0.0
 71
     1
 72
     5
  1
0.2mm
  7
TITLE TEXT
 73
     1
 44
1.0
101
Embedded Object
 70
     1
 10
1.0
 20
0.0
 30
0.0
 11
10384.16232174437
 21
-2634.483183373936
 31
0.0
 40
354.3465522399347
 41
0.0
 42
217.44
 43
51.06666666666667
 71
     2
 72
     1
 44
354.3465522399347
 45
250.0
 73
     0
 74
     0
 46
0.0
  0
MTEXT
  5
28A
330
2
100
AcDbEntity
  8
0
100
AcDbMText
 10
10384.16232174437
 20
-2834.483183373936
 30
0.0
 40
50.0
 41
354.3465522399347
 46
0.0
 71
     1
 72
     5
  1
0.4mm
  7
TITLE TEXT
 73
     1
 44
1.0
101
Embedded Object
 70
     1
 10
1.0
 20
0.0
 30
0.0
 11
10384.16232174437
 21
-2834.483183373936
 31
0.0
 40
354.3465522399347
 41
0.0
 42
217.44
 43
51.06666666666667
 71
     2
 72
     1
 44
354.3465522399347
 45
250.0
 73
     0
 74
     0
 46
0.0
  0
MTEXT
  5
28B
330
2
100
AcDbEntity
  8
0
100
AcDbMText
 10
10384.16232174437
 20
-3034.483183373936
 30
0.0
 40
50.0
 41
354.3465522399347
 46
0.0
 71
     1
 72
     5
  1
0.25mm
  7
TITLE TEXT
 73
     1
 44
1.0
101
Embedded Object
 70
     1
 10
1.0
 20
0.0
 30
0.0
 11
10384.16232174437
 21
-3034.483183373936
 31
0.0
 40
354.3465522399347
 41
0.0
 42
257.92
 43
51.06666666666667
 71
     2
 72
     1
 44
354.3465522399347
 45
250.0
 73
     0
 74
     0
 46
0.0
  0
MTEXT
  5
28C
330
2
100
AcDbEntity
  8
0
100
AcDbMText
 10
10384.16232174437
 20
-3234.483183373936
 30
0.0
 40
50.0
 41
354.3465522399347
 46
0.0
 71
     1
 72
     5
  1
0.45mm
  7
TITLE TEXT
 73
     1
 44
1.0
101
Embedded Object
 70
     1
 10
1.0
 20
0.0
 30
0.0
 11
10384.16232174437
 21
-3234.483183373936
 31
0.0
 40
354.3465522399347
 41
0.0
 42
257.92
 43
51.06666666666667
 71
     2
 72
     1
 44
354.3465522399347
 45
250.0
 73
     0
 74
     0
 46
0.0
  0
MTEXT
  5
28D
330
2
100
AcDbEntity
  8
0
100
AcDbMText
 10
10384.16232174437
 20
-3434.483183373936
 30
0.0
 40
50.0
 41
354.3465522399347
 46
0.0
 71
     1
 72
     5
  1
0.25mm
  7
TITLE TEXT
 73
     1
 44
1.0
101
Embedded Object
 70
     1
 10
1.0
 20
0.0
 30
0.0
 11
10384.16232174437
 21
-3434.483183373936
 31
0.0
 40
354.3465522399347
 41
0.0
 42
257.92
 43
51.06666666666667
 71
     2
 72
     1
 44
354.3465522399347
 45
250.0
 73
     0
 74
     0
 46
0.0
  0
LINE
  5
28E
330
2
100
AcDbEntity
  8
ARC XREF
100
AcDbLine
 10
8545.093073389756
 20
-3658.587172993858
 30
0.0
 11
9570.793069282345
 21
-3658.587172993858
 31
0.0
  0
MTEXT
  5
28F
330
2
100
AcDbEntity
  8
0
100
AcDbMText
 10
7066.905982274477
 20
-3634.483183373936
 30
0.0
 40
50.0
 41
1437.402990375558
 46
0.0
 71
     1
 72
     5
  1
ARC XREF
  7
TITLE TEXT
 73
     1
 44
1.0
101
Embedded Object
 70
     1
 10
1.0
 20
0.0
 30
0.0
 11
7066.905982274477
 21
-3634.483183373936
 31
0.0
 40
1437.402990375558
 41
0.0
 42
341.7600000000001
 43
52.26666666666666
 71
     2
 72
     1
 44
1437.402990375558
 45
250.0
 73
     0
 74
     0
 46
0.0
  0
MTEXT
  5
290
330
2
100
AcDbEntity
  8
0
100
AcDbMText
 10
9791.682750355921
 20
-3634.483183373936
 30
0.0
 40
50.0
 41
354.3465522399347
 46
0.0
 71
     1
 72
     5
  1
8
  7
TITLE TEXT
 73
     1
 44
1.0
101
Embedded Object
 70
     1
 10
1.0
 20
0.0
 30
0.0
 11
9791.682750355921
 21
-3634.483183373936
 31
0.0
 40
354.3465522399347
 41
0.0
 42
32.64
 43
51.06666666666667
 71
     2
 72
     1
 44
354.3465522399347
 45
250.0
 73
     0
 74
     0
 46
0.0
  0
MTEXT
  5
291
330
2
100
AcDbEntity
  8
0
100
AcDbMText
 10
10384.16232174437
 20
-3634.483183373936
 30
0.0
 40
50.0
 41
354.3465522399347
 46
0.0
 71
     1
 72
     5
  1
0.1mm
  7
TITLE TEXT
 73
     1
 44
1.0
101
Embedded Object
 70
     1
 10
1.0
 20
0.0
 30
0.0
 11
10384.16232174437
 21
-3634.483183373936
 31
0.0
 40
354.3465522399347
 41
0.0
 42
217.44
 43
51.06666666666667
 71
     2
 72
     1
 44
354.3465522399347
 45
250.0
 73
     0
 74
     0
 46
0.0
  0
MTEXT
  5
292
330
2
100
AcDbEntity
  8
0
100
AcDbMText
 10
10884.39108890854
 20
-3634.483183373936
 30
0.0
 40
50.0
 41
354.3465522399347
 46
0.0
 71
     1
 72
     5
  1
50%
  7
TITLE TEXT
 73
     1
 44
1.0
101
Embedded Object
 70
     1
 10
1.0
 20
0.0
 30
0.0
 11
10884.39108890854
 21
-3634.483183373936
 31
0.0
 40
354.3465522399347
 41
0.0
 42
138.08
 43
51.06666666666667
 71
     2
 72
     1
 44
354.3465522399347
 45
250.0
 73
     0
 74
     0
 46
0.0
  0
MTEXT
  5
293
330
2
100
AcDbEntity
  8
0
100
AcDbMText
 10
20899.42751012898
 20
-2442.441309718522
 30
0.0
 40
50.0
 41
354.3465522399347
 46
0.0
 71
     1
 72
     5
  1
0.09mm
  7
TITLE TEXT
 73
     1
 44
1.0
101
Embedded Object
 70
     1
 10
1.0
 20
0.0
 30
0.0
 11
20899.42751012898
 21
-2442.441309718522
 31
0.0
 40
354.3465522399347
 41
0.0
 42
257.92
 43
51.06666666666667
 71
     2
 72
     1
 44
354.3465522399347
 45
250.0
 73
     0
 74
     0
 46
0.0
  0
MTEXT
  5
294
330
2
100
AcDbEntity
  8
0
100
AcDbMText
 10
20899.42751012898
 20
-2190.441309718522
 30
0.0
 40
50.0
 41
354.3465522399347
 46
0.0
 71
     1
 72
     5
  1
0.09mm
  7
TITLE TEXT
 73
     1
 44
1.0
101
Embedded Object
 70
     1
 10
1.0
 20
0.0
 30
0.0
 11
20899.42751012898
 21
-2190.441309718522
 31
0.0
 40
354.3465522399347
 41
0.0
 42
257.92
 43
51.06666666666667
 71
     2
 72
     1
 44
354.3465522399347
 45
250.0
 73
     0
 74
     0
 46
0.0
  0
MTEXT
  5
295
330
2
100
AcDbEntity
  8
0
100
AcDbMText
 10
20899.42751012898
 20
-1938.441309718522
 30
0.0
 40
50.0
 41
354.3465522399347
 46
0.0
 71
     1
 72
     5
  1
0.09mm
  7
TITLE TEXT
 73
     1
 44
1.0
101
Embedded Object
 70
     1
 10
1.0
 20
0.0
 30
0.0
 11
20899.42751012898
 21
-1938.441309718522
 31
0.0
 40
354.3465522399347
 41
0.0
 42
257.92
 43
51.06666666666667
 71
     2
 72
     1
 44
354.3465522399347
 45
250.0
 73
     0
 74
     0
 46
0.0
  0
MTEXT
  5
296
330
2
100
AcDbEntity
  8
0
100
AcDbMText
 10
20899.42751012898
 20
-1686.441309718522
 30
0.0
 40
50.0
 41
354.3465522399347
 46
0.0
 71
     1
 72
     5
  1
0.09mm
  7
TITLE TEXT
 73
     1
 44
1.0
101
Embedded Object
 70
     1
 10
1.0
 20
0.0
 30
0.0
 11
20899.42751012898
 21
-1686.441309718522
 31
0.0
 40
354.3465522399347
 41
0.0
 42
257.92
 43
51.06666666666667
 71
     2
 72
     1
 44
354.3465522399347
 45
250.0
 73
     0
 74
     0
 46
0.0
  0
MTEXT
  5
297
330
2
100
AcDbEntity
  8
0
100
AcDbMText
 10
20899.42751012898
 20
-1431.000250132861
 30
0.0
 40
50.0
 41
354.3465522399347
 46
0.0
 71
     1
 72
     5
  1
0.09mm
  7
TITLE TEXT
 73
     1
 44
1.0
101
Embedded Object
 70
     1
 10
1.0
 20
0.0
 30
0.0
 11
20899.42751012898
 21
-1431.000250132861
 31
0.0
 40
354.3465522399347
 41
0.0
 42
257.92
 43
51.06666666666667
 71
     2
 72
     1
 44
354.3465522399347
 45
250.0
 73
     0
 74
     0
 46
0.0
  0
MTEXT
  5
298
330
2
100
AcDbEntity
  8
0
100
AcDbMText
 10
20899.42751012898
 20
-1179.000250132861
 30
0.0
 40
50.0
 41
354.3465522399347
 46
0.0
 71
     1
 72
     5
  1
0.09mm
  7
TITLE TEXT
 73
     1
 44
1.0
101
Embedded Object
 70
     1
 10
1.0
 20
0.0
 30
0.0
 11
20899.42751012898
 21
-1179.000250132861
 31
0.0
 40
354.3465522399347
 41
0.0
 42
257.92
 43
51.06666666666667
 71
     2
 72
     1
 44
354.3465522399347
 45
250.0
 73
     0
 74
     0
 46
0.0
  0
MTEXT
  5
299
330
2
100
AcDbEntity
  8
0
100
AcDbMText
 10
20899.42751012898
 20
-927.0002501328608
 30
0.0
 40
50.0
 41
354.3465522399347
 46
0.0
 71
     1
 72
     5
  1
0.09mm
  7
TITLE TEXT
 73
     1
 44
1.0
101
Embedded Object
 70
     1
 10
1.0
 20
0.0
 30
0.0
 11
20899.42751012898
 21
-927.0002501328608
 31
0.0
 40
354.3465522399347
 41
0.0
 42
257.92
 43
51.06666666666667
 71
     2
 72
     1
 44
354.3465522399347
 45
250.0
 73
     0
 74
     0
 46
0.0
  0
MTEXT
  5
29A
330
2
100
AcDbEntity
  8
0
100
AcDbMText
 10
20899.42751012898
 20
-675.0002501328609
 30
0.0
 40
50.0
 41
354.3465522399347
 46
0.0
 71
     1
 72
     5
  1
0.09mm
  7
TITLE TEXT
 73
     1
 44
1.0
101
Embedded Object
 70
     1
 10
1.0
 20
0.0
 30
0.0
 11
20899.42751012898
 21
-675.0002501328609
 31
0.0
 40
354.3465522399347
 41
0.0
 42
257.92
 43
51.06666666666667
 71
     2
 72
     1
 44
354.3465522399347
 45
250.0
 73
     0
 74
     0
 46
0.0
  0
MTEXT
  5
29B
330
2
100
AcDbEntity
  8
0
100
AcDbMText
 10
20899.42751012898
 20
-423.0002501328608
 30
0.0
 40
50.0
 41
354.3465522399347
 46
0.0
 71
     1
 72
     5
  1
0.09mm
  7
TITLE TEXT
 73
     1
 44
1.0
101
Embedded Object
 70
     1
 10
1.0
 20
0.0
 30
0.0
 11
20899.42751012898
 21
-423.0002501328608
 31
0.0
 40
354.3465522399347
 41
0.0
 42
257.92
 43
51.06666666666667
 71
     2
 72
     1
 44
354.3465522399347
 45
250.0
 73
     0
 74
     0
 46
0.0
  0
MTEXT
  5
29C
330
2
100
AcDbEntity
  8
0
100
AcDbMText
 10
15488.94949614059
 20
-3233.416516707269
 30
0.0
 40
50.0
 41
354.3465522399347
 46
0.0
 71
     1
 72
     5
  1
0.1mm
  7
TITLE TEXT
 73
     1
 44
1.0
101
Embedded Object
 70
     1
 10
1.0
 20
0.0
 30
0.0
 11
15488.94949614059
 21
-3233.416516707269
 31
0.0
 40
354.3465522399347
 41
0.0
 42
217.44
 43
51.06666666666667
 71
     2
 72
     1
 44
354.3465522399347
 45
250.0
 73
     0
 74
     0
 46
0.0
  0
MTEXT
  5
29D
330
2
100
AcDbEntity
  8
0
100
AcDbMText
 10
15488.94949614059
 20
-2833.416516707269
 30
0.0
 40
50.0
 41
354.3465522399347
 46
0.0
 71
     1
 72
     5
  1
0.1mm
  7
TITLE TEXT
 73
     1
 44
1.0
101
Embedded Object
 70
     1
 10
1.0
 20
0.0
 30
0.0
 11
15488.94949614059
 21
-2833.416516707269
 31
0.0
 40
354.3465522399347
 41
0.0
 42
217.44
 43
51.06666666666667
 71
     2
 72
     1
 44
354.3465522399347
 45
250.0
 73
     0
 74
     0
 46
0.0
  0
MTEXT
  5
29E
330
2
100
AcDbEntity
  8
0
100
AcDbMText
 10
15488.94949614059
 20
-2633.416516707269
 30
0.0
 40
50.0
 41
354.3465522399347
 46
0.0
 71
     1
 72
     5
  1
0.1mm
  7
TITLE TEXT
 73
     1
 44
1.0
101
Embedded Object
 70
     1
 10
1.0
 20
0.0
 30
0.0
 11
15488.94949614059
 21
-2633.416516707269
 31
0.0
 40
354.3465522399347
 41
0.0
 42
217.44
 43
51.06666666666667
 71
     2
 72
     1
 44
354.3465522399347
 45
250.0
 73
     0
 74
     0
 46
0.0
  0
MTEXT
  5
29F
330
2
100
AcDbEntity
  8
0
100
AcDbMText
 10
15488.94949614059
 20
-2433.416516707269
 30
0.0
 40
50.0
 41
354.3465522399347
 46
0.0
 71
     1
 72
     5
  1
0.1mm
  7
TITLE TEXT
 73
     1
 44
1.0
101
Embedded Object
 70
     1
 10
1.0
 20
0.0
 30
0.0
 11
15488.94949614059
 21
-2433.416516707269
 31
0.0
 40
354.3465522399347
 41
0.0
 42
217.44
 43
51.06666666666667
 71
     2
 72
     1
 44
354.3465522399347
 45
250.0
 73
     0
 74
     0
 46
0.0
  0
MTEXT
  5
2A0
330
2
100
AcDbEntity
  8
0
100
AcDbMText
 10
15488.94949614059
 20
-2233.416516707269
 30
0.0
 40
50.0
 41
354.3465522399347
 46
0.0
 71
     1
 72
     5
  1
0.1mm
  7
TITLE TEXT
 73
     1
 44
1.0
101
Embedded Object
 70
     1
 10
1.0
 20
0.0
 30
0.0
 11
15488.94949614059
 21
-2233.416516707269
 31
0.0
 40
354.3465522399347
 41
0.0
 42
217.44
 43
51.06666666666667
 71
     2
 72
     1
 44
354.3465522399347
 45
250.0
 73
     0
 74
     0
 46
0.0
  0
MTEXT
  5
2A1
330
2
100
AcDbEntity
  8
0
100
AcDbMText
 10
15488.94949614059
 20
-2033.416516707269
 30
0.0
 40
50.0
 41
354.3465522399347
 46
0.0
 71
     1
 72
     5
  1
0.1mm
  7
TITLE TEXT
 73
     1
 44
1.0
101
Embedded Object
 70
     1
 10
1.0
 20
0.0
 30
0.0
 11
15488.94949614059
 21
-2033.416516707269
 31
0.0
 40
354.3465522399347
 41
0.0
 42
217.44
 43
51.06666666666667
 71
     2
 72
     1
 44
354.3465522399347
 45
250.0
 73
     0
 74
     0
 46
0.0
  0
MTEXT
  5
2A2
330
2
100
AcDbEntity
  8
0
100
AcDbMText
 10
15488.94949614059
 20
-1833.416516707268
 30
0.0
 40
50.0
 41
354.3465522399347
 46
0.0
 71
     1
 72
     5
  1
0.1mm
  7
TITLE TEXT
 73
     1
 44
1.0
101
Embedded Object
 70
     1
 10
1.0
 20
0.0
 30
0.0
 11
15488.94949614059
 21
-1833.416516707268
 31
0.0
 40
354.3465522399347
 41
0.0
 42
217.44
 43
51.06666666666667
 71
     2
 72
     1
 44
354.3465522399347
 45
250.0
 73
     0
 74
     0
 46
0.0
  0
MTEXT
  5
2A3
330
2
100
AcDbEntity
  8
0
100
AcDbMText
 10
15488.94949614059
 20
-1633.416516707268
 30
0.0
 40
50.0
 41
354.3465522399347
 46
0.0
 71
     1
 72
     5
  1
0.1mm
  7
TITLE TEXT
 73
     1
 44
1.0
101
Embedded Object
 70
     1
 10
1.0
 20
0.0
 30
0.0
 11
15488.94949614059
 21
-1633.416516707268
 31
0.0
 40
354.3465522399347
 41
0.0
 42
217.44
 43
51.06666666666667
 71
     2
 72
     1
 44
354.3465522399347
 45
250.0
 73
     0
 74
     0
 46
0.0
  0
MTEXT
  5
2A4
330
2
100
AcDbEntity
  8
0
100
AcDbMText
 10
15488.94949614059
 20
-1233.416516707269
 30
0.0
 40
50.0
 41
354.3465522399347
 46
0.0
 71
     1
 72
     5
  1
0.1mm
  7
TITLE TEXT
 73
     1
 44
1.0
101
Embedded Object
 70
     1
 10
1.0
 20
0.0
 30
0.0
 11
15488.94949614059
 21
-1233.416516707269
 31
0.0
 40
354.3465522399347
 41
0.0
 42
217.44
 43
51.06666666666667
 71
     2
 72
     1
 44
354.3465522399347
 45
250.0
 73
     0
 74
     0
 46
0.0
  0
MTEXT
  5
2A5
330
2
100
AcDbEntity
  8
0
100
AcDbMText
 10
15488.94949614059
 20
-1033.416516707269
 30
0.0
 40
50.0
 41
354.3465522399347
 46
0.0
 71
     1
 72
     5
  1
0.1mm
  7
TITLE TEXT
 73
     1
 44
1.0
101
Embedded Object
 70
     1
 10
1.0
 20
0.0
 30
0.0
 11
15488.94949614059
 21
-1033.416516707269
 31
0.0
 40
354.3465522399347
 41
0.0
 42
217.44
 43
51.06666666666667
 71
     2
 72
     1
 44
354.3465522399347
 45
250.0
 73
     0
 74
     0
 46
0.0
  0
MTEXT
  5
2A6
330
2
100
AcDbEntity
  8
0
100
AcDbMText
 10
15488.94949614059
 20
-633.4165167072687
 30
0.0
 40
50.0
 41
354.3465522399347
 46
0.0
 71
     1
 72
     5
  1
0.1mm
  7
TITLE TEXT
 73
     1
 44
1.0
101
Embedded Object
 70
     1
 10
1.0
 20
0.0
 30
0.0
 11
15488.94949614059
 21
-633.4165167072687
 31
0.0
 40
354.3465522399347
 41
0.0
 42
217.44
 43
51.06666666666667
 71
     2
 72
     1
 44
354.3465522399347
 45
250.0
 73
     0
 74
     0
 46
0.0
  0
MTEXT
  5
2A7
330
2
100
AcDbEntity
  8
0
100
AcDbMText
 10
15488.94949614059
 20
-433.4165167072687
 30
0.0
 40
50.0
 41
354.3465522399347
 46
0.0
 71
     1
 72
     5
  1
0.1mm
  7
TITLE TEXT
 73
     1
 44
1.0
101
Embedded Object
 70
     1
 10
1.0
 20
0.0
 30
0.0
 11
15488.94949614059
 21
-433.4165167072687
 31
0.0
 40
354.3465522399347
 41
0.0
 42
217.44
 43
51.06666666666667
 71
     2
 72
     1
 44
354.3465522399347
 45
250.0
 73
     0
 74
     0
 46
0.0
  0
LINE
  5
2A8
330
2
100
AcDbEntity
  8
ACMV- CHWS TEXT
100
AcDbLine
 10
13649.88024778597
 20
-857.5205063271905
 30
0.0
 11
14675.58024367856
 21
-857.5205063271905
 31
0.0
  0
MTEXT
  5
2A9
330
2
100
AcDbEntity
  8
0
100
AcDbMText
 10
12171.69315667069
 20
-833.4165167072688
 30
0.0
 40
50.0
 41
1437.402990375558
 46
0.0
 71
     1
 72
     5
  1
ACMV- CHWS TEXT
  7
TITLE TEXT
 73
     1
 44
1.0
101
Embedded Object
 70
     1
 10
1.0
 20
0.0
 30
0.0
 11
12171.69315667069
 21
-833.4165167072688
 31
0.0
 40
1437.402990375558
 41
0.0
 42
657.9199999999998
 43
52.26666666666666
 71
     2
 72
     1
 44
1437.402990375558
 45
250.0
 73
     0
 74
     0
 46
0.0
  0
MTEXT
  5
2AA
330
2
100
AcDbEntity
  8
0
100
AcDbMText
 10
14896.46992475214
 20
-833.4165167072688
 30
0.0
 40
50.0
 41
354.3465522399347
 46
0.0
 71
     1
 72
     5
  1
71
  7
TITLE TEXT
 73
     1
 44
1.0
101
Embedded Object
 70
     1
 10
1.0
 20
0.0
 30
0.0
 11
14896.46992475214
 21
-833.4165167072688
 31
0.0
 40
354.3465522399347
 41
0.0
 42
62.39999999999999
 43
50.0
 71
     2
 72
     1
 44
354.3465522399347
 45
250.0
 73
     0
 74
     0
 46
0.0
  0
MTEXT
  5
2AB
330
2
100
AcDbEntity
  8
0
100
AcDbMText
 10
15488.94949614059
 20
-833.4165167072688
 30
0.0
 40
50.0
 41
354.3465522399347
 46
0.0
 71
     1
 72
     5
  1
0.1mm
  7
TITLE TEXT
 73
     1
 44
1.0
101
Embedded Object
 70
     1
 10
1.0
 20
0.0
 30
0.0
 11
15488.94949614059
 21
-833.4165167072688
 31
0.0
 40
354.3465522399347
 41
0.0
 42
217.44
 43
51.06666666666667
 71
     2
 72
     1
 44
354.3465522399347
 45
250.0
 73
     0
 74
     0
 46
0.0
  0
LINE
  5
2AC
330
2
100
AcDbEntity
  8
ACMV- CWR TEXT
100
AcDbLine
 10
13649.88024778597
 20
-1457.52050632719
 30
0.0
 11
14675.58024367856
 21
-1457.52050632719
 31
0.0
  0
MTEXT
  5
2AD
330
2
100
AcDbEntity
  8
0
100
AcDbMText
 10
12171.69315667069
 20
-1433.416516707269
 30
0.0
 40
50.0
 41
1437.402990375558
 46
0.0
 71
     1
 72
     5
  1
ACMV- CWR TEXT
  7
TITLE TEXT
 73
     1
 44
1.0
101
Embedded Object
 70
     1
 10
1.0
 20
0.0
 30
0.0
 11
12171.69315667069
 21
-1433.416516707269
 31
0.0
 40
1437.402990375558
 41
0.0
 42
612.8
 43
52.26666666666666
 71
     2
 72
     1
 44
1437.402990375558
 45
250.0
 73
     0
 74
     0
 46
0.0
  0
MTEXT
  5
2AE
330
2
100
AcDbEntity
  8
0
100
AcDbMText
 10
14896.46992475214
 20
-1433.416516707269
 30
0.0
 40
50.0
 41
354.3465522399347
 46
0.0
 71
     1
 72
     5
  1
93
  7
TITLE TEXT
 73
     1
 44
1.0
101
Embedded Object
 70
     1
 10
1.0
 20
0.0
 30
0.0
 11
14896.46992475214
 21
-1433.416516707269
 31
0.0
 40
354.3465522399347
 41
0.0
 42
72.8
 43
51.06666666666667
 71
     2
 72
     1
 44
354.3465522399347
 45
250.0
 73
     0
 74
     0
 46
0.0
  0
MTEXT
  5
2AF
330
2
100
AcDbEntity
  8
0
100
AcDbMText
 10
15488.94949614059
 20
-1433.416516707269
 30
0.0
 40
50.0
 41
354.3465522399347
 46
0.0
 71
     1
 72
     5
  1
0.1mm
  7
TITLE TEXT
 73
     1
 44
1.0
101
Embedded Object
 70
     1
 10
1.0
 20
0.0
 30
0.0
 11
15488.94949614059
 21
-1433.416516707269
 31
0.0
 40
354.3465522399347
 41
0.0
 42
217.44
 43
51.06666666666667
 71
     2
 72
     1
 44
354.3465522399347
 45
250.0
 73
     0
 74
     0
 46
0.0
  0
LINE
  5
2B0
330
2
100
AcDbEntity
  8
ACMV- SUPPLY AIR DUCT TEXT
100
AcDbLine
 10
13649.88024778597
 20
-3057.520506327191
 30
0.0
 11
14675.58024367856
 21
-3057.520506327191
 31
0.0
  0
MTEXT
  5
2B1
330
2
100
AcDbEntity
  8
0
100
AcDbMText
 10
12171.69315667069
 20
-3033.416516707269
 30
0.0
 40
50.0
 41
1437.402990375558
 46
0.0
 71
     1
 72
     5
  1
ACMV- SUPPLY AIR DUCT TEXT
  7
TITLE TEXT
 73
     1
 44
1.0
101
Embedded Object
 70
     1
 10
1.0
 20
0.0
 30
0.0
 11
12171.69315667069
 21
-3033.416516707269
 31
0.0
 40
1437.402990375558
 41
0.0
 42
1061.76
 43
52.26666666666666
 71
     2
 72
     1
 44
1437.402990375558
 45
250.0
 73
     0
 74
     0
 46
0.0
  0
MTEXT
  5
2B2
330
2
100
AcDbEntity
  8
0
100
AcDbMText
 10
14896.46992475214
 20
-3033.416516707269
 30
0.0
 40
50.0
 41
354.3465522399347
 46
0.0
 71
     1
 72
     5
  1
60
  7
TITLE TEXT
 73
     1
 44
1.0
101
Embedded Object
 70
     1
 10
1.0
 20
0.0
 30
0.0
 11
14896.46992475214
 21
-3033.416516707269
 31
0.0
 40
354.3465522399347
 41
0.0
 42
73.44
 43
51.06666666666667
 71
     2
 72
     1
 44
354.3465522399347
 45
250.0
 73
     0
 74
     0
 46
0.0
  0
MTEXT
  5
2B3
330
2
100
AcDbEntity
  8
0
100
AcDbMText
 10
15488.94949614059
 20
-3033.416516707269
 30
0.0
 40
50.0
 41
354.3465522399347
 46
0.0
 71
     1
 72
     5
  1
0.1mm
  7
TITLE TEXT
 73
     1
 44
1.0
101
Embedded Object
 70
     1
 10
1.0
 20
0.0
 30
0.0
 11
15488.94949614059
 21
-3033.416516707269
 31
0.0
 40
354.3465522399347
 41
0.0
 42
217.44
 43
51.06666666666667
 71
     2
 72
     1
 44
354.3465522399347
 45
250.0
 73
     0
 74
     0
 46
0.0
  0
LINE
  5
2B4
330
2
100
AcDbEntity
  8
ACMV- BASEMENT EXHAUST AIR DUCT TEXT
100
AcDbLine
 10
13649.88024778597
 20
-3457.520506327191
 30
0.0
 11
14675.58024367856
 21
-3457.520506327191
 31
0.0
  0
MTEXT
  5
2B5
330
2
100
AcDbEntity
  8
0
100
AcDbMText
 10
12171.69315667069
 20
-3433.416516707269
 30
0.0
 40
50.0
 41
1437.402990375558
 46
0.0
 71
     1
 72
     5
  1
ACMV- BASEMENT EXHAUST DUCT TEXT
  7
TITLE TEXT
 73
     1
 44
1.0
101
Embedded Object
 70
     1
 10
1.0
 20
0.0
 30
0.0
 11
12171.69315667069
 21
-3433.416516707269
 31
0.0
 40
1437.402990375558
 41
0.0
 42
1376.0
 43
52.26666666666666
 71
     2
 72
     1
 44
1437.402990375558
 45
250.0
 73
     0
 74
     0
 46
0.0
  0
MTEXT
  5
2B6
330
2
100
AcDbEntity
  8
0
100
AcDbMText
 10
14896.46992475214
 20
-3433.416516707269
 30
0.0
 40
50.0
 41
354.3465522399347
 46
0.0
 71
     1
 72
     5
  1
163
  7
TITLE TEXT
 73
     1
 44
1.0
101
Embedded Object
 70
     1
 10
1.0
 20
0.0
 30
0.0
 11
14896.46992475214
 21
-3433.416516707269
 31
0.0
 40
354.3465522399347
 41
0.0
 42
110.88
 43
51.06666666666667
 71
     2
 72
     1
 44
354.3465522399347
 45
250.0
 73
     0
 74
     0
 46
0.0
  0
MTEXT
  5
2B7
330
2
100
AcDbEntity
  8
0
100
AcDbMText
 10
15488.94949614059
 20
-3433.416516707269
 30
0.0
 40
50.0
 41
354.3465522399347
 46
0.0
 71
     1
 72
     5
  1
0.1mm
  7
TITLE TEXT
 73
     1
 44
1.0
101
Embedded Object
 70
     1
 10
1.0
 20
0.0
 30
0.0
 11
15488.94949614059
 21
-3433.416516707269
 31
0.0
 40
354.3465522399347
 41
0.0
 42
217.44
 43
51.06666666666667
 71
     2
 72
     1
 44
354.3465522399347
 45
250.0
 73
     0
 74
     0
 46
0.0
  0
DIMENSION
  5
2B8
330
2
100
AcDbEntity
  8
ACMV-Dim_Duct
100
AcDbDimension
280
     0
  2
*D6
 10
20196.54934228221
 20
-3388.565161649521
 30
0.0
 11
18900.22367641254
 21
-3238.565161649521
 31
0.0
 70
    32
 71
     5
 42
2592.651331739333
 73
     0
 74
     0
 75
     0
  3
1-100 LAYOUT LEADER
100
AcDbAlignedDimension
 13
17603.89801054288
 23
-3512.652387451414
 33
0.0
 14
20196.54934228221
 24
-3457.565161649521
 34
0.0
100
AcDbRotatedDimension
  0
DIMENSION
  5
2B9
330
2
100
AcDbEntity
  8
ACMV-Dim_Duct
100
AcDbDimension
280
     0
  2
*D7
 10
20196.54934228221
 20
-3808.016422879159
 30
0.0
 11
18900.22367641254
 21
-3658.01642287916
 31
0.0
 70
    32
 71
     5
 42
2592.651331739333
 73
     0
 74
     0
 75
     0
  3
1-100 SC
100
AcDbAlignedDimension
 13
17603.89801054288
 23
-3932.103648681053
 33
0.0
 14
20196.54934228221
 24
-3877.01642287916
 34
0.0
100
AcDbRotatedDimension
  0
MTEXT
  5
2BA
330
2
100
AcDbEntity
  8
0
100
AcDbMText
 10
7066.905982274477
 20
-3834.483183373936
 30
0.0
 40
50.0
 41
1437.402990375558
 46
0.0
 71
     1
 72
     5
  1
SILENCER
  7
TITLE TEXT
 73
     1
 44
1.0
101
Embedded Object
 70
     1
 10
1.0
 20
0.0
 30
0.0
 11
7066.905982274477
 21
-3834.483183373936
 31
0.0
 40
1437.402990375558
 41
0.0
 42
336.48
 43
52.26666666666666
 71
     2
 72
     1
 44
1437.402990375558
 45
250.0
 73
     0
 74
     0
 46
0.0
  0
MTEXT
  5
2BB
330
2
100
AcDbEntity
  8
0
100
AcDbMText
 10
9791.682750355921
 20
-3834.483183373936
 30
0.0
 40
50.0
 41
354.3465522399347
 46
0.0
 71
     1
 72
     5
  1
251
  7
TITLE TEXT
 73
     1
 44
1.0
101
Embedded Object
 70
     1
 10
1.0
 20
0.0
 30
0.0
 11
9791.682750355921
 21
-3834.483183373936
 31
0.0
 40
354.3465522399347
 41
0.0
 42
102.88
 43
51.06666666666667
 71
     2
 72
     1
 44
354.3465522399347
 45
250.0
 73
     0
 74
     0
 46
0.0
  0
MTEXT
  5
2BC
330
2
100
AcDbEntity
  8
0
100
AcDbMText
 10
10384.16232174437
 20
-3834.483183373936
 30
0.0
 40
50.0
 41
354.3465522399347
 46
0.0
 71
     1
 72
     5
  1
0.1mm
  7
TITLE TEXT
 73
     1
 44
1.0
101
Embedded Object
 70
     1
 10
1.0
 20
0.0
 30
0.0
 11
10384.16232174437
 21
-3834.483183373936
 31
0.0
 40
354.3465522399347
 41
0.0
 42
217.44
 43
51.06666666666667
 71
     2
 72
     1
 44
354.3465522399347
 45
250.0
 73
     0
 74
     0
 46
0.0
  0
LINE
  5
2BD
330
2
100
AcDbEntity
  8
ACMV- EQUALIZED PIPE
100
AcDbLine
 10
8545.093073389756
 20
-1858.587172993857
 30
0.0
 11
9570.793069282345
 21
-1858.587172993857
 31
0.0
  0
MTEXT
  5
2BE
330
2
100
AcDbEntity
  8
0
100
AcDbMText
 10
7066.905982274477
 20
-1834.483183373935
 30
0.0
 40
50.0
 41
1437.402990375558
 46
0.0
 71
     1
 72
     5
  1
ACMV- EQUALIZED PIPE
  7
TITLE TEXT
 73
     1
 44
1.0
101
Embedded Object
 70
     1
 10
1.0
 20
0.0
 30
0.0
 11
7066.905982274477
 21
-1834.483183373935
 31
0.0
 40
1437.402990375558
 41
0.0
 42
813.7599999999999
 43
53.33333333333333
 71
     2
 72
     1
 44
1437.402990375558
 45
250.0
 73
     0
 74
     0
 46
0.0
  0
MTEXT
  5
2BF
330
2
100
AcDbEntity
  8
0
100
AcDbMText
 10
9791.682750355921
 20
-1834.483183373935
 30
0.0
 40
50.0
 41
354.3465522399347
 46
0.0
 71
     1
 72
     5
  1
173
  7
TITLE TEXT
 73
     1
 44
1.0
101
Embedded Object
 70
     1
 10
1.0
 20
0.0
 30
0.0
 11
9791.682750355921
 21
-1834.483183373935
 31
0.0
 40
354.3465522399347
 41
0.0
 42
110.88
 43
51.06666666666667
 71
     2
 72
     1
 44
354.3465522399347
 45
250.0
 73
     0
 74
     0
 46
0.0
  0
MTEXT
  5
2C0
330
2
100
AcDbEntity
  8
0
100
AcDbMText
 10
10384.16232174437
 20
-1834.483183373935
 30
0.0
 40
50.0
 41
354.3465522399347
 46
0.0
 71
     1
 72
     5
  1
0.2mm
  7
TITLE TEXT
 73
     1
 44
1.0
101
Embedded Object
 70
     1
 10
1.0
 20
0.0
 30
0.0
 11
10384.16232174437
 21
-1834.483183373935
 31
0.0
 40
354.3465522399347
 41
0.0
 42
217.44
 43
51.06666666666667
 71
     2
 72
     1
 44
354.3465522399347
 45
250.0
 73
     0
 74
     0
 46
0.0
  0
ARC
  5
30E
330
2
100
AcDbEntity
  8
0
  6
ByBlock
100
AcDbCircle
 10
-526.5036020585048
 20
-70.42408325988708
 30
0.0
 40
125.0
100
AcDbArc
 50
197.2175114318003
 51
342.7824885681996
  0
CIRCLE
  5
312
330
2
100
AcDbEntity
  8
0
  6
ByBlock
100
AcDbCircle
 10
-507.0036020585048
 20
25.46464921812822
 30
0.0
 40
2.1
  0
CIRCLE
  5
313
330
2
100
AcDbEntity
  8
0
  6
ByBlock
100
AcDbCircle
 10
-546.0036020585048
 20
25.46464921812822
 30
0.0
 40
2.1
  0
CIRCLE
  5
316
330
2
100
AcDbEntity
  8
0
  6
ByBlock
100
AcDbCircle
 10
-507.0036020585048
 20
-166.3128157379024
 30
0.0
 40
2.1
  0
CIRCLE
  5
317
330
2
100
AcDbEntity
  8
0
  6
ByBlock
100
AcDbCircle
 10
-546.0036020585048
 20
-166.3128157379024
 30
0.0
 40
2.1
  0
CIRCLE
  5
34E
330
2
100
AcDbEntity
  8
0
  6
ByBlock
100
AcDbCircle
 10
-599.5036020585048
 20
-62.42408325988709
 30
0.0
 40
1.5
  0
CIRCLE
  5
34F
330
2
100
AcDbEntity
  8
0
  6
ByBlock
100
AcDbCircle
 10
-599.5036020585048
 20
-78.42408325988708
 30
0.0
 40
1.5
  0
CIRCLE
  5
350
330
2
100
AcDbEntity
  8
0
  6
ByBlock
100
AcDbCircle
 10
-585.5036020585048
 20
-62.42408325988709
 30
0.0
 40
1.5
  0
CIRCLE
  5
351
330
2
100
AcDbEntity
  8
0
  6
ByBlock
100
AcDbCircle
 10
-585.5036020585048
 20
-78.42408325988708
 30
0.0
 40
1.5
  0
CIRCLE
  5
3B1
330
2
100
AcDbEntity
  8
0
  6
ByBlock
100
AcDbCircle
 10
-552.3178210648421
 20
-115.1173960045325
 30
0.0
 40
7.786574145135091
  0
CIRCLE
  5
3B2
330
2
100
AcDbEntity
  8
0
  6
ByBlock
100
AcDbCircle
 10
-500.6893830521676
 20
-115.1173960045325
 30
0.0
 40
7.786574145135091
  0
LINE
  5
3B4
330
2
100
AcDbEntity
  8
0
  6
ByBlock
100
AcDbLine
 10
-606.5036020585048
 20
-33.42408325988709
 30
0.0
 11
-645.9020945112992
 21
-33.42408325988709
 31
0.0
  0
LINE
  5
3B5
330
2
100
AcDbEntity
  8
0
  6
ByBlock
100
AcDbLine
 10
-551.1162904032434
 20
-107.4240832598871
 30
0.0
 11
-553.5193517264408
 21
-107.4240832598871
 31
0.0
  0
LINE
  5
3B7
330
2
100
AcDbEntity
  8
0
  6
ByBlock
100
AcDbLine
 10
-606.5036020585048
 20
-107.4240832598871
 30
0.0
 11
-606.5036020585048
 21
-33.42408325988709
 31
0.0
  0
LINE
  5
3B8
330
2
100
AcDbEntity
  8
0
  6
ByBlock
100
AcDbLine
 10
-606.5036020585048
 20
-107.4240832598871
 30
0.0
 11
-645.9020945112992
 21
-107.4240832598871
 31
0.0
  0
LINE
  5
3B9
330
2
100
AcDbEntity
  8
0
  6
ByBlock
100
AcDbLine
 10
-446.5036020585048
 20
-107.4240832598871
 30
0.0
 11
-446.5036020585048
 21
-33.42408325988709
 31
0.0
  0
LINE
  5
3BA
330
2
100
AcDbEntity
  8
0
  6
ByBlock
100
AcDbLine
 10
-446.5036020585048
 20
-33.42408325988709
 30
0.0
 11
-407.1051096057105
 21
-33.42408325988709
 31
0.0
  0
LINE
  5
3BB
330
2
100
AcDbEntity
  8
0
  6
ByBlock
100
AcDbLine
 10
-446.5036020585048
 20
-107.4240832598871
 30
0.0
 11
-407.1051096057105
 21
-107.4240832598871
 31
0.0
  0
ARC
  5
3BC
330
2
100
AcDbEntity
  8
0
  6
ByBlock
100
AcDbCircle
 10
-526.5036020585048
 20
-70.42408325988708
 30
0.0
 40
125.0
100
AcDbArc
 50
17.21751143180035
 51
162.7824885681996
  0
CIRCLE
  5
3BD
330
2
100
AcDbEntity
  8
0
  6
ByBlock
100
AcDbCircle
 10
-584.5036020585048
 20
24.57591674011293
 30
0.0
 40
1.5
  0
CIRCLE
  5
3BE
330
2
100
AcDbEntity
  8
0
  6
ByBlock
100
AcDbCircle
 10
-468.5036020585049
 20
24.57591674011293
 30
0.0
 40
1.5
  0
CIRCLE
  5
3C1
330
2
100
AcDbEntity
  8
0
  6
ByBlock
100
AcDbCircle
 10
-584.5036020585048
 20
-165.4240832598871
 30
0.0
 40
1.5
  0
CIRCLE
  5
3C2
330
2
100
AcDbEntity
  8
0
  6
ByBlock
100
AcDbCircle
 10
-468.5036020585049
 20
-165.4240832598871
 30
0.0
 40
1.5
  0
CIRCLE
  5
3C6
330
2
100
AcDbEntity
  8
0
  6
ByBlock
100
AcDbCircle
 10
-453.5036020585048
 20
-62.42408325988709
 30
0.0
 40
1.5
  0
CIRCLE
  5
3C7
330
2
100
AcDbEntity
  8
0
  6
ByBlock
100
AcDbCircle
 10
-453.5036020585048
 20
-78.42408325988708
 30
0.0
 40
1.5
  0
CIRCLE
  5
3C8
330
2
100
AcDbEntity
  8
0
  6
ByBlock
100
AcDbCircle
 10
-467.5036020585048
 20
-62.42408325988709
 30
0.0
 40
1.5
  0
CIRCLE
  5
3C9
330
2
100
AcDbEntity
  8
0
  6
ByBlock
100
AcDbCircle
 10
-467.5036020585048
 20
-78.42408325988708
 30
0.0
 40
1.5
  0
ENDSEC
  0
SECTION
  2
OBJECTS
  0
DICTIONARY
  5
9
330
0
100
AcDbDictionary
281
     1
  3
ACAD_CIP_PREVIOUS_PRODUCT_INFO
350
D9
  3
ACAD_COLOR
350
2C
  3
ACAD_DETAILVIEWSTYLE
350
D5
  3
ACAD_GROUP
350
27
  3
ACAD_LAYOUT
350
F
  3
ACAD_MATERIAL
350
B
  3
ACAD_MLEADERSTYLE
350
2F
  3
ACAD_MLINESTYLE
350
28
  3
ACAD_PLOTSETTINGS
350
29
  3
ACAD_PLOTSTYLENAME
350
8
  3
ACAD_SCALELIST
350
2D
  3
ACAD_SECTIONVIEWSTYLE
350
D3
  3
ACAD_TABLESTYLE
350
2E
  3
ACAD_VISUALSTYLE
350
21
  3
ACDB_RECOMPOSE_DATA
350
466
  3
AcDbVariableDictionary
350
30
  0
DICTIONARY
  5
14C
330
14
100
AcDbDictionary
280
     1
281
     1
  3
ACAD_LAYERSTATES
360
14D
  0
DICTIONARY
  5
3
330
2
100
AcDbDictionary
280
     1
281
     1
  3
ACAD_SORTENTS
360
B7
  0
XRECORD
  5
D9
102
{ACAD_REACTORS
330
9
102
}
330
9
100
AcDbXrecord
280
     1
300
ACD
300
2021
300

  0
DICTIONARY
  5
2C
102
{ACAD_REACTORS
330
9
102
}
330
9
100
AcDbDictionary
281
     1
  0
DICTIONARY
  5
D5
102
{ACAD_REACTORS
330
9
102
}
330
9
100
AcDbDictionary
281
     1
  3
Imperial24
350
D6
  3
Metric50
350
14F
  0
DICTIONARY
  5
27
102
{ACAD_REACTORS
330
9
102
}
330
9
100
AcDbDictionary
281
     1
  0
DICTIONARY
  5
F
102
{ACAD_REACTORS
330
9
102
}
330
9
100
AcDbDictionary
281
     1
  3
Layout1
350
13
  3
Model
350
E
  0
DICTIONARY
  5
B
102
{ACAD_REACTORS
330
9
102
}
330
9
100
AcDbDictionary
281
     1
  3
ByBlock
350
2B
  3
ByLayer
350
2A
  3
Global
350
A
  0
DICTIONARY
  5
2F
102
{ACAD_REACTORS
330
9
102
}
330
9
100
AcDbDictionary
281
     1
  3
Standard
350
D2
  0
DICTIONARY
  5
28
102
{ACAD_REACTORS
330
9
102
}
330
9
100
AcDbDictionary
281
     1
  3
Standard
350
37
  0
DICTIONARY
  5
29
102
{ACAD_REACTORS
330
9
102
}
330
9
100
AcDbDictionary
281
     1
  0
ACDBDICTIONARYWDFLT
  5
8
102
{ACAD_REACTORS
330
9
102
}
330
9
100
AcDbDictionary
281
     1
  3
Normal
350
7
100
AcDbDictionaryWithDefault
340
7
  0
DICTIONARY
  5
2D
102
{ACAD_REACTORS
330
9
102
}
330
9
100
AcDbDictionary
281
     1
  3
A0
350
3B
  3
A1
350
3C
  3
A2
350
3D
  3
A3
350
3E
  3
A4
350
3F
  3
A5
350
40
  3
A6
350
41
  3
A7
350
42
  3
A8
350
43
  3
A9
350
44
  3
B1
350
45
  3
B2
350
46
  3
B3
350
47
  3
B4
350
48
  3
B5
350
49
  3
B6
350
4A
  3
B7
350
4B
  0
DICTIONARY
  5
D3
102
{ACAD_REACTORS
330
9
102
}
330
9
100
AcDbDictionary
281
     1
  3
Imperial24
350
D4
  3
Metric50
350
14E
  0
DICTIONARY
  5
2E
102
{ACAD_REACTORS
330
9
102
}
330
9
100
AcDbDictionary
281
     1
  3
Standard
350
38
  0
DICTIONARY
  5
21
102
{ACAD_REACTORS
330
9
102
}
330
9
100
AcDbDictionary
281
     1
  3
2dWireframe
350
20
  3
Basic
350
C1
  3
Brighten
350
C5
  3
ColorChange
350
C9
  3
Conceptual
350
C3
  3
Dim
350
C4
  3
EdgeColorOff
350
D1
  3
Facepattern
350
C8
  3
Flat
350
BD
  3
FlatWithEdges
350
BE
  3
Gouraud
350
BF
  3
GouraudWithEdges
350
C0
  3
Hidden
350
C2
  3
JitterOff
350
CF
  3
Linepattern
350
C7
  3
OverhangOff
350
D0
  3
Realistic
350
39
  3
Shaded
350
CE
  3
Shaded with edges
350
CD
  3
Shades of Gray
350
CA
  3
Sketchy
350
CB
  3
Thicken
350
C6
  3
Wireframe
350
3A
  3
X-Ray
350
CC
  0
XRECORD
  5
466
102
{ACAD_REACTORS
330
9
102
}
330
9
100
AcDbXrecord
280
     1
 90
        1
330
38
  0
DICTIONARY
  5
30
102
{ACAD_REACTORS
330
9
102
}
330
9
100
AcDbDictionary
281
     1
  3
CANNOSCALE
350
31
  3
CMLEADERSTYLE
350
32
  3
CTABLESTYLE
350
33
  3
CVIEWDETAILSTYLE
350
34
  3
CVIEWSECTIONSTYLE
350
35
  3
MSLTSCALE
350
36
  0
DICTIONARY
  5
14D
102
{ACAD_REACTORS
330
14C
102
}
330
14C
100
AcDbDictionary
281
     1
  0
SORTENTSTABLE
  5
B7
102
{ACAD_REACTORS
330
3
102
}
330
3
100
AcDbSortentsTable
330
2
331
312
  5
313
331
313
  5
316
331
316
  5
317
331
317
  5
34F
331
34E
  5
351
331
34F
  5
354
331
350
  5
355
331
351
  5
356
331
3B1
  5
3B5
331
3B2
  5
3B6
331
3B4
  5
3B7
331
3B5
  5
3B8
331
3B7
  5
350
331
3B8
  5
3B9
331
3B9
  5
3BA
331
3BA
  5
3BB
331
3BB
  5
3BC
331
3BC
  5
30F
  0
ACDBDETAILVIEWSTYLE
  5
D6
102
{ACAD_REACTORS
330
D5
102
}
330
D5
100
AcDbModelDocViewStyle
 70
     0
  3
Imperial24
290
     1
300
Imperial24
 90
        0
100
AcDbDetailViewStyle
 70
     0
 71
     0
 90
        3
 71
     1
340
16
 62
   256
 40
0.24
340
0
 62
   256
 40
0.24
300

 40
0.36
280
     3
 71
     2
340
C
 90
       25
 62
   256
 71
     3
340
16
 62
   256
 40
0.24
 90
        1
 40
0.75
 90
        1
300
%<\AcVar ViewType \f "%tc1">% %<\AcVar ViewDetailId>%\PSCALE %<\AcVar ViewScale \f "%sn">%
 71
     4
340
C
 90
       25
 62
   256
340
C
 90
       25
 62
   256
280
     0
  0
ACDBDETAILVIEWSTYLE
  5
14F
102
{ACAD_REACTORS
330
D5
102
}
330
D5
100
AcDbModelDocViewStyle
 70
     0
  3
Metric50
290
     0
300
Metric50
 90
        0
100
AcDbDetailViewStyle
 70
     0
 71
     0
 90
        3
 71
     1
340
16
 62
   256
 40
5.0
340
0
 62
   256
 40
5.0
300

 40
0.0
280
     1
 71
     2
340
C
 90
       25
 62
   256
 71
     3
340
16
 62
   256
 40
5.0
 90
        0
 40
15.0
 90
        1
300
%<\AcVar ViewDetailId>% (%<\AcVar ViewScale \f "%sn">%)
 71
     4
340
C
 90
       25
 62
   256
340
C
 90
       25
 62
   256
280
     0
  0
LAYOUT
  5
13
102
{ACAD_REACTORS
330
F
102
}
330
F
100
AcDbPlotSettings
  1

  2
none_device
  4

  6

 40
0.0
 41
0.0
 42
0.0
 43
0.0
 44
0.0
 45
0.0
 46
0.0
 47
0.0
 48
0.0
 49
0.0
140
0.0
141
0.0
142
1.0
143
1.0
 70
   688
 72
     0
 73
     0
 74
     5
  7

 75
    16
147
1.0
 76
     0
 77
     2
 78
   300
148
0.0
149
0.0
100
AcDbLayout
  1
Layout1
 70
     1
 71
     1
 10
0.0
 20
0.0
 11
12.0
 21
9.0
 12
0.0
 22
0.0
 32
0.0
 14
1.000000000000000E+20
 24
1.000000000000000E+20
 34
1.000000000000000E+20
 15
-1.000000000000000E+20
 25
-1.000000000000000E+20
 35
-1.000000000000000E+20
146
0.0
 13
0.0
 23
0.0
 33
0.0
 16
1.0
 26
0.0
 36
0.0
 17
0.0
 27
1.0
 37
0.0
 76
     0
330
10
  0
LAYOUT
  5
E
102
{ACAD_REACTORS
330
F
102
}
330
F
100
AcDbPlotSettings
  1

  2
none_device
  4
Letter_(8.50_x_11.00_Inches)
  6

 40
6.349999999999998
 41
6.349999999999998
 42
6.350005079999998
 43
6.350005079999998
 44
215.9
 45
279.4
 46
0.0
 47
0.0
 48
0.0
 49
0.0
140
0.0
141
0.0
142
1.0
143
1.0
 70
  1712
 72
     0
 73
     0
 74
     0
  7

 75
     0
147
1.0
 76
     0
 77
     2
 78
   300
148
0.0
149
0.0
100
AcDbLayout
  1
Model
 70
     1
 71
     0
 10
0.0
 20
0.0
 11
12.0
 21
9.0
 12
0.0
 22
0.0
 32
0.0
 14
0.0
 24
0.0
 34
0.0
 15
0.0
 25
0.0
 35
0.0
146
0.0
 13
0.0
 23
0.0
 33
0.0
 16
1.0
 26
0.0
 36
0.0
 17
0.0
 27
1.0
 37
0.0
 76
     0
330
2
331
1F
  0
MATERIAL
  5
2B
102
{ACAD_REACTORS
330
B
102
}
330
B
100
AcDbMaterial
  1
ByBlock
 73
     1
 78
     1
172
     1
176
     1
270
     1
274
     1
  0
MATERIAL
  5
2A
102
{ACAD_REACTORS
330
B
102
}
330
B
100
AcDbMaterial
  1
ByLayer
 73
     1
 78
     1
172
     1
176
     1
270
     1
274
     1
  0
MATERIAL
  5
A
102
{ACAD_REACTORS
330
B
102
}
330
B
100
AcDbMaterial
  1
Global
 73
     1
 78
     1
172
     1
176
     1
270
     1
274
     1
  0
MLEADERSTYLE
  5
D2
102
{ACAD_REACTORS
330
2F
102
}
330
2F
100
AcDbMLeaderStyle
179
     2
170
     2
171
     1
172
     0
 90
        2
 40
0.0
 41
0.0
173
     1
 91
-1056964608
340
1A
 92
       -2
290
     1
 42
0.09
291
     1
 43
0.36
  3
Standard
 44
0.18
300

342
16
174
     1
178
     6
175
     1
176
     0
 93
-1056964608
 45
0.18
292
     0
297
     0
 46
0.18
 94
-1056964608
 47
1.0
 49
1.0
140
1.0
293
     1
141
0.0
294
     1
177
     0
142
1.0
295
     1
296
     0
143
0.125
271
     0
272
     9
273
     9
298
     1
  0
MLINESTYLE
  5
37
102
{ACAD_REACTORS
330
28
102
}
330
28
100
AcDbMlineStyle
  2
STANDARD
 70
     0
  3

 62
   256
 51
90.0
 52
90.0
 71
     2
 49
0.5
 62
   256
  6
BYLAYER
 49
-0.5
 62
   256
  6
BYLAYER
  0
ACDBPLACEHOLDER
  5
7
102
{ACAD_REACTORS
330
8
102
}
330
8
  0
SCALE
  5
3B
102
{ACAD_REACTORS
330
2D
102
}
330
2D
100
AcDbScale
 70
     0
300
1:1
140
1.0
141
1.0
290
     1
  0
SCALE
  5
3C
102
{ACAD_REACTORS
330
2D
102
}
330
2D
100
AcDbScale
 70
     0
300
1/128" = 1'-0"
140
0.0078125
141
12.0
290
     0
  0
SCALE
  5
3D
102
{ACAD_REACTORS
330
2D
102
}
330
2D
100
AcDbScale
 70
     0
300
1/64" = 1'-0"
140
0.015625
141
12.0
290
     0
  0
SCALE
  5
3E
102
{ACAD_REACTORS
330
2D
102
}
330
2D
100
AcDbScale
 70
     0
300
1/32" = 1'-0"
140
0.03125
141
12.0
290
     0
  0
SCALE
  5
3F
102
{ACAD_REACTORS
330
2D
102
}
330
2D
100
AcDbScale
 70
     0
300
1/16" = 1'-0"
140
0.0625
141
12.0
290
     0
  0
SCALE
  5
40
102
{ACAD_REACTORS
330
2D
102
}
330
2D
100
AcDbScale
 70
     0
300
3/32" = 1'-0"
140
0.09375
141
12.0
290
     0
  0
SCALE
  5
41
102
{ACAD_REACTORS
330
2D
102
}
330
2D
100
AcDbScale
 70
     0
300
1/8" = 1'-0"
140
0.125
141
12.0
290
     0
  0
SCALE
  5
42
102
{ACAD_REACTORS
330
2D
102
}
330
2D
100
AcDbScale
 70
     0
300
3/16" = 1'-0"
140
0.1875
141
12.0
290
     0
  0
SCALE
  5
43
102
{ACAD_REACTORS
330
2D
102
}
330
2D
100
AcDbScale
 70
     0
300
1/4" = 1'-0"
140
0.25
141
12.0
290
     0
  0
SCALE
  5
44
102
{ACAD_REACTORS
330
2D
102
}
330
2D
100
AcDbScale
 70
     0
300
3/8" = 1'-0"
140
0.375
141
12.0
290
     0
  0
SCALE
  5
45
102
{ACAD_REACTORS
330
2D
102
}
330
2D
100
AcDbScale
 70
     0
300
1/2" = 1'-0"
140
0.5
141
12.0
290
     0
  0
SCALE
  5
46
102
{ACAD_REACTORS
330
2D
102
}
330
2D
100
AcDbScale
 70
     0
300
3/4" = 1'-0"
140
0.75
141
12.0
290
     0
  0
SCALE
  5
47
102
{ACAD_REACTORS
330
2D
102
}
330
2D
100
AcDbScale
 70
     0
300
1" = 1'-0"
140
1.0
141
12.0
290
     0
  0
SCALE
  5
48
102
{ACAD_REACTORS
330
2D
102
}
330
2D
100
AcDbScale
 70
     0
300
1-1/2" = 1'-0"
140
1.5
141
12.0
290
     0
  0
SCALE
  5
49
102
{ACAD_REACTORS
330
2D
102
}
330
2D
100
AcDbScale
 70
     0
300
3" = 1'-0"
140
3.0
141
12.0
290
     0
  0
SCALE
  5
4A
102
{ACAD_REACTORS
330
2D
102
}
330
2D
100
AcDbScale
 70
     0
300
6" = 1'-0"
140
6.0
141
12.0
290
     0
  0
SCALE
  5
4B
102
{ACAD_REACTORS
330
2D
102
}
330
2D
100
AcDbScale
 70
     0
300
1'-0" = 1'-0"
140
12.0
141
12.0
290
     0
  0
ACDBSECTIONVIEWSTYLE
  5
D4
102
{ACAD_REACTORS
330
D3
102
}
330
D3
100
AcDbModelDocViewStyle
 70
     0
  3
Imperial24
290
     1
300
Imperial24
 90
        0
100
AcDbSectionViewStyle
 70
     0
 71
     0
 90
       78
 71
     1
340
16
 62
   256
 40
0.24
340
0
340
0
 62
   256
 40
0.24
300
I, O, Q, S, X, Z
 40
0.48
 90
        3
 40
0.18
 90
        1
 71
     2
340
C
 90
       25
 62
   256
340
C
 90
       50
 62
   256
 40
0.24
 40
0.0
 40
0.24
 71
     3
340
16
 62
   256
 40
0.24
 90
        1
 40
0.75
 90
        1
300
%<\AcVar ViewType \f "%tc1">% %<\AcVar ViewSectionStartId>%-%<\AcVar ViewSectionEndId>%\PSCALE %<\AcVar ViewScale \f "%sn">%
 71
     4
 62
   256
 62
   257
300
ANSI31
 40
1.0
 90
        0
290
     0
290
     0
 90
        6
 40
0.0
 40
1.570796326794896
 40
0.2617993877991494
 40
1.308996938995747
 40
-0.2617993877991494
 40
1.832595714594046
  0
ACDBSECTIONVIEWSTYLE
  5
14E
102
{ACAD_REACTORS
330
D3
102
}
330
D3
100
AcDbModelDocViewStyle
 70
     0
  3
Metric50
290
     0
300
Metric50
 90
        0
100
AcDbSectionViewStyle
 70
     0
 71
     0
 90
      102
 71
     1
340
16
 62
   256
 40
5.0
340
0
340
0
 62
   256
 40
5.0
300
I, O, Q, S, X, Z
 40
10.0
 90
        0
 40
2.5
 90
        0
 71
     2
340
C
 90
       25
 62
   256
340
C
 90
       50
 62
   256
 40
5.0
 40
2.5
 40
5.0
 71
     3
340
16
 62
   256
 40
5.0
 90
        0
 40
15.0
 90
        1
300
%<\AcVar ViewSectionStartId>%-%<\AcVar ViewSectionEndId>% (%<\AcVar ViewScale \f "%sn">%)
 71
     4
 62
   256
 62
   257
300
ANSI31
 40
1.0
 90
        0
290
     0
290
     0
 90
        6
 40
0.0
 40
1.570796326794896
 40
0.2617993877991494
 40
1.308996938995747
 40
-0.2617993877991494
 40
1.832595714594046
  0
TABLESTYLE
  5
38
102
{ACAD_XDICTIONARY
360
B8
102
}
102
{ACAD_REACTORS
330
2E
102
}
330
2E
100
AcDbTableStyle
280
     0
  3
Standard
 70
     0
 71
     0
 40
0.06
 41
0.06
280
     0
281
     0
  7
STANDARD
140
0.18
170
     2
 62
     0
 63
     7
283
     0
 90
        4
 91
        0
  1

274
    -2
284
     1
 64
     0
275
    -2
285
     1
 65
     0
276
    -2
286
     1
 66
     0
277
    -2
287
     1
 67
     0
278
    -2
288
     1
 68
     0
279
    -2
289
     1
 69
     0
  7
STANDARD
140
0.25
170
     5
 62
     0
 63
     7
283
     0
 90
        4
 91
        0
  1

274
    -2
284
     1
 64
     0
275
    -2
285
     1
 65
     0
276
    -2
286
     1
 66
     0
277
    -2
287
     1
 67
     0
278
    -2
288
     1
 68
     0
279
    -2
289
     1
 69
     0
  7
STANDARD
140
0.18
170
     5
 62
     0
 63
     7
283
     0
 90
        4
 91
        0
  1

274
    -2
284
     1
 64
     0
275
    -2
285
     1
 65
     0
276
    -2
286
     1
 66
     0
277
    -2
287
     1
 67
     0
278
    -2
288
     1
 68
     0
279
    -2
289
     1
 69
     0
  0
VISUALSTYLE
  5
20
102
{ACAD_REACTORS
330
21
102
}
330
21
100
AcDbVisualStyle
  2
2dWireframe
 70
     4
177
     3
291
     0
 70
    58
 90
        0
176
     1
 90
        2
176
     1
 90
        0
176
     1
 90
        0
176
     1
 40
0.6
176
     1
 40
30.0
176
     1
 62
     7
420
 16777215
176
     1
 90
        1
176
     1
 90
        4
176
     1
 62
     7
176
     1
 62
   257
176
     1
 90
        1
176
     1
 90
        1
176
     1
 40
1.0
176
     1
 90
        0
176
     1
 62
   257
176
     1
 40
1.0
176
     1
 90
        1
176
     1
 90
        6
176
     1
 90
        2
176
     1
 62
     7
176
     1
 90
        5
176
     1
 90
        0
176
     1
 90
        0
176
     1
290
     0
176
     1
 90
        1
176
     1
 40
0.0
176
     1
 90
        0
176
     1
290
     1
176
     1
290
     1
176
     1
290
     0
176
     1
290
     0
176
     1
290
     0
176
     1
290
     0
176
     1
290
     0
176
     1
290
     0
176
     1
290
     0
176
     1
 90
       50
176
     1
 40
0.0
176
     1
 40
1.0
176
     1
 90
        0
176
     1
 62
    18
176
     1
 90
       50
176
     1
 90
        3
176
     1
 62
     5
420
      255
176
     1
290
     0
176
     1
 90
       50
176
     1
 90
       50
176
     1
 90
       50
176
     1
290
     0
176
     1
 90
       50
176
     1
 62
   256
176
     0
 40
1.0
176
     0
 90
        2
176
     1
  1
strokes_ogs.tif
176
     1
290
     0
176
     1
 40
1.0
176
     1
 40
1.0
176
     1
  0
VISUALSTYLE
  5
C1
102
{ACAD_REACTORS
330
21
102
}
330
21
100
AcDbVisualStyle
  2
Basic
 70
     7
177
     3
291
     1
 70
    58
 90
        1
176
     1
 90
        0
176
     1
 90
        1
176
     1
 90
        0
176
     1
 40
0.6
176
     1
 40
30.0
176
     1
 62
     7
420
 16777215
176
     1
 90
        0
176
     1
 90
        4
176
     1
 62
     7
176
     1
 62
   257
176
     1
 90
        1
176
     1
 90
        1
176
     1
 40
1.0
176
     1
 90
        8
176
     1
 62
     7
176
     1
 40
1.0
176
     1
 90
        1
176
     1
 90
        6
176
     1
 90
        2
176
     1
 62
     7
176
     1
 90
        5
176
     1
 90
        0
176
     1
 90
        0
176
     1
290
     0
176
     1
 90
        1
176
     1
 40
0.0
176
     1
 90
        0
176
     1
290
     0
176
     1
290
     1
176
     1
290
     1
176
     1
290
     0
176
     1
290
     0
176
     1
290
     0
176
     1
290
     0
176
     1
290
     0
176
     1
290
     0
176
     1
 90
       50
176
     1
 40
0.0
176
     1
 40
1.0
176
     1
 90
        0
176
     1
 62
    18
420
        0
176
     1
 90
       50
176
     1
 90
        3
176
     1
 62
     5
420
      255
176
     1
290
     0
176
     1
 90
       50
176
     1
 90
       50
176
     1
 90
       50
176
     1
290
     0
176
     1
 90
       50
176
     1
 62
   256
176
     0
 40
1.0
176
     0
 90
        2
176
     1
  1
strokes_ogs.tif
176
     1
290
     0
176
     1
 40
1.0
176
     1
 40
1.0
176
     1
  0
VISUALSTYLE
  5
C5
102
{ACAD_REACTORS
330
21
102
}
330
21
100
AcDbVisualStyle
  2
Brighten
 70
    12
177
     3
291
     1
 70
    58
 90
        2
176
     1
 90
        2
176
     1
 90
        0
176
     1
 90
        0
176
     1
 40
0.6
176
     1
 40
30.0
176
     1
 62
     7
420
 16777215
176
     1
 90
        1
176
     1
 90
        4
176
     1
 62
     7
176
     1
 62
   257
176
     1
 90
        1
176
     1
 90
        1
176
     1
 40
1.0
176
     1
 90
        8
176
     1
 62
     7
176
     1
 40
1.0
176
     1
 90
        1
176
     1
 90
        6
176
     1
 90
        2
176
     1
 62
     7
176
     1
 90
        5
176
     1
 90
        0
176
     1
 90
        0
176
     1
290
     0
176
     1
 90
        1
176
     1
 40
50.0
176
     1
 90
        0
176
     1
290
     0
176
     1
290
     1
176
     1
290
     1
176
     1
290
     0
176
     1
290
     0
176
     1
290
     0
176
     1
290
     0
176
     1
290
     0
176
     1
290
     0
176
     1
 90
       50
176
     1
 40
0.0
176
     1
 40
1.0
176
     1
 90
        0
176
     1
 62
    18
420
        0
176
     1
 90
       50
176
     1
 90
        3
176
     1
 62
     5
420
      255
176
     1
290
     0
176
     1
 90
       50
176
     1
 90
       50
176
     1
 90
       50
176
     1
290
     0
176
     1
 90
       50
176
     1
 62
   256
176
     0
 40
1.0
176
     0
 90
        2
176
     1
  1
strokes_ogs.tif
176
     1
290
     0
176
     1
 40
1.0
176
     1
 40
1.0
176
     1
  0
VISUALSTYLE
  5
C9
102
{ACAD_REACTORS
330
21
102
}
330
21
100
AcDbVisualStyle
  2
ColorChange
 70
    16
177
     3
291
     1
 70
    58
 90
        2
176
     1
 90
        2
176
     1
 90
        3
176
     1
 90
        0
176
     1
 40
0.6
176
     1
 40
30.0
176
     1
 62
     8
420
  8421504
176
     1
 90
        1
176
     1
 90
        4
176
     1
 62
     7
176
     1
 62
   257
176
     1
 90
        1
176
     1
 90
        1
176
     1
 40
1.0
176
     1
 90
        8
176
     1
 62
     8
420
  8421504
176
     1
 40
1.0
176
     1
 90
        1
176
     1
 90
        6
176
     1
 90
        2
176
     1
 62
     7
176
     1
 90
        5
176
     1
 90
        0
176
     1
 90
        0
176
     1
290
     0
176
     1
 90
        1
176
     1
 40
0.0
176
     1
 90
        0
176
     1
290
     0
176
     1
290
     1
176
     1
290
     1
176
     1
290
     0
176
     1
290
     0
176
     1
290
     0
176
     1
290
     0
176
     1
290
     0
176
     1
290
     0
176
     1
 90
       50
176
     1
 40
0.0
176
     1
 40
1.0
176
     1
 90
        0
176
     1
 62
    18
420
        0
176
     1
 90
       50
176
     1
 90
        3
176
     1
 62
     5
420
      255
176
     1
290
     0
176
     1
 90
       50
176
     1
 90
       50
176
     1
 90
       50
176
     1
290
     0
176
     1
 90
       50
176
     1
 62
   256
176
     0
 40
1.0
176
     0
 90
        2
176
     1
  1
strokes_ogs.tif
176
     1
290
     0
176
     1
 40
1.0
176
     1
 40
1.0
176
     1
  0
VISUALSTYLE
  5
C3
102
{ACAD_REACTORS
330
21
102
}
330
21
100
AcDbVisualStyle
  2
Conceptual
 70
     9
177
     3
291
     0
 70
    58
 90
        3
176
     1
 90
        2
176
     1
 90
        0
176
     1
 90
        0
176
     1
 40
0.6
176
     1
 40
30.0
176
     1
 62
     7
420
 16777215
176
     1
 90
        2
176
     1
 90
        2
176
     1
 62
     7
176
     1
 62
   257
176
     1
 90
        1
176
     1
 90
        1
176
     1
 40
179.0
176
     1
 90
        8
176
     1
 62
     7
176
     1
 40
1.0
176
     1
 90
        1
176
     1
 90
        6
176
     1
 90
        2
176
     1
 62
     7
176
     1
 90
        3
176
     1
 90
        0
176
     1
 90
        0
176
     1
290
     0
176
     1
 90
        1
176
     1
 40
0.0
176
     1
 90
        0
176
     1
290
     0
176
     1
290
     1
176
     1
290
     1
176
     1
290
     0
176
     1
290
     0
176
     1
290
     0
176
     1
290
     0
176
     1
290
     0
176
     1
290
     0
176
     1
 90
       50
176
     1
 40
0.0
176
     1
 40
1.0
176
     1
 90
        0
176
     1
 62
    18
420
        0
176
     1
 90
       50
176
     1
 90
        3
176
     1
 62
     5
420
      255
176
     1
290
     0
176
     1
 90
       50
176
     1
 90
       50
176
     1
 90
       50
176
     1
290
     0
176
     1
 90
       50
176
     1
 62
   256
176
     0
 40
1.0
176
     0
 90
        2
176
     1
  1
strokes_ogs.tif
176
     1
290
     0
176
     1
 40
1.0
176
     1
 40
1.0
176
     1
  0
VISUALSTYLE
  5
C4
102
{ACAD_REACTORS
330
21
102
}
330
21
100
AcDbVisualStyle
  2
Dim
 70
    11
177
     3
291
     1
 70
    58
 90
        2
176
     1
 90
        2
176
     1
 90
        0
176
     1
 90
        0
176
     1
 40
0.6
176
     1
 40
30.0
176
     1
 62
     7
420
 16777215
176
     1
 90
        1
176
     1
 90
        4
176
     1
 62
     7
176
     1
 62
   257
176
     1
 90
        1
176
     1
 90
        1
176
     1
 40
1.0
176
     1
 90
        8
176
     1
 62
     7
176
     1
 40
1.0
176
     1
 90
        1
176
     1
 90
        6
176
     1
 90
        2
176
     1
 62
     7
176
     1
 90
        5
176
     1
 90
        0
176
     1
 90
        0
176
     1
290
     0
176
     1
 90
        1
176
     1
 40
-50.0
176
     1
 90
        0
176
     1
290
     0
176
     1
290
     1
176
     1
290
     1
176
     1
290
     0
176
     1
290
     0
176
     1
290
     0
176
     1
290
     0
176
     1
290
     0
176
     1
290
     0
176
     1
 90
       50
176
     1
 40
0.0
176
     1
 40
1.0
176
     1
 90
        0
176
     1
 62
    18
420
        0
176
     1
 90
       50
176
     1
 90
        3
176
     1
 62
     5
420
      255
176
     1
290
     0
176
     1
 90
       50
176
     1
 90
       50
176
     1
 90
       50
176
     1
290
     0
176
     1
 90
       50
176
     1
 62
   256
176
     0
 40
1.0
176
     0
 90
        2
176
     1
  1
strokes_ogs.tif
176
     1
290
     0
176
     1
 40
1.0
176
     1
 40
1.0
176
     1
  0
VISUALSTYLE
  5
D1
102
{ACAD_REACTORS
330
21
102
}
330
21
100
AcDbVisualStyle
  2
EdgeColorOff
 70
    22
177
     3
291
     1
 70
    58
 90
        2
176
     0
 90
        2
176
     0
 90
        0
176
     0
 90
        0
176
     0
 40
0.6
176
     0
 40
30.0
176
     0
 62
     7
420
 16777215
176
     0
 90
        1
176
     0
 90
        4
176
     0
 62
     7
176
     0
 62
   257
176
     0
 90
        1
176
     0
 90
        1
176
     0
 40
1.0
176
     0
 90
        8
176
     2
 62
     7
176
     0
 40
1.0
176
     0
 90
        1
176
     0
 90
        6
176
     0
 90
        2
176
     0
 62
     7
176
     0
 90
        5
176
     0
 90
        0
176
     0
 90
        0
176
     0
290
     0
176
     0
 90
        1
176
     0
 40
0.0
176
     0
 90
        0
176
     0
290
     0
176
     0
290
     1
176
     0
290
     1
176
     0
290
     0
176
     0
290
     0
176
     0
290
     0
176
     0
290
     0
176
     0
290
     0
176
     0
290
     0
176
     0
 90
       50
176
     0
 40
0.0
176
     0
 40
1.0
176
     0
 90
        0
176
     0
 62
    18
420
        0
176
     0
 90
       50
176
     0
 90
        3
176
     0
 62
     5
420
      255
176
     0
290
     0
176
     0
 90
       50
176
     0
 90
       50
176
     0
 90
       50
176
     0
290
     0
176
     0
 90
       50
176
     0
 62
   256
176
     0
 40
1.0
176
     0
 90
        2
176
     0
  1
strokes_ogs.tif
176
     0
290
     0
176
     0
 40
1.0
176
     0
 40
1.0
176
     0
  0
VISUALSTYLE
  5
C8
102
{ACAD_REACTORS
330
21
102
}
330
21
100
AcDbVisualStyle
  2
Facepattern
 70
    15
177
     3
291
     1
 70
    58
 90
        2
176
     1
 90
        2
176
     1
 90
        0
176
     1
 90
        0
176
     1
 40
0.6
176
     1
 40
30.0
176
     1
 62
     7
420
 16777215
176
     1
 90
        1
176
     1
 90
        4
176
     1
 62
     7
176
     1
 62
   257
176
     1
 90
        1
176
     1
 90
        1
176
     1
 40
1.0
176
     1
 90
        8
176
     1
 62
     7
176
     1
 40
1.0
176
     1
 90
        1
176
     1
 90
        6
176
     1
 90
        2
176
     1
 62
     7
176
     1
 90
        5
176
     1
 90
        0
176
     1
 90
        0
176
     1
290
     0
176
     1
 90
        1
176
     1
 40
0.0
176
     1
 90
        0
176
     1
290
     0
176
     1
290
     1
176
     1
290
     1
176
     1
290
     0
176
     1
290
     0
176
     1
290
     0
176
     1
290
     0
176
     1
290
     0
176
     1
290
     0
176
     1
 90
       50
176
     1
 40
0.0
176
     1
 40
1.0
176
     1
 90
        0
176
     1
 62
    18
420
        0
176
     1
 90
       50
176
     1
 90
        3
176
     1
 62
     5
420
      255
176
     1
290
     0
176
     1
 90
       50
176
     1
 90
       50
176
     1
 90
       50
176
     1
290
     0
176
     1
 90
       50
176
     1
 62
   256
176
     0
 40
1.0
176
     0
 90
        2
176
     1
  1
strokes_ogs.tif
176
     1
290
     0
176
     1
 40
1.0
176
     1
 40
1.0
176
     1
  0
VISUALSTYLE
  5
BD
102
{ACAD_REACTORS
330
21
102
}
330
21
100
AcDbVisualStyle
  2
Flat
 70
     0
177
     3
291
     1
 70
    58
 90
        2
176
     1
 90
        1
176
     1
 90
        1
176
     1
 90
        2
176
     1
 40
0.6
176
     1
 40
30.0
176
     1
 62
     7
420
 16777215
176
     1
 90
        0
176
     1
 90
        0
176
     1
 62
     7
176
     1
 62
   257
176
     1
 90
        1
176
     1
 90
        1
176
     1
 40
1.0
176
     1
 90
        8
176
     1
 62
     7
176
     1
 40
1.0
176
     1
 90
        1
176
     1
 90
        6
176
     1
 90
        2
176
     1
 62
     7
176
     1
 90
        5
176
     1
 90
        0
176
     1
 90
        0
176
     1
290
     0
176
     1
 90
       13
176
     1
 40
0.0
176
     1
 90
        0
176
     1
290
     0
176
     1
290
     1
176
     1
290
     1
176
     1
290
     0
176
     1
290
     0
176
     1
290
     0
176
     1
290
     0
176
     1
290
     0
176
     1
290
     0
176
     1
 90
       50
176
     1
 40
0.0
176
     1
 40
1.0
176
     1
 90
        0
176
     1
 62
    18
420
        0
176
     1
 90
       50
176
     1
 90
        3
176
     1
 62
     5
420
      255
176
     1
290
     0
176
     1
 90
       50
176
     1
 90
       50
176
     1
 90
       50
176
     1
290
     0
176
     1
 90
       50
176
     1
 62
   256
176
     0
 40
1.0
176
     0
 90
        2
176
     1
  1
strokes_ogs.tif
176
     1
290
     0
176
     1
 40
1.0
176
     1
 40
1.0
176
     1
  0
VISUALSTYLE
  5
BE
102
{ACAD_REACTORS
330
21
102
}
330
21
100
AcDbVisualStyle
  2
FlatWithEdges
 70
     1
177
     3
291
     1
 70
    58
 90
        2
176
     1
 90
        1
176
     1
 90
        1
176
     1
 90
        2
176
     1
 40
0.6
176
     1
 40
30.0
176
     1
 62
     7
420
 16777215
176
     1
 90
        1
176
     1
 90
        0
176
     1
 62
     7
176
     1
 62
   257
176
     1
 90
        1
176
     1
 90
        1
176
     1
 40
1.0
176
     1
 90
        0
176
     1
 62
   257
176
     1
 40
1.0
176
     1
 90
        1
176
     1
 90
        6
176
     1
 90
        2
176
     1
 62
     7
176
     1
 90
        5
176
     1
 90
        0
176
     1
 90
        0
176
     1
290
     0
176
     1
 90
       13
176
     1
 40
0.0
176
     1
 90
        0
176
     1
290
     0
176
     1
290
     1
176
     1
290
     1
176
     1
290
     0
176
     1
290
     0
176
     1
290
     0
176
     1
290
     0
176
     1
290
     0
176
     1
290
     0
176
     1
 90
       50
176
     1
 40
0.0
176
     1
 40
1.0
176
     1
 90
        0
176
     1
 62
    18
420
        0
176
     1
 90
       50
176
     1
 90
        3
176
     1
 62
     5
420
      255
176
     1
290
     0
176
     1
 90
       50
176
     1
 90
       50
176
     1
 90
       50
176
     1
290
     0
176
     1
 90
       50
176
     1
 62
   256
176
     0
 40
1.0
176
     0
 90
        2
176
     1
  1
strokes_ogs.tif
176
     1
290
     0
176
     1
 40
1.0
176
     1
 40
1.0
176
     1
  0
VISUALSTYLE
  5
BF
102
{ACAD_REACTORS
330
21
102
}
330
21
100
AcDbVisualStyle
  2
Gouraud
 70
     2
177
     3
291
     1
 70
    58
 90
        2
176
     1
 90
        2
176
     1
 90
        1
176
     1
 90
        2
176
     1
 40
0.6
176
     1
 40
30.0
176
     1
 62
     7
420
 16777215
176
     1
 90
        0
176
     1
 90
        0
176
     1
 62
     7
176
     1
 62
   257
176
     1
 90
        1
176
     1
 90
        1
176
     1
 40
1.0
176
     1
 90
        0
176
     1
 62
     7
176
     1
 40
1.0
176
     1
 90
        1
176
     1
 90
        6
176
     1
 90
        2
176
     1
 62
     7
176
     1
 90
        5
176
     1
 90
        0
176
     1
 90
        0
176
     1
290
     0
176
     1
 90
       13
176
     1
 40
0.0
176
     1
 90
        0
176
     1
290
     0
176
     1
290
     1
176
     1
290
     1
176
     1
290
     0
176
     1
290
     0
176
     1
290
     0
176
     1
290
     0
176
     1
290
     0
176
     1
290
     0
176
     1
 90
       50
176
     1
 40
0.0
176
     1
 40
1.0
176
     1
 90
        0
176
     1
 62
    18
420
        0
176
     1
 90
       50
176
     1
 90
        3
176
     1
 62
     5
420
      255
176
     1
290
     0
176
     1
 90
       50
176
     1
 90
       50
176
     1
 90
       50
176
     1
290
     0
176
     1
 90
       50
176
     1
 62
   256
176
     0
 40
1.0
176
     0
 90
        2
176
     1
  1
strokes_ogs.tif
176
     1
290
     0
176
     1
 40
1.0
176
     1
 40
1.0
176
     1
  0
VISUALSTYLE
  5
C0
102
{ACAD_REACTORS
330
21
102
}
330
21
100
AcDbVisualStyle
  2
GouraudWithEdges
 70
     3
177
     3
291
     1
 70
    58
 90
        2
176
     1
 90
        2
176
     1
 90
        1
176
     1
 90
        2
176
     1
 40
0.6
176
     1
 40
30.0
176
     1
 62
     7
420
 16777215
176
     1
 90
        1
176
     1
 90
        0
176
     1
 62
     7
176
     1
 62
   257
176
     1
 90
        1
176
     1
 90
        1
176
     1
 40
1.0
176
     1
 90
        0
176
     1
 62
   257
176
     1
 40
1.0
176
     1
 90
        1
176
     1
 90
        6
176
     1
 90
        2
176
     1
 62
     7
176
     1
 90
        5
176
     1
 90
        0
176
     1
 90
        0
176
     1
290
     0
176
     1
 90
       13
176
     1
 40
0.0
176
     1
 90
        0
176
     1
290
     0
176
     1
290
     1
176
     1
290
     1
176
     1
290
     0
176
     1
290
     0
176
     1
290
     0
176
     1
290
     0
176
     1
290
     0
176
     1
290
     0
176
     1
 90
       50
176
     1
 40
0.0
176
     1
 40
1.0
176
     1
 90
        0
176
     1
 62
    18
420
        0
176
     1
 90
       50
176
     1
 90
        3
176
     1
 62
     5
420
      255
176
     1
290
     0
176
     1
 90
       50
176
     1
 90
       50
176
     1
 90
       50
176
     1
290
     0
176
     1
 90
       50
176
     1
 62
   256
176
     0
 40
1.0
176
     0
 90
        2
176
     1
  1
strokes_ogs.tif
176
     1
290
     0
176
     1
 40
1.0
176
     1
 40
1.0
176
     1
  0
VISUALSTYLE
  5
C2
102
{ACAD_REACTORS
330
21
102
}
330
21
100
AcDbVisualStyle
  2
Hidden
 70
     6
177
     3
291
     0
 70
    58
 90
        1
176
     1
 90
        2
176
     1
 90
        2
176
     1
 90
        0
176
     1
 40
0.6
176
     1
 40
30.0
176
     1
 62
     7
420
 16777215
176
     1
 90
        2
176
     1
 90
        2
176
     1
 62
     7
176
     1
 62
   257
176
     1
 90
        2
176
     1
 90
        1
176
     1
 40
40.0
176
     1
 90
        0
176
     1
 62
   257
176
     1
 40
1.0
176
     1
 90
        1
176
     1
 90
        6
176
     1
 90
        2
176
     1
 62
     7
176
     1
 90
        3
176
     1
 90
        0
176
     1
 90
        0
176
     1
290
     0
176
     1
 90
        1
176
     1
 40
0.0
176
     1
 90
        0
176
     1
290
     0
176
     1
290
     1
176
     1
290
     1
176
     1
290
     0
176
     1
290
     0
176
     1
290
     0
176
     1
290
     0
176
     1
290
     0
176
     1
290
     0
176
     1
 90
       50
176
     1
 40
0.0
176
     1
 40
1.0
176
     1
 90
        0
176
     1
 62
    18
420
        0
176
     1
 90
       50
176
     1
 90
        3
176
     1
 62
     5
420
      255
176
     1
290
     0
176
     1
 90
       50
176
     1
 90
       50
176
     1
 90
       50
176
     1
290
     0
176
     1
 90
       50
176
     1
 62
   256
176
     0
 40
1.0
176
     0
 90
        2
176
     1
  1
strokes_ogs.tif
176
     1
290
     0
176
     1
 40
1.0
176
     1
 40
1.0
176
     1
  0
VISUALSTYLE
  5
CF
102
{ACAD_REACTORS
330
21
102
}
330
21
100
AcDbVisualStyle
  2
JitterOff
 70
    20
177
     3
291
     1
 70
    58
 90
        2
176
     0
 90
        2
176
     0
 90
        0
176
     0
 90
        0
176
     0
 40
0.6
176
     0
 40
30.0
176
     0
 62
     7
420
 16777215
176
     0
 90
        1
176
     0
 90
        4
176
     0
 62
     7
176
     0
 62
   257
176
     0
 90
        1
176
     0
 90
        1
176
     0
 40
1.0
176
     0
 90
       10
176
     2
 62
     7
176
     0
 40
1.0
176
     0
 90
        1
176
     0
 90
        6
176
     0
 90
        2
176
     0
 62
     7
176
     0
 90
        5
176
     0
 90
        0
176
     0
 90
        0
176
     0
290
     0
176
     0
 90
        1
176
     0
 40
0.0
176
     0
 90
        0
176
     0
290
     0
176
     0
290
     1
176
     0
290
     1
176
     0
290
     0
176
     0
290
     0
176
     0
290
     0
176
     0
290
     0
176
     0
290
     0
176
     0
290
     0
176
     0
 90
       50
176
     0
 40
0.0
176
     0
 40
1.0
176
     0
 90
        0
176
     0
 62
    18
420
        0
176
     0
 90
       50
176
     0
 90
        3
176
     0
 62
     5
420
      255
176
     0
290
     0
176
     0
 90
       50
176
     0
 90
       50
176
     0
 90
       50
176
     0
290
     0
176
     0
 90
       50
176
     0
 62
   256
176
     0
 40
1.0
176
     0
 90
        2
176
     0
  1
strokes_ogs.tif
176
     0
290
     0
176
     0
 40
1.0
176
     0
 40
1.0
176
     0
  0
VISUALSTYLE
  5
C7
102
{ACAD_REACTORS
330
21
102
}
330
21
100
AcDbVisualStyle
  2
Linepattern
 70
    14
177
     3
291
     1
 70
    58
 90
        2
176
     1
 90
        2
176
     1
 90
        0
176
     1
 90
        0
176
     1
 40
0.6
176
     1
 40
30.0
176
     1
 62
     7
420
 16777215
176
     1
 90
        1
176
     1
 90
        4
176
     1
 62
     7
176
     1
 62
   257
176
     1
 90
        7
176
     1
 90
        7
176
     1
 40
1.0
176
     1
 90
        8
176
     1
 62
     7
176
     1
 40
1.0
176
     1
 90
        1
176
     1
 90
        6
176
     1
 90
        2
176
     1
 62
     7
176
     1
 90
        5
176
     1
 90
        0
176
     1
 90
        0
176
     1
290
     0
176
     1
 90
        1
176
     1
 40
0.0
176
     1
 90
        0
176
     1
290
     0
176
     1
290
     1
176
     1
290
     1
176
     1
290
     0
176
     1
290
     0
176
     1
290
     0
176
     1
290
     0
176
     1
290
     0
176
     1
290
     0
176
     1
 90
       50
176
     1
 40
0.0
176
     1
 40
1.0
176
     1
 90
        0
176
     1
 62
    18
420
        0
176
     1
 90
       50
176
     1
 90
        3
176
     1
 62
     5
420
      255
176
     1
290
     0
176
     1
 90
       50
176
     1
 90
       50
176
     1
 90
       50
176
     1
290
     0
176
     1
 90
       50
176
     1
 62
   256
176
     0
 40
1.0
176
     0
 90
        2
176
     1
  1
strokes_ogs.tif
176
     1
290
     0
176
     1
 40
1.0
176
     1
 40
1.0
176
     1
  0
VISUALSTYLE
  5
D0
102
{ACAD_REACTORS
330
21
102
}
330
21
100
AcDbVisualStyle
  2
OverhangOff
 70
    21
177
     3
291
     1
 70
    58
 90
        2
176
     0
 90
        2
176
     0
 90
        0
176
     0
 90
        0
176
     0
 40
0.6
176
     0
 40
30.0
176
     0
 62
     7
420
 16777215
176
     0
 90
        1
176
     0
 90
        4
176
     0
 62
     7
176
     0
 62
   257
176
     0
 90
        1
176
     0
 90
        1
176
     0
 40
1.0
176
     0
 90
        9
176
     2
 62
     7
176
     0
 40
1.0
176
     0
 90
        1
176
     0
 90
        6
176
     0
 90
        2
176
     0
 62
     7
176
     0
 90
        5
176
     0
 90
        0
176
     0
 90
        0
176
     0
290
     0
176
     0
 90
        1
176
     0
 40
0.0
176
     0
 90
        0
176
     0
290
     0
176
     0
290
     1
176
     0
290
     1
176
     0
290
     0
176
     0
290
     0
176
     0
290
     0
176
     0
290
     0
176
     0
290
     0
176
     0
290
     0
176
     0
 90
       50
176
     0
 40
0.0
176
     0
 40
1.0
176
     0
 90
        0
176
     0
 62
    18
420
        0
176
     0
 90
       50
176
     0
 90
        3
176
     0
 62
     5
420
      255
176
     0
290
     0
176
     0
 90
       50
176
     0
 90
       50
176
     0
 90
       50
176
     0
290
     0
176
     0
 90
       50
176
     0
 62
   256
176
     0
 40
1.0
176
     0
 90
        2
176
     0
  1
strokes_ogs.tif
176
     0
290
     0
176
     0
 40
1.0
176
     0
 40
1.0
176
     0
  0
VISUALSTYLE
  5
39
102
{ACAD_REACTORS
330
21
102
}
330
21
100
AcDbVisualStyle
  2
Realistic
 70
     8
177
     3
291
     0
 70
    58
 90
        2
176
     1
 90
        3
176
     1
 90
        0
176
     1
 90
        2
176
     1
 40
0.6
176
     1
 40
30.0
176
     1
 62
     7
420
 16777215
176
     1
 90
        0
176
     1
 90
        0
176
     1
 62
     7
176
     1
 62
   257
176
     1
 90
        1
176
     1
 90
        1
176
     1
 40
1.0
176
     1
 90
        8
176
     1
 62
   257
176
     1
 40
1.0
176
     1
 90
        1
176
     1
 90
        6
176
     1
 90
        2
176
     1
 62
     7
176
     1
 90
        3
176
     1
 90
        0
176
     1
 90
        0
176
     1
290
     0
176
     1
 90
       13
176
     1
 40
0.0
176
     1
 90
        0
176
     1
290
     0
176
     1
290
     1
176
     1
290
     1
176
     1
290
     0
176
     1
290
     0
176
     1
290
     0
176
     1
290
     0
176
     1
290
     0
176
     1
290
     0
176
     1
 90
       50
176
     1
 40
0.0
176
     1
 40
1.0
176
     1
 90
        0
176
     1
 62
    18
176
     1
 90
       50
176
     1
 90
        3
176
     1
 62
     5
420
      255
176
     1
290
     0
176
     1
 90
       50
176
     1
 90
       50
176
     1
 90
       50
176
     1
290
     0
176
     1
 90
       50
176
     1
 62
   256
176
     0
 40
1.0
176
     0
 90
        2
176
     1
  1
strokes_ogs.tif
176
     1
290
     0
176
     1
 40
1.0
176
     1
 40
1.0
176
     1
  0
VISUALSTYLE
  5
CE
102
{ACAD_REACTORS
330
21
102
}
330
21
100
AcDbVisualStyle
  2
Shaded
 70
    27
177
     3
291
     0
 70
    58
 90
        2
176
     1
 90
        2
176
     1
 90
        1
176
     1
 90
        2
176
     1
 40
0.6
176
     1
 40
30.0
176
     1
 62
     7
420
 16777215
176
     1
 90
        0
176
     1
 90
        4
176
     1
 62
     7
176
     1
 62
   257
176
     1
 90
        1
176
     1
 90
        1
176
     1
 40
1.0
176
     1
 90
        8
176
     1
 62
   257
176
     1
 40
1.0
176
     1
 90
        1
176
     1
 90
        6
176
     1
 90
        2
176
     1
 62
     8
420
  7895160
176
     1
 90
        3
176
     1
 90
        0
176
     1
 90
        0
176
     1
290
     0
176
     1
 90
        5
176
     1
 40
0.0
176
     1
 90
        0
176
     1
290
     0
176
     1
290
     1
176
     1
290
     1
176
     1
290
     0
176
     1
290
     0
176
     1
290
     0
176
     1
290
     0
176
     1
290
     0
176
     1
290
     0
176
     1
 90
       50
176
     1
 40
0.0
176
     1
 40
1.0
176
     1
 90
        0
176
     1
 62
    18
420
        0
176
     1
 90
       50
176
     1
 90
        3
176
     1
 62
     5
420
      255
176
     1
290
     0
176
     1
 90
       50
176
     1
 90
       50
176
     1
 90
       50
176
     1
290
     0
176
     1
 90
       50
176
     1
 62
   256
176
     0
 40
1.0
176
     0
 90
        2
176
     1
  1
strokes_ogs.tif
176
     1
290
     0
176
     1
 40
1.0
176
     1
 40
1.0
176
     1
  0
VISUALSTYLE
  5
CD
102
{ACAD_REACTORS
330
21
102
}
330
21
100
AcDbVisualStyle
  2
Shaded with edges
 70
    26
177
     3
291
     0
 70
    58
 90
        2
176
     1
 90
        2
176
     1
 90
        1
176
     1
 90
        2
176
     1
 40
0.6
176
     1
 40
30.0
176
     1
 62
     7
420
 16777215
176
     1
 90
        1
176
     1
 90
        2
176
     1
 62
     7
176
     1
 62
   257
176
     1
 90
        2
176
     1
 90
        1
176
     1
 40
1.0
176
     1
 90
        8
176
     1
 62
   257
176
     1
 40
1.0
176
     1
 90
        1
176
     1
 90
        6
176
     1
 90
        2
176
     1
 62
     7
176
     1
 90
        3
176
     1
 90
        0
176
     1
 90
        0
176
     1
290
     0
176
     1
 90
        5
176
     1
 40
0.0
176
     1
 90
        0
176
     1
290
     0
176
     1
290
     1
176
     1
290
     1
176
     1
290
     0
176
     1
290
     0
176
     1
290
     0
176
     1
290
     0
176
     1
290
     0
176
     1
290
     0
176
     1
 90
       50
176
     1
 40
0.0
176
     1
 40
1.0
176
     1
 90
        0
176
     1
 62
    18
420
        0
176
     1
 90
       50
176
     1
 90
        3
176
     1
 62
     5
420
      255
176
     1
290
     0
176
     1
 90
       50
176
     1
 90
       50
176
     1
 90
       50
176
     1
290
     0
176
     1
 90
       50
176
     1
 62
   256
176
     0
 40
1.0
176
     0
 90
        2
176
     1
  1
strokes_ogs.tif
176
     1
290
     0
176
     1
 40
1.0
176
     1
 40
1.0
176
     1
  0
VISUALSTYLE
  5
CA
102
{ACAD_REACTORS
330
21
102
}
330
21
100
AcDbVisualStyle
  2
Shades of Gray
 70
    23
177
     3
291
     0
 70
    58
 90
        2
176
     1
 90
        2
176
     1
 90
        3
176
     1
 90
        0
176
     1
 40
0.6
176
     1
 40
30.0
176
     1
 62
     7
420
 16777215
176
     1
 90
        2
176
     1
 90
        2
176
     1
 62
     7
176
     1
 62
     7
176
     1
 90
        1
176
     1
 90
        1
176
     1
 40
40.0
176
     1
 90
        8
176
     1
 62
     7
176
     1
 40
1.0
176
     1
 90
        1
176
     1
 90
        6
176
     1
 90
        2
176
     1
 62
     7
176
     1
 90
        3
176
     1
 90
        0
176
     1
 90
        0
176
     1
290
     0
176
     1
 90
        1
176
     1
 40
0.0
176
     1
 90
        0
176
     1
290
     0
176
     1
290
     1
176
     1
290
     1
176
     1
290
     0
176
     1
290
     0
176
     1
290
     0
176
     1
290
     0
176
     1
290
     0
176
     1
290
     0
176
     1
 90
       50
176
     1
 40
0.0
176
     1
 40
1.0
176
     1
 90
        0
176
     1
 62
    18
420
        0
176
     1
 90
       50
176
     1
 90
        3
176
     1
 62
     5
420
      255
176
     1
290
     0
176
     1
 90
       50
176
     1
 90
       50
176
     1
 90
       50
176
     1
290
     0
176
     1
 90
       50
176
     1
 62
   256
176
     0
 40
1.0
176
     0
 90
        2
176
     1
  1
strokes_ogs.tif
176
     1
290
     0
176
     1
 40
1.0
176
     1
 40
1.0
176
     1
  0
VISUALSTYLE
  5
CB
102
{ACAD_REACTORS
330
21
102
}
330
21
100
AcDbVisualStyle
  2
Sketchy
 70
    24
177
     3
291
     0
 70
    58
 90
        1
176
     1
 90
        2
176
     1
 90
        2
176
     1
 90
        0
176
     1
 40
0.6
176
     1
 40
30.0
176
     1
 62
     7
420
 16777215
176
     1
 90
        2
176
     1
 90
        2
176
     1
 62
     7
176
     1
 62
     7
176
     1
 90
        1
176
     1
 90
        1
176
     1
 40
40.0
176
     1
 90
       11
176
     1
 62
     7
176
     1
 40
1.0
176
     1
 90
        1
176
     1
 90
        6
176
     1
 90
        2
176
     1
 62
     7
176
     1
 90
        6
176
     1
 90
        0
176
     1
 90
        0
176
     1
290
     0
176
     1
 90
        1
176
     1
 40
0.0
176
     1
 90
        0
176
     1
290
     0
176
     1
290
     1
176
     1
290
     1
176
     1
290
     0
176
     1
290
     0
176
     1
290
     0
176
     1
290
     0
176
     1
290
     0
176
     1
290
     0
176
     1
 90
       50
176
     1
 40
0.0
176
     1
 40
1.0
176
     1
 90
        0
176
     1
 62
    18
420
        0
176
     1
 90
       50
176
     1
 90
        3
176
     1
 62
     5
420
      255
176
     1
290
     0
176
     1
 90
       50
176
     1
 90
       50
176
     1
 90
       50
176
     1
290
     0
176
     1
 90
       50
176
     1
 62
   256
176
     0
 40
1.0
176
     0
 90
        2
176
     1
  1
strokes_ogs.tif
176
     1
290
     0
176
     1
 40
1.0
176
     1
 40
1.0
176
     1
  0
VISUALSTYLE
  5
C6
102
{ACAD_REACTORS
330
21
102
}
330
21
100
AcDbVisualStyle
  2
Thicken
 70
    13
177
     3
291
     1
 70
    58
 90
        2
176
     1
 90
        2
176
     1
 90
        0
176
     1
 90
        0
176
     1
 40
0.6
176
     1
 40
30.0
176
     1
 62
     7
420
 16777215
176
     1
 90
        1
176
     1
 90
        4
176
     1
 62
     7
176
     1
 62
   257
176
     1
 90
        1
176
     1
 90
        1
176
     1
 40
1.0
176
     1
 90
       12
176
     1
 62
     7
176
     1
 40
1.0
176
     1
 90
        1
176
     1
 90
        6
176
     1
 90
        2
176
     1
 62
     7
176
     1
 90
        5
176
     1
 90
        0
176
     1
 90
        0
176
     1
290
     0
176
     1
 90
        1
176
     1
 40
0.0
176
     1
 90
        0
176
     1
290
     0
176
     1
290
     1
176
     1
290
     1
176
     1
290
     0
176
     1
290
     0
176
     1
290
     0
176
     1
290
     0
176
     1
290
     0
176
     1
290
     0
176
     1
 90
       50
176
     1
 40
0.0
176
     1
 40
1.0
176
     1
 90
        0
176
     1
 62
    18
420
        0
176
     1
 90
       50
176
     1
 90
        3
176
     1
 62
     5
420
      255
176
     1
290
     0
176
     1
 90
       50
176
     1
 90
       50
176
     1
 90
       50
176
     1
290
     0
176
     1
 90
       50
176
     1
 62
   256
176
     0
 40
1.0
176
     0
 90
        2
176
     1
  1
strokes_ogs.tif
176
     1
290
     0
176
     1
 40
1.0
176
     1
 40
1.0
176
     1
  0
VISUALSTYLE
  5
3A
102
{ACAD_REACTORS
330
21
102
}
330
21
100
AcDbVisualStyle
  2
Wireframe
 70
     5
177
     3
291
     0
 70
    58
 90
        0
176
     1
 90
        2
176
     1
 90
        0
176
     1
 90
        0
176
     1
 40
0.6
176
     1
 40
30.0
176
     1
 62
     7
420
 16777215
176
     1
 90
        1
176
     1
 90
        4
176
     1
 62
     7
176
     1
 62
   257
176
     1
 90
        1
176
     1
 90
        1
176
     1
 40
1.0
176
     1
 90
        0
176
     1
 62
   257
176
     1
 40
1.0
176
     1
 90
        1
176
     1
 90
        6
176
     1
 90
        2
176
     1
 62
     7
176
     1
 90
        3
176
     1
 90
        0
176
     1
 90
        0
176
     1
290
     0
176
     1
 90
        1
176
     1
 40
0.0
176
     1
 90
        0
176
     1
290
     0
176
     1
290
     1
176
     1
290
     1
176
     1
290
     0
176
     1
290
     0
176
     1
290
     0
176
     1
290
     0
176
     1
290
     0
176
     1
290
     0
176
     1
 90
       50
176
     1
 40
0.0
176
     1
 40
1.0
176
     1
 90
        0
176
     1
 62
    18
176
     1
 90
       50
176
     1
 90
        3
176
     1
 62
     5
420
      255
176
     1
290
     0
176
     1
 90
       50
176
     1
 90
       50
176
     1
 90
       50
176
     1
290
     0
176
     1
 90
       50
176
     1
 62
   256
176
     0
 40
1.0
176
     0
 90
        2
176
     1
  1
strokes_ogs.tif
176
     1
290
     0
176
     1
 40
1.0
176
     1
 40
1.0
176
     1
  0
VISUALSTYLE
  5
CC
102
{ACAD_REACTORS
330
21
102
}
330
21
100
AcDbVisualStyle
  2
X-Ray
 70
    25
177
     3
291
     0
 70
    58
 90
        2
176
     1
 90
        2
176
     1
 90
        1
176
     1
 90
        1
176
     1
 40
0.5
176
     1
 40
30.0
176
     1
 62
     7
420
 16777215
176
     1
 90
        1
176
     1
 90
        0
176
     1
 62
     7
176
     1
 62
   257
176
     1
 90
        1
176
     1
 90
        1
176
     1
 40
1.0
176
     1
 90
        8
176
     1
 62
     7
176
     1
 40
1.0
176
     1
 90
        1
176
     1
 90
        6
176
     1
 90
        2
176
     1
 62
     7
176
     1
 90
        3
176
     1
 90
        0
176
     1
 90
        0
176
     1
290
     0
176
     1
 90
       13
176
     1
 40
0.0
176
     1
 90
        0
176
     1
290
     0
176
     1
290
     1
176
     1
290
     1
176
     1
290
     0
176
     1
290
     0
176
     1
290
     0
176
     1
290
     0
176
     1
290
     0
176
     1
290
     0
176
     1
 90
       50
176
     1
 40
0.0
176
     1
 40
1.0
176
     1
 90
        0
176
     1
 62
    18
420
        0
176
     1
 90
       50
176
     1
 90
        3
176
     1
 62
     5
420
      255
176
     1
290
     0
176
     1
 90
       50
176
     1
 90
       50
176
     1
 90
       50
176
     1
290
     0
176
     1
 90
       50
176
     1
 62
   256
176
     0
 40
1.0
176
     0
 90
        2
176
     1
  1
strokes_ogs.tif
176
     1
290
     0
176
     1
 40
1.0
176
     1
 40
1.0
176
     1
  0
DICTIONARYVAR
  5
31
102
{ACAD_REACTORS
330
30
102
}
330
30
100
DictionaryVariables
280
     0
  1
1:1
  0
DICTIONARYVAR
  5
32
102
{ACAD_REACTORS
330
30
102
}
330
30
100
DictionaryVariables
280
     0
  1
STANDARD
  0
DICTIONARYVAR
  5
33
102
{ACAD_REACTORS
330
30
102
}
330
30
100
DictionaryVariables
280
     0
  1
STANDARD
  0
DICTIONARYVAR
  5
34
102
{ACAD_REACTORS
330
30
102
}
330
30
100
DictionaryVariables
280
     0
  1
Imperial24
  0
DICTIONARYVAR
  5
35
102
{ACAD_REACTORS
330
30
102
}
330
30
100
DictionaryVariables
280
     0
  1
Imperial24
  0
DICTIONARYVAR
  5
36
102
{ACAD_REACTORS
330
30
102
}
330
30
100
DictionaryVariables
280
     0
  1
0
  0
DICTIONARY
  5
B8
330
38
100
AcDbDictionary
280
     1
281
     1
  3
ACAD_ROUNDTRIP_2008_TABLESTYLE_CELLSTYLEMAP
360
465
  0
CELLSTYLEMAP
  5
465
102
{ACAD_REACTORS
330
B8
102
}
330
B8
100
AcDbCellStyleMap
 90
        3
300
CELLSTYLE
  1
TABLEFORMAT_BEGIN
 90
        5
170
     1
 91
        0
 92
    32768
 62
   257
 93
        1
300
CONTENTFORMAT
  1
CONTENTFORMAT_BEGIN
 90
        0
 91
        0
 92
        4
 93
        0
300

 40
0.0
140
1.0
 94
        5
 62
     0
340
16
144
0.25
309
CONTENTFORMAT_END
171
     1
301
MARGIN
  1
CELLMARGIN_BEGIN
 40
0.06
 40
0.06
 40
0.06
 40
0.06
 40
0.18
 40
0.18
309
CELLMARGIN_END
 94
        6
 95
        1
302
GRIDFORMAT
  1
GRIDFORMAT_BEGIN
 90
        0
 91
        1
 62
     0
 92
       -2
340
1A
 93
        0
 40
0.045
309
GRIDFORMAT_END
 95
        2
302
GRIDFORMAT
  1
GRIDFORMAT_BEGIN
 90
        0
 91
        1
 62
     0
 92
       -2
340
1A
 93
        0
 40
0.045
309
GRIDFORMAT_END
 95
        4
302
GRIDFORMAT
  1
GRIDFORMAT_BEGIN
 90
        0
 91
        1
 62
     0
 92
       -2
340
1A
 93
        0
 40
0.045
309
GRIDFORMAT_END
 95
        8
302
GRIDFORMAT
  1
GRIDFORMAT_BEGIN
 90
        0
 91
        1
 62
     0
 92
       -2
340
1A
 93
        0
 40
0.045
309
GRIDFORMAT_END
 95
       16
302
GRIDFORMAT
  1
GRIDFORMAT_BEGIN
 90
        0
 91
        1
 62
     0
 92
       -2
340
1A
 93
        0
 40
0.045
309
GRIDFORMAT_END
 95
       32
302
GRIDFORMAT
  1
GRIDFORMAT_BEGIN
 90
        0
 91
        1
 62
     0
 92
       -2
340
1A
 93
        0
 40
0.045
309
GRIDFORMAT_END
309
TABLEFORMAT_END
  1
CELLSTYLE_BEGIN
 90
        1
 91
        1
300
_TITLE
309
CELLSTYLE_END
300
CELLSTYLE
  1
TABLEFORMAT_BEGIN
 90
        5
170
     1
 91
        0
 92
        0
 62
   257
 93
        1
300
CONTENTFORMAT
  1
CONTENTFORMAT_BEGIN
 90
        0
 91
        0
 92
        4
 93
        0
300

 40
0.0
140
1.0
 94
        5
 62
     0
340
16
144
0.18
309
CONTENTFORMAT_END
171
     1
301
MARGIN
  1
CELLMARGIN_BEGIN
 40
0.06
 40
0.06
 40
0.06
 40
0.06
 40
0.18
 40
0.18
309
CELLMARGIN_END
 94
        6
 95
        1
302
GRIDFORMAT
  1
GRIDFORMAT_BEGIN
 90
        0
 91
        1
 62
     0
 92
       -2
340
1A
 93
        0
 40
0.045
309
GRIDFORMAT_END
 95
        2
302
GRIDFORMAT
  1
GRIDFORMAT_BEGIN
 90
        0
 91
        1
 62
     0
 92
       -2
340
1A
 93
        0
 40
0.045
309
GRIDFORMAT_END
 95
        4
302
GRIDFORMAT
  1
GRIDFORMAT_BEGIN
 90
        0
 91
        1
 62
     0
 92
       -2
340
1A
 93
        0
 40
0.045
309
GRIDFORMAT_END
 95
        8
302
GRIDFORMAT
  1
GRIDFORMAT_BEGIN
 90
        0
 91
        1
 62
     0
 92
       -2
340
1A
 93
        0
 40
0.045
309
GRIDFORMAT_END
 95
       16
302
GRIDFORMAT
  1
GRIDFORMAT_BEGIN
 90
        0
 91
        1
 62
     0
 92
       -2
340
1A
 93
        0
 40
0.045
309
GRIDFORMAT_END
 95
       32
302
GRIDFORMAT
  1
GRIDFORMAT_BEGIN
 90
        0
 91
        1
 62
     0
 92
       -2
340
1A
 93
        0
 40
0.045
309
GRIDFORMAT_END
309
TABLEFORMAT_END
  1
CELLSTYLE_BEGIN
 90
        2
 91
        1
300
_HEADER
309
CELLSTYLE_END
300
CELLSTYLE
  1
TABLEFORMAT_BEGIN
 90
        5
170
     1
 91
        0
 92
        0
 62
   257
 93
        1
300
CONTENTFORMAT
  1
CONTENTFORMAT_BEGIN
 90
        0
 91
        0
 92
        4
 93
        0
300

 40
0.0
140
1.0
 94
        2
 62
     0
340
16
144
0.18
309
CONTENTFORMAT_END
171
     1
301
MARGIN
  1
CELLMARGIN_BEGIN
 40
0.06
 40
0.06
 40
0.06
 40
0.06
 40
0.18
 40
0.18
309
CELLMARGIN_END
 94
        6
 95
        1
302
GRIDFORMAT
  1
GRIDFORMAT_BEGIN
 90
        0
 91
        1
 62
     0
 92
       -2
340
1A
 93
        0
 40
0.045
309
GRIDFORMAT_END
 95
        2
302
GRIDFORMAT
  1
GRIDFORMAT_BEGIN
 90
        0
 91
        1
 62
     0
 92
       -2
340
1A
 93
        0
 40
0.045
309
GRIDFORMAT_END
 95
        4
302
GRIDFORMAT
  1
GRIDFORMAT_BEGIN
 90
        0
 91
        1
 62
     0
 92
       -2
340
1A
 93
        0
 40
0.045
309
GRIDFORMAT_END
 95
        8
302
GRIDFORMAT
  1
GRIDFORMAT_BEGIN
 90
        0
 91
        1
 62
     0
 92
       -2
340
1A
 93
        0
 40
0.045
309
GRIDFORMAT_END
 95
       16
302
GRIDFORMAT
  1
GRIDFORMAT_BEGIN
 90
        0
 91
        1
 62
     0
 92
       -2
340
1A
 93
        0
 40
0.045
309
GRIDFORMAT_END
 95
       32
302
GRIDFORMAT
  1
GRIDFORMAT_BEGIN
 90
        0
 91
        1
 62
     0
 92
       -2
340
1A
 93
        0
 40
0.045
309
GRIDFORMAT_END
309
TABLEFORMAT_END
  1
CELLSTYLE_BEGIN
 90
        3
 91
        2
300
_DATA
309
CELLSTYLE_END
  0
ENDSEC
  0
SECTION
  2
ACDSDATA
 70
     2
 71
     8
  0
ACDSSCHEMA
 90
        0
  1
AcDb_Thumbnail_Schema
  2
AcDbDs::ID
280
    10
 91
        8
  2
Thumbnail_Data
280
    15
 91
        0
101
ACDSRECORD
 95
        0
 90
        1
  2
AcDbDs::TreatedAsObjectData
280
     1
291
     1
101
ACDSRECORD
 95
        0
 90
        2
  2
AcDbDs::Legacy
280
     1
291
     1
101
ACDSRECORD
  1
AcDbDs::ID
 90
        3
  2
AcDs:Indexable
280
     1
291
     1
101
ACDSRECORD
  1
AcDbDs::ID
 90
        4
  2
AcDbDs::HandleAttribute
280
     7
282
     1
  0
ACDSSCHEMA
 90
        1
  1
AcDbDs::TreatedAsObjectDataSchema
  2
AcDbDs::TreatedAsObjectData
280
     1
 91
        0
  0
ACDSSCHEMA
 90
        2
  1
AcDbDs::LegacySchema
  2
AcDbDs::Legacy
280
     1
 91
        0
  0
ACDSSCHEMA
 90
        3
  1
AcDbDs::IndexedPropertySchema
  2
AcDs:Indexable
280
     1
 91
        0
  0
ACDSSCHEMA
 90
        4
  1
AcDbDs::HandleAttributeSchema
  2
AcDbDs::HandleAttribute
280
     7
 91
        1
284
     1
  0
ACDSRECORD
 90
        0
  2
AcDbDs::ID
280
    10
320
E
  2
Thumbnail_Data
280
    15
 94
     1053
310
89504E470D0A1A0A0000000D4948445200000100000000700803000000C6F95E2100000300504C5445212830FFFFFF2128300000000000000000000000000000000000000000000000000000330000660000990000CC0000FF0033000033330033660033990033CC0033FF0066000066330066660066990066CC0066FF0099
310
000099330099660099990099CC0099FF00CC0000CC3300CC6600CC9900CCCC00CCFF00FF0000FF3300FF6600FF9900FFCC00FFFF3300003300333300663300993300CC3300FF3333003333333333663333993333CC3333FF3366003366333366663366993366CC3366FF3399003399333399663399993399CC3399FF33CC00
310
33CC3333CC6633CC9933CCCC33CCFF33FF0033FF3333FF6633FF9933FFCC33FFFF6600006600336600666600996600CC6600FF6633006633336633666633996633CC6633FF6666006666336666666666996666CC6666FF6699006699336699666699996699CC6699FF66CC0066CC3366CC6666CC9966CCCC66CCFF66FF0066
310
FF3366FF6666FF9966FFCC66FFFF9900009900339900669900999900CC9900FF9933009933339933669933999933CC9933FF9966009966339966669966999966CC9966FF9999009999339999669999999999CC9999FF99CC0099CC3399CC6699CC9999CCCC99CCFF99FF0099FF3399FF6699FF9999FFCC99FFFFCC0000CC00
310
33CC0066CC0099CC00CCCC00FFCC3300CC3333CC3366CC3399CC33CCCC33FFCC6600CC6633CC6666CC6699CC66CCCC66FFCC9900CC9933CC9966CC9999CC99CCCC99FFCCCC00CCCC33CCCC66CCCC99CCCCCCCCCCFFCCFF00CCFF33CCFF66CCFF99CCFFCCCCFFFFFF0000FF0033FF0066FF0099FF00CCFF00FFFF3300FF3333
310
FF3366FF3399FF33CCFF33FFFF6600FF6633FF6666FF6699FF66CCFF66FFFF9900FF9933FF9966FF9999FF99CCFF99FFFFCC00FFCC33FFCC66FFCC99FFCCCCFFCCFFFFFF00FFFF33FFFF66FFFF99FFFFCCFFFFFF0000000D0D0D1A1A1A2828283535354343435050505D5D5D6B6B6B787878868686939393A1A1A1AEAEAEBB
310
BBBBC9C9C9D6D6D6E4E4E4F1F1F1FFFFFF0000000000000000000000000000000000000000000000000000000000002E4550F1000000D04944415478DAEDDACB0A83301005D0FCFFFFDE7D1762AB448462A1907BCE42E363334302992463000000000000F047D9F4463FB5AAC2BF7B6C09FF746D4A41B6A873B8EEB796F8C7
310
D4038E8D96F8BFF8D2117F4706F2E0AB042C1F7F4106DA13901FFCB170F5D3521CA57B1E20011290ABC2274505A11E600818028640752D789B80A6A9F0DE3ABE587E2A9C537B5E0EED2A8733AF88B7AF8858121BDD19685F176F9F08F5ED8DE5E2A9A51C9A37471B37C83F3DA0F388C47B1E547B4A66341F11020000000000
310
000000000000E09917CD939EDF16D04C690000000049454E44AE42608249454E44AE426082
  0
ENDSEC
  0
EOF
